<svg xmlns="http://www.w3.org/2000/svg" xmlns:xlink="http://www.w3.org/1999/xlink" width="353" height="50" viewBox="0 0 353 50">
  <defs>
    <style>
      .cls-1 {
        clip-path: url(#clip-blog_two_states);
      }

      .cls-2 {
        fill: #fff;
        font-size: 20px;
        font-family: Nunito-Bold, Nunito;
        font-weight: 700;
      }

      .cls-3 {
        fill: url(#linear-gradient);
      }
    </style>
    <linearGradient id="linear-gradient" x1="0.5" x2="0.5" y2="1" gradientUnits="objectBoundingBox">
      <stop offset="0" stop-color="#ffc800"/>
      <stop offset="0.246" stop-color="#ffce05"/>
      <stop offset="0.578" stop-color="#ffdf16"/>
      <stop offset="0.958" stop-color="#fffb31"/>
      <stop offset="1" stop-color="#ffff35"/>
    </linearGradient>
    <clipPath id="clip-blog_two_states">
      <rect width="353" height="50"/>
    </clipPath>
  </defs>
  <g id="blog_two_states" class="cls-1">
    <text id="Blog" class="cls-2" transform="translate(94 32)"><tspan x="-21.17" y="0">Blog</tspan></text>
    <g id="Grupo_248" data-name="Grupo 248" transform="translate(-710 63)">
      <text id="_.Blog__" data-name=".Blog { _" class="cls-2" transform="translate(1034 -31)"><tspan x="-75.9" y="0">.Blog { _</tspan></text>
      <path id="Trazado_171" data-name="Trazado 171" class="cls-3" d="M305.408,171.8a2.622,2.622,0,0,1-2.619-2.619v-5.031a2.619,2.619,0,0,1,5.238,0v2.412h67.394V128.694H309.49a2.619,2.619,0,1,1,0-5.238H378.04a2.622,2.622,0,0,1,2.618,2.619v43.1a2.622,2.622,0,0,1-2.618,2.619Z" transform="translate(682.336 -185.456)"/>
    </g>
  </g>
</svg>
