<svg id="dark" xmlns="http://www.w3.org/2000/svg" width="40" height="40" viewBox="0 0 40 40">
  <path id="Trazado_189" data-name="Trazado 189" d="M40,20A20,20,0,1,1,20,0,20,20,0,0,1,40,20Z" fill="#3c5d78"/>
  <path id="Trazado_190" data-name="Trazado 190" d="M86.115,52.344H70.108A20.114,20.114,0,0,1,72.756,50H86.115a1.172,1.172,0,0,1,0,2.344Zm4.3,30.078a1.172,1.172,0,0,0,1.172,1.172h2.734A20.045,20.045,0,0,0,97.68,81.25h-6.1A1.172,1.172,0,0,0,90.412,82.422ZM101.35,59.766a1.172,1.172,0,0,0-1.172-1.172H96.662a1.172,1.172,0,0,1,0-2.344h5.381a20.018,20.018,0,0,0-1.555-2.344H84.553a1.172,1.172,0,1,0,0,2.344h5.859a1.172,1.172,0,0,1,0,2.344H80.646a1.172,1.172,0,1,0,0,2.344h19.531A1.172,1.172,0,0,0,101.35,59.766Zm3.275,5.859H86.93a1.194,1.194,0,0,0-1.2,1.115A1.172,1.172,0,0,0,86.9,67.969h9.375a1.172,1.172,0,0,1,1.172,1.172,1.172,1.172,0,0,0,1.172,1.172h5.568a20.073,20.073,0,0,0,.447-4.219C104.631,65.937,104.628,65.781,104.625,65.625Z" transform="translate(-64.631 -46.094)" fill="#384e64"/>
  <path id="Trazado_191" data-name="Trazado 191" d="M261.837,26.568l.5.917a.156.156,0,0,0,.062.062l.918.5a.156.156,0,0,1,0,.274l-.918.5a.156.156,0,0,0-.062.062l-.5.917a.156.156,0,0,1-.274,0l-.5-.917a.156.156,0,0,0-.062-.062l-.917-.5a.156.156,0,0,1,0-.274l.917-.5a.156.156,0,0,0,.062-.062l.5-.917A.156.156,0,0,1,261.837,26.568Z" transform="translate(-239.687 -24.418)" fill="#40718c"/>
  <path id="Trazado_192" data-name="Trazado 192" d="M82.975,79.375l.918-.5a.157.157,0,0,0,.062-.062l.5-.918a.156.156,0,0,1,.274,0l.5.918a.156.156,0,0,0,.062.062l.917.5a.156.156,0,0,1,0,.274l-.917.5a.156.156,0,0,0-.062.062l-.5.918a.156.156,0,0,1-.274,0l-.5-.918a.156.156,0,0,0-.062-.062l-.918-.5A.156.156,0,0,1,82.975,79.375ZM76.768,70A14.639,14.639,0,1,0,93.189,91.905,23.592,23.592,0,0,1,76.768,70Z" transform="translate(-61.019 -64.531)" fill="#fff4a5"/>
  <path id="Trazado_193" data-name="Trazado 193" d="M71.956,118.664a1.953,1.953,0,1,1,1.953,1.953A1.953,1.953,0,0,1,71.956,118.664Zm7.813,3.516a1.562,1.562,0,1,0-1.562-1.562A1.562,1.562,0,0,0,79.769,122.179Zm-6.25-10.156a1.563,1.563,0,1,0-1.562-1.562A1.562,1.562,0,0,0,73.519,112.023Zm22.575-4.687-.917-.5a.157.157,0,0,1-.062-.062l-.5-.917a.156.156,0,0,0-.274,0l-.5.917a.156.156,0,0,1-.062.062l-.917.5a.156.156,0,0,0,0,.274l.917.5a.157.157,0,0,1,.062.062l.5.918a.156.156,0,0,0,.274,0l.5-.918a.156.156,0,0,1,.062-.062l.917-.5A.156.156,0,0,0,96.094,107.336Zm-6.95,19.531a2.344,2.344,0,1,0-3.251,2.161,14.638,14.638,0,0,1-14.368-23.613,14.636,14.636,0,1,0,20.607,20.6,14.65,14.65,0,0,1-3.323,2.064A2.332,2.332,0,0,0,89.144,126.867Z" transform="translate(-61.019 -97.179)" fill="#ffe473"/>
  <path id="Trazado_194" data-name="Trazado 194" d="M38.953,238.049l.917-.5a.156.156,0,0,0,.062-.062l.5-.917a.156.156,0,0,1,.274,0l.5.917a.156.156,0,0,0,.062.062l.917.5a.156.156,0,0,1,0,.274l-.917.5a.156.156,0,0,0-.062.062l-.5.917a.156.156,0,0,1-.274,0l-.5-.917a.155.155,0,0,0-.062-.062l-.917-.5A.156.156,0,0,1,38.953,238.049ZM42,246.917H9.965a1.172,1.172,0,0,1,0-2.344H22.075a1.172,1.172,0,1,0,0-2.344H5.725a19.892,19.892,0,0,0,3.015,7.031h6.694a1.172,1.172,0,0,1,0,2.344H10.609a20.117,20.117,0,0,0,2.586,2.344h12a1.172,1.172,0,1,0,0-2.344H21.684a1.172,1.172,0,1,1,0-2.344H42a1.172,1.172,0,0,0,0-2.344Z" transform="translate(-5.278 -218.011)" fill="#6599aa"/>
</svg>
