<svg xmlns="http://www.w3.org/2000/svg" width="40" height="39.122" viewBox="0 0 40 39.122">
  <g id="light" transform="translate(0 -5.5)">
    <path id="Trazado_180" data-name="Trazado 180" d="M45.093,38.155a19.559,19.559,0,1,1,4.819-15.968,8.928,8.928,0,0,0-1.635,5.15v6.028q-.385.82-.842,1.6l-.565.289a3.263,3.263,0,0,0-1.777,2.9Z" transform="translate(-10.121 0)" fill="#3493f8"/>
    <path id="Trazado_181" data-name="Trazado 181" d="M100.937,82.672A15.586,15.586,0,1,1,85.35,67.086,15.586,15.586,0,0,1,100.937,82.672Z" transform="translate(-64.194 -56.669)" fill="#55a4f9"/>
    <path id="Trazado_182" data-name="Trazado 182" d="M81.339,95.7a1.2,1.2,0,0,1-1.2,1.2H72.158a1.2,1.2,0,1,1,0-2.4h7.984A1.2,1.2,0,0,1,81.339,95.7ZM68.166,120.049H60.182a1.2,1.2,0,1,0,0,2.4h7.984a1.2,1.2,0,0,0,0-2.4ZM55.409,104.54H51.417a1.2,1.2,0,0,0,0,2.4h3.992a1.2,1.2,0,1,0,0-2.4Z" transform="translate(-46.209 -81.894)" fill="#86befb"/>
    <path id="Trazado_183" data-name="Trazado 183" d="M19.216,35.132l2.643,5.38a.4.4,0,0,0,.6.14l7.56-5.819a.4.4,0,0,1,.62.45l-3.216,9.039a.4.4,0,0,0,.275.52l5.193,1.365a.4.4,0,0,1,.187.662L29.593,50.51a.4.4,0,0,0,.063.605l7.885,5.4a.4.4,0,0,1-.237.728l-9.572-.265a.4.4,0,0,0-.408.438l.563,5.777a.4.4,0,0,1-.588.39l-4.791-2.6a.4.4,0,0,0-.573.238L19.241,70.37a.4.4,0,0,1-.766,0l-2.7-9.151a.4.4,0,0,0-.569-.24L10.27,63.587a.4.4,0,0,1-.583-.4l.693-5.759a.4.4,0,0,0-.407-.447l-9.562.265a.4.4,0,0,1-.237-.728L8,51.155a.4.4,0,0,0,.023-.642L1.7,45.488a.4.4,0,0,1,.246-.712l7.925-.042a.4.4,0,0,0,.374-.533L7.074,35.283a.4.4,0,0,1,.62-.45l7.56,5.819a.4.4,0,0,0,.6-.14l2.643-5.38a.4.4,0,0,1,.717,0Z" transform="translate(0 -26.912)" fill="#ffa90b"/>
    <path id="Trazado_184" data-name="Trazado 184" d="M141.475,46.868l-3.487,3.642a.4.4,0,0,0,.063.605l1.085.743a19.788,19.788,0,0,1-2.131.115A19.567,19.567,0,0,1,117.8,36.15l5.849,4.5a.4.4,0,0,0,.6-.14l2.643-5.38a.4.4,0,0,1,.717,0l2.643,5.38a.4.4,0,0,0,.6.14l7.56-5.819a.4.4,0,0,1,.62.45l-3.216,9.039a.4.4,0,0,0,.275.52l5.193,1.365A.4.4,0,0,1,141.475,46.868Z" transform="translate(-108.395 -26.912)" fill="#ffc14f"/>
    <path id="Trazado_185" data-name="Trazado 185" d="M139.551,130.607a9.182,9.182,0,1,1-9.182-9.182A9.182,9.182,0,0,1,139.551,130.607Z" transform="translate(-111.512 -106.669)" fill="#fff36c"/>
    <path id="Trazado_186" data-name="Trazado 186" d="M180.958,130.607a9.141,9.141,0,0,1-1.145,4.444,9.184,9.184,0,0,1-12.48-12.48,9.184,9.184,0,0,1,13.625,8.037Z" transform="translate(-152.919 -106.669)" fill="#fff68e"/>
    <path id="Trazado_187" data-name="Trazado 187" d="M178.363,227.274h6.175a19.629,19.629,0,0,1-2.342,3.194h-3.834a1.6,1.6,0,0,1,0-3.194Zm8.653-12.774H168.782a1.6,1.6,0,0,0,0,3.194h3.992a1.6,1.6,0,0,1,0,3.194H161.6a1.6,1.6,0,0,0,0,3.194h20.447a5.086,5.086,0,0,0,5.06-4.509,19.819,19.819,0,0,0-.088-5.072Z" transform="translate(-147.225 -192.313)" fill="#fff5f5"/>
    <path id="Trazado_188" data-name="Trazado 188" d="M323.4,280.887H311.6a1.6,1.6,0,0,1,0-3.194h5.589a1.6,1.6,0,0,0,1.6-1.6,1.6,1.6,0,0,1,1.6-1.6h4.778A19.434,19.434,0,0,1,323.4,280.887Z" transform="translate(-285.249 -247.523)" fill="#a7d0fc"/>
  </g>
</svg>
