<svg xmlns="http://www.w3.org/2000/svg" xmlns:xlink="http://www.w3.org/1999/xlink" width="417" height="379" viewBox="0 0 417 379">
  <defs>
    <filter id="Trazado_113" x="0" y="18.931" width="24.947" height="24.983" filterUnits="userSpaceOnUse">
      <feOffset dy="3" input="SourceAlpha"/>
      <feGaussianBlur stdDeviation="3" result="blur"/>
      <feFlood flood-opacity="0.161"/>
      <feComposite operator="in" in2="blur"/>
      <feComposite in="SourceGraphic"/>
    </filter>
    <filter id="Trazado_114" x="11.123" y="0" width="39.163" height="44.022" filterUnits="userSpaceOnUse">
      <feOffset dy="3" input="SourceAlpha"/>
      <feGaussianBlur stdDeviation="3" result="blur-2"/>
      <feFlood flood-opacity="0.161"/>
      <feComposite operator="in" in2="blur-2"/>
      <feComposite in="SourceGraphic"/>
    </filter>
    <filter id="Trazado_115" x="36.458" y="0" width="43.375" height="44.022" filterUnits="userSpaceOnUse">
      <feOffset dy="3" input="SourceAlpha"/>
      <feGaussianBlur stdDeviation="3" result="blur-3"/>
      <feFlood flood-opacity="0.161"/>
      <feComposite operator="in" in2="blur-3"/>
      <feComposite in="SourceGraphic"/>
    </filter>
    <filter id="Trazado_116" x="63.202" y="0.107" width="41.286" height="43.806" filterUnits="userSpaceOnUse">
      <feOffset dy="3" input="SourceAlpha"/>
      <feGaussianBlur stdDeviation="3" result="blur-4"/>
      <feFlood flood-opacity="0.161"/>
      <feComposite operator="in" in2="blur-4"/>
      <feComposite in="SourceGraphic"/>
    </filter>
    <filter id="Trazado_117" x="0" y="43.333" width="30.633" height="43.782" filterUnits="userSpaceOnUse">
      <feOffset dy="3" input="SourceAlpha"/>
      <feGaussianBlur stdDeviation="3" result="blur-5"/>
      <feFlood flood-opacity="0.161"/>
      <feComposite operator="in" in2="blur-5"/>
      <feComposite in="SourceGraphic"/>
    </filter>
    <filter id="Trazado_118" x="18.175" y="43.333" width="40.495" height="43.879" filterUnits="userSpaceOnUse">
      <feOffset dy="3" input="SourceAlpha"/>
      <feGaussianBlur stdDeviation="3" result="blur-6"/>
      <feFlood flood-opacity="0.161"/>
      <feComposite operator="in" in2="blur-6"/>
      <feComposite in="SourceGraphic"/>
    </filter>
    <filter id="Trazado_119" x="44.162" y="43.298" width="44.49" height="43.698" filterUnits="userSpaceOnUse">
      <feOffset dy="3" input="SourceAlpha"/>
      <feGaussianBlur stdDeviation="3" result="blur-7"/>
      <feFlood flood-opacity="0.161"/>
      <feComposite operator="in" in2="blur-7"/>
      <feComposite in="SourceGraphic"/>
    </filter>
    <filter id="Trazado_120" x="74.502" y="43.333" width="40.639" height="43.771" filterUnits="userSpaceOnUse">
      <feOffset dy="3" input="SourceAlpha"/>
      <feGaussianBlur stdDeviation="3" result="blur-8"/>
      <feFlood flood-opacity="0.161"/>
      <feComposite operator="in" in2="blur-8"/>
      <feComposite in="SourceGraphic"/>
    </filter>
    <filter id="Trazado_121" x="99.878" y="43.333" width="30.633" height="43.782" filterUnits="userSpaceOnUse">
      <feOffset dy="3" input="SourceAlpha"/>
      <feGaussianBlur stdDeviation="3" result="blur-9"/>
      <feFlood flood-opacity="0.161"/>
      <feComposite operator="in" in2="blur-9"/>
      <feComposite in="SourceGraphic"/>
    </filter>
    <filter id="Trazado_122" x="117.546" y="43.19" width="43.376" height="44.022" filterUnits="userSpaceOnUse">
      <feOffset dy="3" input="SourceAlpha"/>
      <feGaussianBlur stdDeviation="3" result="blur-10"/>
      <feFlood flood-opacity="0.161"/>
      <feComposite operator="in" in2="blur-10"/>
      <feComposite in="SourceGraphic"/>
    </filter>
    <filter id="Trazado_123" x="0" y="86.523" width="41.323" height="43.771" filterUnits="userSpaceOnUse">
      <feOffset dy="3" input="SourceAlpha"/>
      <feGaussianBlur stdDeviation="3" result="blur-11"/>
      <feFlood flood-opacity="0.161"/>
      <feComposite operator="in" in2="blur-11"/>
      <feComposite in="SourceGraphic"/>
    </filter>
    <filter id="Trazado_124" x="29.01" y="86.704" width="36.642" height="43.375" filterUnits="userSpaceOnUse">
      <feOffset dy="3" input="SourceAlpha"/>
      <feGaussianBlur stdDeviation="3" result="blur-12"/>
      <feFlood flood-opacity="0.161"/>
      <feComposite operator="in" in2="blur-12"/>
      <feComposite in="SourceGraphic"/>
    </filter>
    <filter id="Trazado_125" x="51.575" y="86.704" width="39.993" height="43.699" filterUnits="userSpaceOnUse">
      <feOffset dy="3" input="SourceAlpha"/>
      <feGaussianBlur stdDeviation="3" result="blur-13"/>
      <feFlood flood-opacity="0.161"/>
      <feComposite operator="in" in2="blur-13"/>
      <feComposite in="SourceGraphic"/>
    </filter>
    <filter id="Trazado_126" x="78.102" y="86.523" width="40.638" height="43.771" filterUnits="userSpaceOnUse">
      <feOffset dy="3" input="SourceAlpha"/>
      <feGaussianBlur stdDeviation="3" result="blur-14"/>
      <feFlood flood-opacity="0.161"/>
      <feComposite operator="in" in2="blur-14"/>
      <feComposite in="SourceGraphic"/>
    </filter>
    <filter id="Trazado_127" x="104.554" y="78.677" width="44.492" height="51.509" filterUnits="userSpaceOnUse">
      <feOffset dy="3" input="SourceAlpha"/>
      <feGaussianBlur stdDeviation="3" result="blur-15"/>
      <feFlood flood-opacity="0.161"/>
      <feComposite operator="in" in2="blur-15"/>
      <feComposite in="SourceGraphic"/>
    </filter>
    <filter id="Trazado_128" x="134.894" y="86.523" width="40.638" height="43.771" filterUnits="userSpaceOnUse">
      <feOffset dy="3" input="SourceAlpha"/>
      <feGaussianBlur stdDeviation="3" result="blur-16"/>
      <feFlood flood-opacity="0.161"/>
      <feComposite operator="in" in2="blur-16"/>
      <feComposite in="SourceGraphic"/>
    </filter>
    <filter id="Trazado_129" x="163.22" y="86.704" width="41.862" height="43.375" filterUnits="userSpaceOnUse">
      <feOffset dy="3" input="SourceAlpha"/>
      <feGaussianBlur stdDeviation="3" result="blur-17"/>
      <feFlood flood-opacity="0.161"/>
      <feComposite operator="in" in2="blur-17"/>
      <feComposite in="SourceGraphic"/>
    </filter>
    <filter id="Trazado_130" x="192.123" y="86.704" width="36.643" height="43.375" filterUnits="userSpaceOnUse">
      <feOffset dy="3" input="SourceAlpha"/>
      <feGaussianBlur stdDeviation="3" result="blur-18"/>
      <feFlood flood-opacity="0.161"/>
      <feComposite operator="in" in2="blur-18"/>
      <feComposite in="SourceGraphic"/>
    </filter>
    <filter id="Trazado_131" x="216.225" y="86.704" width="38.407" height="43.375" filterUnits="userSpaceOnUse">
      <feOffset dy="3" input="SourceAlpha"/>
      <feGaussianBlur stdDeviation="3" result="blur-19"/>
      <feFlood flood-opacity="0.161"/>
      <feComposite operator="in" in2="blur-19"/>
      <feComposite in="SourceGraphic"/>
    </filter>
    <filter id="Trazado_132" x="246.648" y="86.704" width="32.904" height="49.854" filterUnits="userSpaceOnUse">
      <feOffset dy="3" input="SourceAlpha"/>
      <feGaussianBlur stdDeviation="3" result="blur-20"/>
      <feFlood flood-opacity="0.161"/>
      <feComposite operator="in" in2="blur-20"/>
      <feComposite in="SourceGraphic"/>
    </filter>
    <filter id="Rect치ngulo_27" x="268.207" y="123.04" width="35.996" height="21.635" filterUnits="userSpaceOnUse">
      <feOffset dy="3" input="SourceAlpha"/>
      <feGaussianBlur stdDeviation="3" result="blur-21"/>
      <feFlood flood-opacity="0.161"/>
      <feComposite operator="in" in2="blur-21"/>
      <feComposite in="SourceGraphic"/>
    </filter>
    <filter id="Trazado_133" x="94.372" y="7.196" width="310.514" height="310.514" filterUnits="userSpaceOnUse">
      <feOffset dy="3" input="SourceAlpha"/>
      <feGaussianBlur stdDeviation="3" result="blur-22"/>
      <feFlood flood-opacity="0.161"/>
      <feComposite operator="in" in2="blur-22"/>
      <feComposite in="SourceGraphic"/>
    </filter>
    <filter id="Desarrollador_frontend" x="94" y="309" width="323" height="70" filterUnits="userSpaceOnUse">
      <feOffset dy="3" input="SourceAlpha"/>
      <feGaussianBlur stdDeviation="3" result="blur-23"/>
      <feFlood flood-opacity="0.161"/>
      <feComposite operator="in" in2="blur-23"/>
      <feComposite in="SourceGraphic"/>
    </filter>
  </defs>
  <g id="logo_banner_monocolor" transform="translate(-177 -143)">
    <g id="Grupo_96" data-name="Grupo 96" transform="translate(-290 -74.643)">
      <g id="Grupo_95" data-name="Grupo 95" transform="translate(476 223.643)">
        <g id="Grupo_94" data-name="Grupo 94">
          <g id="Grupo_93" data-name="Grupo 93">
            <g id="Grupo_90" data-name="Grupo 90">
              <g transform="matrix(1, 0, 0, 1, -9, -6)" filter="url(#Trazado_113)">
                <path id="Trazado_113-2" data-name="Trazado 113" d="M476.99,249.875a3.611,3.611,0,0,1,0-4.967,3.363,3.363,0,0,1,2.5-1.007,3.312,3.312,0,0,1,2.463,1.007,3.606,3.606,0,0,1,0,4.967,3.305,3.305,0,0,1-2.463,1.008A3.357,3.357,0,0,1,476.99,249.875Z" transform="translate(-467 -218.97)" fill="#fff"/>
              </g>
              <g transform="matrix(1, 0, 0, 1, -9, -6)" filter="url(#Trazado_114)">
                <path id="Trazado_114-2" data-name="Trazado 114" d="M493.1,249.035a12.293,12.293,0,0,1-4.049-1.746,3.123,3.123,0,0,1-.88-.972,2.714,2.714,0,0,1-.269-1.3,2.866,2.866,0,0,1,.647-1.872,1.915,1.915,0,0,1,1.512-.792,2.839,2.839,0,0,1,.9.144,5.628,5.628,0,0,1,1.079.54,11.785,11.785,0,0,0,2.935,1.188,13.746,13.746,0,0,0,3.293.359,6.568,6.568,0,0,0,3.219-.63,2.012,2.012,0,0,0,1.1-1.853,1.691,1.691,0,0,0-1.024-1.421,14.54,14.54,0,0,0-3.905-1.17,22.732,22.732,0,0,1-5.579-1.8,6.593,6.593,0,0,1-2.825-2.466,6.827,6.827,0,0,1-.811-3.437,6.921,6.921,0,0,1,1.367-4.175,9.13,9.13,0,0,1,3.762-2.932,13.129,13.129,0,0,1,5.379-1.062,17.34,17.34,0,0,1,4.68.576,11.762,11.762,0,0,1,3.744,1.8,2.941,2.941,0,0,1,.918.99,2.756,2.756,0,0,1,.27,1.277,2.911,2.911,0,0,1-.631,1.872,1.858,1.858,0,0,1-1.493.792,2.833,2.833,0,0,1-.864-.125,5.815,5.815,0,0,1-1.116-.558q-.179-.108-1.026-.558a8.253,8.253,0,0,0-1.979-.72,10.606,10.606,0,0,0-2.465-.27,5.481,5.481,0,0,0-2.951.7,2.114,2.114,0,0,0-1.116,1.853,1.592,1.592,0,0,0,.4,1.117,3.983,3.983,0,0,0,1.477.845,21.594,21.594,0,0,0,3.2.847,21.426,21.426,0,0,1,5.435,1.817,6.938,6.938,0,0,1,2.806,2.466,6.4,6.4,0,0,1,.83,3.312,6.923,6.923,0,0,1-1.332,4.192,8.524,8.524,0,0,1-3.726,2.807,14.457,14.457,0,0,1-5.56.991A21.583,21.583,0,0,1,493.1,249.035Z" transform="translate(-467.78 -217.64)" fill="#fff"/>
              </g>
              <g transform="matrix(1, 0, 0, 1, -9, -6)" filter="url(#Trazado_115)">
                <path id="Trazado_115-2" data-name="Trazado 115" d="M520.971,248.063a10.914,10.914,0,0,1-4.41-4.534,16.125,16.125,0,0,1,0-13.786,10.811,10.811,0,0,1,4.41-4.516,15.177,15.177,0,0,1,13.5,0,10.692,10.692,0,0,1,4.389,4.516,14.717,14.717,0,0,1,1.531,6.893,14.57,14.57,0,0,1-1.549,6.893,10.918,10.918,0,0,1-4.407,4.534,14.935,14.935,0,0,1-13.462,0Zm11.247-5.506a9.336,9.336,0,0,0,1.62-5.921,9.188,9.188,0,0,0-1.637-5.9,6.028,6.028,0,0,0-8.981-.019q-1.619,2-1.62,5.921a9.321,9.321,0,0,0,1.62,5.939,6.012,6.012,0,0,0,9-.018Z" transform="translate(-469.56 -217.64)" fill="#fff"/>
              </g>
              <g transform="matrix(1, 0, 0, 1, -9, -6)" filter="url(#Trazado_116)">
                <path id="Trazado_116-2" data-name="Trazado 116" d="M563.82,223.758a3.021,3.021,0,0,1,2.145.918,2.853,2.853,0,0,1,.952,2.105,3.027,3.027,0,0,1-.791,1.98l-7.561,8.745v8.782a3.137,3.137,0,0,1-.917,2.429,3.339,3.339,0,0,1-2.357.847,3.454,3.454,0,0,1-2.411-.847,3.1,3.1,0,0,1-.937-2.429v-8.782l-7.486-8.745a2.993,2.993,0,0,1-.826-2.016,2.807,2.807,0,0,1,.935-2.089,2.985,2.985,0,0,1,2.122-.9,2.832,2.832,0,0,1,2.2,1.079l6.369,7.559,6.372-7.559A2.821,2.821,0,0,1,563.82,223.758Z" transform="translate(-471.43 -217.65)" fill="#fff"/>
              </g>
            </g>
            <g id="Grupo_91" data-name="Grupo 91" transform="translate(0 43.19)">
              <g transform="matrix(1, 0, 0, 1, -9, -49.19)" filter="url(#Trazado_117)">
                <path id="Trazado_117-2" data-name="Trazado 117" d="M476,293.121a2.549,2.549,0,0,1,.611-1.872,2.891,2.891,0,0,1,1.944-.683l1.223-.072a2.113,2.113,0,0,0,1.638-.7,2.736,2.736,0,0,0,.559-1.818v-14.72a3.147,3.147,0,0,1,.9-2.358,3.76,3.76,0,0,1,4.84,0,3.12,3.12,0,0,1,.918,2.358v14.613a7.825,7.825,0,0,1-1.89,5.6,8.2,8.2,0,0,1-5.632,2.249l-1.153.072Q476,295.963,476,293.121Z" transform="translate(-467 -220.68)" fill="#fff"/>
              </g>
              <g transform="matrix(1, 0, 0, 1, -9, -49.19)" filter="url(#Trazado_118)">
                <path id="Trazado_118-2" data-name="Trazado 118" d="M498.311,293.084q-2.864-2.806-2.862-8.206V273.253a3.242,3.242,0,1,1,6.478,0v11.878a6.43,6.43,0,0,0,1.223,4.211,4.953,4.953,0,0,0,7.054,0,6.43,6.43,0,0,0,1.225-4.211V273.253a3.034,3.034,0,0,1,3.239-3.24,3.25,3.25,0,0,1,2.375.882,3.151,3.151,0,0,1,.9,2.358v11.625q0,5.363-2.9,8.188t-8.367,2.826Q501.169,295.892,498.311,293.084Z" transform="translate(-468.27 -220.68)" fill="#fff"/>
              </g>
              <g transform="matrix(1, 0, 0, 1, -9, -49.19)" filter="url(#Trazado_119)">
                <path id="Trazado_119-2" data-name="Trazado 119" d="M549.747,292.83a2.577,2.577,0,0,1-.952,2.016,3.237,3.237,0,0,1-2.179.827,2.772,2.772,0,0,1-1.511-.432,2.9,2.9,0,0,1-1.079-1.3l-1.62-3.635H530.742l-1.655,3.635a2.813,2.813,0,0,1-2.626,1.727,3.366,3.366,0,0,1-2.214-.827,2.536,2.536,0,0,1-.99-2.016,3.1,3.1,0,0,1,.323-1.332l9.5-19.508a3.348,3.348,0,0,1,1.385-1.494,4.191,4.191,0,0,1,4.049,0,3.319,3.319,0,0,1,1.4,1.494l9.5,19.508A3.128,3.128,0,0,1,549.747,292.83Zm-16.773-7.487h7.2l-3.6-8.026Z" transform="translate(-470.09 -220.68)" fill="#fff"/>
              </g>
              <g transform="matrix(1, 0, 0, 1, -9, -49.19)" filter="url(#Trazado_120)">
                <path id="Trazado_120-2" data-name="Trazado 120" d="M577.482,270.913a3.2,3.2,0,0,1,.88,2.34v19.256a3.285,3.285,0,0,1-.863,2.375,2.961,2.961,0,0,1-2.233.9,2.9,2.9,0,0,1-2.447-1.08l-10.94-13.641v11.446a3.368,3.368,0,0,1-.83,2.375,2.883,2.883,0,0,1-2.232.9,2.959,2.959,0,0,1-2.232-.9,3.289,3.289,0,0,1-.863-2.375V273.253a3.243,3.243,0,0,1,.863-2.34,2.962,2.962,0,0,1,2.232-.9,2.911,2.911,0,0,1,2.411,1.08l10.942,13.6V273.253a3.262,3.262,0,0,1,.847-2.358,2.926,2.926,0,0,1,2.215-.882A3.024,3.024,0,0,1,577.482,270.913Z" transform="translate(-472.22 -220.68)" fill="#fff"/>
              </g>
              <g transform="matrix(1, 0, 0, 1, -9, -49.19)" filter="url(#Trazado_121)">
                <path id="Trazado_121-2" data-name="Trazado 121" d="M582.877,293.121a2.549,2.549,0,0,1,.611-1.872,2.892,2.892,0,0,1,1.944-.683l1.223-.072a2.113,2.113,0,0,0,1.638-.7,2.746,2.746,0,0,0,.557-1.818v-14.72a3.154,3.154,0,0,1,.9-2.358,3.344,3.344,0,0,1,2.448-.882,3.311,3.311,0,0,1,2.393.882,3.12,3.12,0,0,1,.918,2.358v14.613a7.818,7.818,0,0,1-1.892,5.6,8.194,8.194,0,0,1-5.63,2.249l-1.153.072Q582.875,295.963,582.877,293.121Z" transform="translate(-474 -220.68)" fill="#fff"/>
              </g>
              <g transform="matrix(1, 0, 0, 1, -9, -49.19)" filter="url(#Trazado_122)">
                <path id="Trazado_122-2" data-name="Trazado 122" d="M607.742,294.28a10.917,10.917,0,0,1-4.409-4.534,16.116,16.116,0,0,1,0-13.786,10.819,10.819,0,0,1,4.409-4.517,15.176,15.176,0,0,1,13.5,0,10.7,10.7,0,0,1,4.39,4.517,14.718,14.718,0,0,1,1.531,6.893,14.57,14.57,0,0,1-1.548,6.893,10.925,10.925,0,0,1-4.407,4.534,14.937,14.937,0,0,1-13.462,0Zm11.248-5.506a9.336,9.336,0,0,0,1.62-5.921,9.182,9.182,0,0,0-1.638-5.9,6.027,6.027,0,0,0-8.98-.019q-1.619,2-1.62,5.921a9.321,9.321,0,0,0,1.62,5.939,6.011,6.011,0,0,0,9-.018Z" transform="translate(-475.24 -220.67)" fill="#fff"/>
              </g>
            </g>
            <g id="Grupo_92" data-name="Grupo 92" transform="translate(0 78.677)">
              <g transform="matrix(1, 0, 0, 1, -9, -84.68)" filter="url(#Trazado_123)">
                <path id="Trazado_123-2" data-name="Trazado 123" d="M498.44,317.112a3.183,3.183,0,0,1,.882,2.358v19.256a3.243,3.243,0,0,1-.882,2.375,3.562,3.562,0,0,1-4.714.018,3.231,3.231,0,0,1-.882-2.393v-7.2H482.48v7.2a3.25,3.25,0,0,1-.882,2.375,3.565,3.565,0,0,1-4.716.018,3.231,3.231,0,0,1-.882-2.393V319.47a3.243,3.243,0,1,1,6.48,0v6.8h10.365v-6.8a3.336,3.336,0,0,1,5.6-2.358Z" transform="translate(-467 -223.71)" fill="#fff"/>
              </g>
              <g transform="matrix(1, 0, 0, 1, -9, -84.68)" filter="url(#Trazado_124)">
                <path id="Trazado_124-2" data-name="Trazado 124" d="M507.834,341.006a3.072,3.072,0,0,1-.791-2.268V319.483a2.762,2.762,0,0,1,3.058-3.06h12.453a3.63,3.63,0,0,1,2.341.648,2.282,2.282,0,0,1,.791,1.872q0,2.591-3.132,2.592h-9.068v4.822h8.35q3.131,0,3.132,2.555a2.28,2.28,0,0,1-.792,1.872,3.623,3.623,0,0,1-2.339.649h-8.35v5.255h9.068q3.132,0,3.132,2.591a2.282,2.282,0,0,1-.791,1.872,3.635,3.635,0,0,1-2.341.648H510.1A3.065,3.065,0,0,1,507.834,341.006Z" transform="translate(-469.03 -223.72)" fill="#fff"/>
              </g>
              <g transform="matrix(1, 0, 0, 1, -9, -84.68)" filter="url(#Trazado_125)">
                <path id="Trazado_125-2" data-name="Trazado 125" d="M553.182,339.422a2.388,2.388,0,0,1-.954,1.925,3.533,3.533,0,0,1-3.833.379,3.584,3.584,0,0,1-1.3-1.189l-4.678-6.838a3.734,3.734,0,0,0-1.062-1.062,2.465,2.465,0,0,0-1.314-.342H537.7v6.443a3.27,3.27,0,0,1-.863,2.393,3.17,3.17,0,0,1-2.376.882,3.044,3.044,0,0,1-3.276-3.275V319.483a2.764,2.764,0,0,1,3.06-3.06h9.035q4.606,0,6.928,2a7.21,7.21,0,0,1,2.321,5.778,7.613,7.613,0,0,1-1.583,4.876,7.776,7.776,0,0,1-4.464,2.681,4.865,4.865,0,0,1,2.07.792,7.407,7.407,0,0,1,1.746,1.836l2.232,3.2A3.352,3.352,0,0,1,553.182,339.422Zm-7.793-12.778a2.559,2.559,0,0,0,.953-2.232,2.655,2.655,0,0,0-.953-2.286,5.436,5.436,0,0,0-3.149-.7h-4.607v5.9h4.607A5.543,5.543,0,0,0,545.389,326.645Z" transform="translate(-470.61 -223.72)" fill="#fff"/>
              </g>
              <g transform="matrix(1, 0, 0, 1, -9, -84.68)" filter="url(#Trazado_126)">
                <path id="Trazado_126-2" data-name="Trazado 126" d="M581.331,317.13a3.206,3.206,0,0,1,.882,2.34v19.256a3.282,3.282,0,0,1-.864,2.375,2.956,2.956,0,0,1-2.232.9,2.891,2.891,0,0,1-2.447-1.08L565.73,327.28v11.446a3.38,3.38,0,0,1-.828,2.375,2.887,2.887,0,0,1-2.233.9,2.957,2.957,0,0,1-2.232-.9,3.289,3.289,0,0,1-.862-2.375V319.47a3.244,3.244,0,0,1,.862-2.34,2.96,2.96,0,0,1,2.232-.9,2.915,2.915,0,0,1,2.412,1.08l10.941,13.6V319.47a3.269,3.269,0,0,1,.846-2.358,2.928,2.928,0,0,1,2.214-.882A3.021,3.021,0,0,1,581.331,317.13Z" transform="translate(-472.47 -223.71)" fill="#fff"/>
              </g>
              <g transform="matrix(1, 0, 0, 1, -9, -84.68)" filter="url(#Trazado_127)">
                <path id="Trazado_127-2" data-name="Trazado 127" d="M614.372,338.5a2.579,2.579,0,0,1-.954,2.016,3.233,3.233,0,0,1-2.177.827,2.771,2.771,0,0,1-1.511-.432,2.918,2.918,0,0,1-1.081-1.3l-1.619-3.635H595.367l-1.655,3.635a2.81,2.81,0,0,1-2.627,1.727,3.359,3.359,0,0,1-2.213-.827,2.538,2.538,0,0,1-.992-2.016,3.129,3.129,0,0,1,.323-1.332l9.5-19.508a3.343,3.343,0,0,1,1.385-1.494,4.191,4.191,0,0,1,4.049,0,3.33,3.33,0,0,1,1.4,1.494l9.5,19.508A3.1,3.1,0,0,1,614.372,338.5ZM597.6,331.013h7.2l-3.6-8.026Zm3.491-17.131a1.487,1.487,0,0,1-1.044-.4,1.227,1.227,0,0,1-.433-.935,1.561,1.561,0,0,1,.541-1.08l2.916-2.735a2.8,2.8,0,0,1,1.942-.9,2.156,2.156,0,0,1,1.6.684,2.208,2.208,0,0,1,.666,1.584,2.34,2.34,0,0,1-1.618,2.123l-3.852,1.512A1.756,1.756,0,0,1,601.09,313.881Z" transform="translate(-474.33 -223.16)" fill="#fff"/>
              </g>
              <g transform="matrix(1, 0, 0, 1, -9, -84.68)" filter="url(#Trazado_128)">
                <path id="Trazado_128-2" data-name="Trazado 128" d="M642.106,317.13a3.2,3.2,0,0,1,.88,2.34v19.256a3.281,3.281,0,0,1-.862,2.375,2.954,2.954,0,0,1-2.231.9,2.894,2.894,0,0,1-2.449-1.08L626.5,327.28v11.446a3.366,3.366,0,0,1-.828,2.375,2.884,2.884,0,0,1-2.232.9,2.956,2.956,0,0,1-2.232-.9,3.282,3.282,0,0,1-.864-2.375V319.47a3.237,3.237,0,0,1,.864-2.34,2.96,2.96,0,0,1,2.232-.9,2.916,2.916,0,0,1,2.411,1.08l10.942,13.6V319.47a3.257,3.257,0,0,1,.847-2.358,2.924,2.924,0,0,1,2.213-.882A3.019,3.019,0,0,1,642.106,317.13Z" transform="translate(-476.45 -223.71)" fill="#fff"/>
              </g>
              <g transform="matrix(1, 0, 0, 1, -9, -84.68)" filter="url(#Trazado_129)">
                <path id="Trazado_129-2" data-name="Trazado 129" d="M651.451,341.006a3.066,3.066,0,0,1-.792-2.268V319.483a2.764,2.764,0,0,1,3.06-3.06h7.27a15.962,15.962,0,0,1,7.251,1.53,10.83,10.83,0,0,1,4.662,4.373,13.432,13.432,0,0,1,1.619,6.766,13.769,13.769,0,0,1-1.6,6.821,10.563,10.563,0,0,1-4.643,4.373,16.208,16.208,0,0,1-7.287,1.512h-7.27A3.065,3.065,0,0,1,651.451,341.006Zm14.631-6.354q1.853-1.815,1.852-5.56t-1.852-5.543q-1.856-1.8-5.561-1.8h-3.24v14.721h3.24Q664.229,336.471,666.082,334.652Z" transform="translate(-478.44 -223.72)" fill="#fff"/>
              </g>
              <g transform="matrix(1, 0, 0, 1, -9, -84.68)" filter="url(#Trazado_130)">
                <path id="Trazado_130-2" data-name="Trazado 130" d="M682.378,341.006a3.073,3.073,0,0,1-.791-2.268V319.483a2.762,2.762,0,0,1,3.058-3.06H697.1a3.63,3.63,0,0,1,2.341.648,2.282,2.282,0,0,1,.791,1.872q0,2.591-3.132,2.592h-9.068v4.822h8.349q3.133,0,3.133,2.555a2.28,2.28,0,0,1-.792,1.872,3.623,3.623,0,0,1-2.34.649h-8.349v5.255H697.1q3.131,0,3.132,2.591a2.282,2.282,0,0,1-.791,1.872,3.636,3.636,0,0,1-2.341.648H684.645A3.065,3.065,0,0,1,682.378,341.006Z" transform="translate(-480.46 -223.72)" fill="#fff"/>
              </g>
              <g transform="matrix(1, 0, 0, 1, -9, -84.68)" filter="url(#Trazado_131)">
                <path id="Trazado_131-2" data-name="Trazado 131" d="M727.012,337.226a2.333,2.333,0,0,1,.773,1.944,2.46,2.46,0,0,1-.756,2,3.681,3.681,0,0,1-2.376.63h-14.4a2.809,2.809,0,0,1-2.105-.792,2.716,2.716,0,0,1-.773-1.98,3.966,3.966,0,0,1,.827-2.339l11.084-15.081h-8.71a3.761,3.761,0,0,1-2.393-.629,2.342,2.342,0,0,1-.774-1.927,2.43,2.43,0,0,1,.774-2,3.766,3.766,0,0,1,2.393-.63H724.4a2.8,2.8,0,0,1,2.068.774,2.657,2.657,0,0,1,.776,1.962,4.029,4.029,0,0,1-.828,2.376l-11.086,15.08h9.322A3.777,3.777,0,0,1,727.012,337.226Z" transform="translate(-482.15 -223.72)" fill="#fff"/>
              </g>
              <g transform="matrix(1, 0, 0, 1, -9, -84.68)" filter="url(#Trazado_132)">
                <path id="Trazado_132-2" data-name="Trazado 132" d="M754.134,344.137a2.151,2.151,0,0,1,.7,1.763,2.206,2.206,0,0,1-.7,1.782,2.46,2.46,0,0,1-1.638.594h-2.988a5.245,5.245,0,0,1-3.85-1.386,5.141,5.141,0,0,1-1.4-3.833V337.55a3.48,3.48,0,0,0-.449-2.016,2.088,2.088,0,0,0-1.565-.72,2.4,2.4,0,0,1-1.73-.72,2.565,2.565,0,0,1-.577-1.763,2.387,2.387,0,0,1,.577-1.674,2.566,2.566,0,0,1,1.73-.738,2.084,2.084,0,0,0,1.565-.72,3.478,3.478,0,0,0,.449-2.016v-5.544a5.138,5.138,0,0,1,1.4-3.832,5.245,5.245,0,0,1,3.85-1.386H752.5a2.459,2.459,0,0,1,1.638.594,2.2,2.2,0,0,1,.7,1.782,2.151,2.151,0,0,1-.7,1.763,2.506,2.506,0,0,1-1.638.576h-.539a1.523,1.523,0,0,0-1.081.341,1.633,1.633,0,0,0-.359,1.205v5.291a4.551,4.551,0,0,1-.954,2.879,3.906,3.906,0,0,1-2.177,1.512,3.916,3.916,0,0,1,2.177,1.512,4.553,4.553,0,0,1,.954,2.879v5.255a1.63,1.63,0,0,0,.359,1.206,1.519,1.519,0,0,0,1.081.342h.539A2.506,2.506,0,0,1,754.134,344.137Z" transform="translate(-484.29 -223.72)" fill="#fff"/>
              </g>
            </g>
          </g>
        </g>
        <g transform="matrix(1, 0, 0, 1, -9, -6)" filter="url(#Rect치ngulo_27)">
          <rect id="Rect치ngulo_27-2" data-name="Rect치ngulo 27" width="17.996" height="3.635" transform="translate(277.21 129.04)" fill="#fff"/>
        </g>
      </g>
      <g transform="matrix(1, 0, 0, 1, 467, 217.64)" filter="url(#Trazado_133)">
        <path id="Trazado_133-2" data-name="Trazado 133" d="M582.938,523.857a5.957,5.957,0,0,1-5.952-5.951V366.269a5.951,5.951,0,0,1,11.9,0V511.954H857.6V243.244H592.213a5.951,5.951,0,0,1,0-11.9H863.549a5.958,5.958,0,0,1,5.951,5.951V517.906a5.958,5.958,0,0,1-5.951,5.951Z" transform="translate(-473.61 -218.15)" fill="#fff"/>
      </g>
    </g>
    <g transform="matrix(1, 0, 0, 1, 177, 143)" filter="url(#Desarrollador_frontend)">
      <text id="Desarrollador_frontend-2" data-name="Desarrollador frontend" transform="translate(103 315)" fill="#fff" font-size="28" font-family="Nunito-Bold, Nunito" font-weight="700"><tspan x="0" y="28">Desarrollador frontend</tspan></text>
    </g>
  </g>
</svg>
