<svg xmlns="http://www.w3.org/2000/svg" xmlns:xlink="http://www.w3.org/1999/xlink" width="353" height="50" viewBox="0 0 353 50">
  <defs>
    <style>
      .cls-1 {
        clip-path: url(#clip-projects_two_states);
      }

      .cls-2 {
        fill:  #3F3F3F;
        font-size: 20px;
        font-family: Nunito-Bold, Nunito;
        font-weight: 700;
      }

      .cls-3 {
        fill: url(#linear-gradient);
      }
    </style>
    <linearGradient id="linear-gradient" x1="0.5" x2="0.5" y2="1" gradientUnits="objectBoundingBox">
      <stop offset="0" stop-color="#264de4"/>
      <stop offset="0.159" stop-color="#2653e3"/>
      <stop offset="0.374" stop-color="#2664e3"/>
      <stop offset="0.621" stop-color="#2680e3"/>
      <stop offset="0.89" stop-color="#26a7e3"/>
      <stop offset="1" stop-color="#26bae3"/>
    </linearGradient>
    <clipPath id="clip-projects_two_states">
      <rect width="353" height="50"/>
    </clipPath>
  </defs>
  <g id="projects_two_states" class="cls-1">
    <g id="Grupo_247" data-name="Grupo 247" transform="translate(-583 62)">
      <text id="_.Proyectos__" data-name=".Proyectos { _" class="cls-2" transform="translate(898 -31)"><tspan x="-124.74" y="0">.Proyectos { _</tspan></text>
      <path id="Trazado_170" data-name="Trazado 170" class="cls-3" d="M278.408,171.8a2.622,2.622,0,0,1-2.619-2.619v-5.031a2.619,2.619,0,0,1,5.238,0v2.412h94.394V128.694H282.49a2.619,2.619,0,1,1,0-5.238H378.04a2.622,2.622,0,0,1,2.618,2.619v43.1a2.622,2.622,0,0,1-2.618,2.619Z" transform="translate(546.336 -185.456)"/>
    </g>
    <text id="Proyectos_" data-name="Proyectos " class="cls-2" transform="translate(143 32)"><tspan x="-96.6" y="0">Proyectos </tspan></text>
  </g>
</svg>
