<svg id="webpack" xmlns="http://www.w3.org/2000/svg" width="31.298" height="35.411" viewBox="0 0 31.298 35.411">
  <path id="Trazado_248" data-name="Trazado 248" d="M15.649,0,31.3,8.852V26.559L15.649,35.411,0,26.559V8.852Z" fill="#fff"/>
  <path id="Trazado_249" data-name="Trazado 249" d="M73.6,84.962,61.266,91.941V86.506l7.687-4.23,4.65,2.685Zm.845-.764V69.6l-4.513,2.608v9.381l4.513,2.6Zm-26.6.764,12.337,6.979V86.506l-7.691-4.23ZM47,84.2V69.6l4.513,2.608v9.381Zm.53-15.54L60.182,61.5v5.253l-8.108,4.46-.065.036Zm26.389,0L61.266,61.5v5.253l8.108,4.456.065.036,4.48-2.588Z" transform="translate(-45.099 -59.013)" fill="#8ed6fb"/>
  <path id="Trazado_250" data-name="Trazado 250" d="M192.986,232.274,185.4,228.1V219.84l7.586,4.379Zm1.084,0,7.586-4.169V219.84l-7.586,4.379ZM193.528,223.9Zm-7.614-5.018,7.614-4.185,7.614,4.185-7.614,4.4Z" transform="translate(-177.903 -206.018)" fill="#1c78c0"/>
</svg>
