<svg xmlns="http://www.w3.org/2000/svg" xmlns:xlink="http://www.w3.org/1999/xlink" width="353" height="50" viewBox="0 0 353 50">
  <defs>
    <linearGradient id="linear-gradient" x1="0.5" x2="0.5" y2="1" gradientUnits="objectBoundingBox">
      <stop offset="0" stop-color="#264de4"/>
      <stop offset="0.159" stop-color="#2653e3"/>
      <stop offset="0.374" stop-color="#2664e3"/>
      <stop offset="0.621" stop-color="#2680e3"/>
      <stop offset="0.89" stop-color="#26a7e3"/>
      <stop offset="1" stop-color="#26bae3"/>
    </linearGradient>
    <clipPath id="clip-about_two_states">
      <rect width="353" height="50"/>
    </clipPath>
  </defs>
  <g id="about_two_states" clip-path="url(#clip-about_two_states)">
    <path id="Trazado_356" data-name="Trazado 356" d="M-36.39.18a11.975,11.975,0,0,1-2.97-.35,6.815,6.815,0,0,1-2.25-.97,1.734,1.734,0,0,1-.49-.54,1.519,1.519,0,0,1-.15-.72,1.592,1.592,0,0,1,.36-1.04,1.063,1.063,0,0,1,.84-.44,1.571,1.571,0,0,1,.5.08,3.1,3.1,0,0,1,.6.3,6.541,6.541,0,0,0,1.63.66,7.653,7.653,0,0,0,1.83.2,3.665,3.665,0,0,0,1.79-.35,1.12,1.12,0,0,0,.61-1.03.938.938,0,0,0-.57-.79,8.054,8.054,0,0,0-2.17-.65,12.619,12.619,0,0,1-3.1-1A3.674,3.674,0,0,1-41.5-7.83a3.8,3.8,0,0,1-.45-1.91,3.839,3.839,0,0,1,.76-2.32,5.063,5.063,0,0,1,2.09-1.63,7.3,7.3,0,0,1,2.99-.59,9.637,9.637,0,0,1,2.6.32,6.529,6.529,0,0,1,2.08,1,1.625,1.625,0,0,1,.51.55,1.532,1.532,0,0,1,.15.71,1.62,1.62,0,0,1-.35,1.04,1.035,1.035,0,0,1-.83.44,1.576,1.576,0,0,1-.48-.07,3.269,3.269,0,0,1-.62-.31q-.1-.06-.57-.31a4.615,4.615,0,0,0-1.1-.4,5.909,5.909,0,0,0-1.37-.15,3.047,3.047,0,0,0-1.64.39,1.175,1.175,0,0,0-.62,1.03.882.882,0,0,0,.22.62,2.219,2.219,0,0,0,.82.47,11.975,11.975,0,0,0,1.78.47,11.933,11.933,0,0,1,3.02,1.01A3.858,3.858,0,0,1-30.95-6.1a3.556,3.556,0,0,1,.46,1.84,3.839,3.839,0,0,1-.74,2.33A4.734,4.734,0,0,1-33.3-.37,8.041,8.041,0,0,1-36.39.18Zm12.7-.02a6.168,6.168,0,0,1-2.85-.63,4.522,4.522,0,0,1-1.9-1.79,5.343,5.343,0,0,1-.67-2.72,5.288,5.288,0,0,1,.67-2.71,4.49,4.49,0,0,1,1.89-1.77,6.235,6.235,0,0,1,2.86-.62,6.235,6.235,0,0,1,2.86.62,4.49,4.49,0,0,1,1.89,1.77,5.288,5.288,0,0,1,.67,2.71,5.343,5.343,0,0,1-.67,2.72A4.536,4.536,0,0,1-20.83-.47,6.153,6.153,0,0,1-23.69.16Zm0-2.66q1.9,0,1.9-2.48t-1.9-2.48q-1.9,0-1.9,2.48T-23.69-2.5Zm13.56-7.58a4.136,4.136,0,0,1,2.26.62A4.155,4.155,0,0,1-6.34-7.69a6.122,6.122,0,0,1,.55,2.67,6.322,6.322,0,0,1-.55,2.7A4.3,4.3,0,0,1-7.88-.49a4.008,4.008,0,0,1-2.25.65,3.987,3.987,0,0,1-1.79-.4,2.874,2.874,0,0,1-1.23-1.1,1.5,1.5,0,0,1-.53,1.07,1.863,1.863,0,0,1-1.23.39,1.76,1.76,0,0,1-1.27-.45,1.571,1.571,0,0,1-.47-1.19V-12.6a1.478,1.478,0,0,1,.5-1.15,1.9,1.9,0,0,1,1.32-.45,1.844,1.844,0,0,1,1.26.42,1.414,1.414,0,0,1,.48,1.12v3.98A3.064,3.064,0,0,1-11.86-9.7,3.938,3.938,0,0,1-10.13-10.08Zm-1.1,7.58a1.686,1.686,0,0,0,1.42-.65,3.018,3.018,0,0,0,.5-1.87A2.815,2.815,0,0,0-9.8-6.8a1.691,1.691,0,0,0-1.41-.62,1.73,1.73,0,0,0-1.44.63,2.855,2.855,0,0,0-.5,1.81,2.936,2.936,0,0,0,.5,1.84A1.7,1.7,0,0,0-11.23-2.5ZM2.09-10.04a1.343,1.343,0,0,1,1.08.31,1.412,1.412,0,0,1,.4,1.09A1.563,1.563,0,0,1,3.2-7.48a2.252,2.252,0,0,1-1.33.46l-.6.06a2.128,2.128,0,0,0-1.43.63A2.088,2.088,0,0,0-.59-4.94v3.42A1.484,1.484,0,0,1-1.1-.29,1.962,1.962,0,0,1-2.37.12,1.962,1.962,0,0,1-3.64-.29a1.484,1.484,0,0,1-.51-1.23V-8.44a1.443,1.443,0,0,1,.51-1.18,1.872,1.872,0,0,1,1.23-.42,1.725,1.725,0,0,1,1.19.4A1.42,1.42,0,0,1-.77-8.52v.38A2.664,2.664,0,0,1,.28-9.5a3.027,3.027,0,0,1,1.53-.52Zm9.94,6.88a.919.919,0,0,1,.75.36,1.452,1.452,0,0,1,.29.94,1.323,1.323,0,0,1-.78,1.22,7.791,7.791,0,0,1-1.61.57A7.165,7.165,0,0,1,8.97.16,6.235,6.235,0,0,1,6.11-.46,4.409,4.409,0,0,1,4.23-2.24a5.407,5.407,0,0,1-.66-2.72A5.5,5.5,0,0,1,4.2-7.61,4.536,4.536,0,0,1,5.96-9.43a5.021,5.021,0,0,1,2.55-.65,4.756,4.756,0,0,1,2.42.6,4.087,4.087,0,0,1,1.61,1.7,5.535,5.535,0,0,1,.57,2.58,1.074,1.074,0,0,1-.21.71.752.752,0,0,1-.61.25H7.01a2.192,2.192,0,0,0,.62,1.38,2.1,2.1,0,0,0,1.42.42,3.626,3.626,0,0,0,.92-.11,9.018,9.018,0,0,0,.94-.31q.3-.12.59-.21A1.8,1.8,0,0,1,12.03-3.16ZM8.61-7.68a1.459,1.459,0,0,0-1.12.45,2.16,2.16,0,0,0-.5,1.31h3.14Q10.01-7.68,8.61-7.68Zm24.4-2.4a3.2,3.2,0,0,1,2.5.97,4.837,4.837,0,0,1,.88,3.27v4.32a1.484,1.484,0,0,1-.51,1.23,1.962,1.962,0,0,1-1.27.41,1.962,1.962,0,0,1-1.27-.41,1.484,1.484,0,0,1-.51-1.23v-4.4a1.718,1.718,0,0,0-.28-1.12,1.031,1.031,0,0,0-.82-.32,1.389,1.389,0,0,0-1.12.5,2.081,2.081,0,0,0-.42,1.38v3.96a1.5,1.5,0,0,1-.5,1.23,1.953,1.953,0,0,1-1.28.41,1.962,1.962,0,0,1-1.27-.41,1.484,1.484,0,0,1-.51-1.23v-4.4a1.718,1.718,0,0,0-.28-1.12,1.031,1.031,0,0,0-.82-.32,1.36,1.36,0,0,0-1.11.5,2.116,2.116,0,0,0-.41,1.38v3.96A1.484,1.484,0,0,1,23.5-.29a1.962,1.962,0,0,1-1.27.41,1.962,1.962,0,0,1-1.27-.41,1.484,1.484,0,0,1-.51-1.23V-8.44a1.414,1.414,0,0,1,.53-1.19,2.014,2.014,0,0,1,1.27-.41,1.833,1.833,0,0,1,1.17.37,1.333,1.333,0,0,1,.49,1.07,3.349,3.349,0,0,1,3-1.48,2.793,2.793,0,0,1,2.86,1.74,3.659,3.659,0,0,1,1.34-1.27A3.824,3.824,0,0,1,33.01-10.08ZM40.17.12A1.962,1.962,0,0,1,38.9-.29a1.484,1.484,0,0,1-.51-1.23V-8.4a1.484,1.484,0,0,1,.51-1.23,1.962,1.962,0,0,1,1.27-.41,1.962,1.962,0,0,1,1.27.41,1.484,1.484,0,0,1,.51,1.23v6.88a1.484,1.484,0,0,1-.51,1.23A1.962,1.962,0,0,1,40.17.12Zm0-11.56a2.077,2.077,0,0,1-1.43-.47,1.589,1.589,0,0,1-.53-1.25,1.558,1.558,0,0,1,.53-1.24,2.106,2.106,0,0,1,1.43-.46,2.115,2.115,0,0,1,1.42.46,1.545,1.545,0,0,1,.54,1.24,1.589,1.589,0,0,1-.53,1.25A2.077,2.077,0,0,1,40.17-11.44Z" transform="translate(94 32)" fill="#fff"/>
    <g id="sobre_mi" transform="translate(-419 63)">
      <path id="Trazado_357" data-name="Trazado 357" d="M-118.96.12a1.866,1.866,0,0,1-1.39-.56,1.893,1.893,0,0,1-.55-1.38,1.893,1.893,0,0,1,.55-1.38,1.866,1.866,0,0,1,1.39-.56,1.842,1.842,0,0,1,1.37.56,1.893,1.893,0,0,1,.55,1.38,1.893,1.893,0,0,1-.55,1.38A1.842,1.842,0,0,1-118.96.12Zm9.5.06a11.975,11.975,0,0,1-2.97-.35,6.815,6.815,0,0,1-2.25-.97,1.734,1.734,0,0,1-.49-.54,1.519,1.519,0,0,1-.15-.72,1.592,1.592,0,0,1,.36-1.04,1.063,1.063,0,0,1,.84-.44,1.571,1.571,0,0,1,.5.08,3.1,3.1,0,0,1,.6.3,6.541,6.541,0,0,0,1.63.66,7.653,7.653,0,0,0,1.83.2,3.665,3.665,0,0,0,1.79-.35,1.12,1.12,0,0,0,.61-1.03.938.938,0,0,0-.57-.79,8.054,8.054,0,0,0-2.17-.65,12.619,12.619,0,0,1-3.1-1,3.674,3.674,0,0,1-1.57-1.37,3.8,3.8,0,0,1-.45-1.91,3.839,3.839,0,0,1,.76-2.32,5.063,5.063,0,0,1,2.09-1.63,7.3,7.3,0,0,1,2.99-.59,9.637,9.637,0,0,1,2.6.32,6.529,6.529,0,0,1,2.08,1,1.625,1.625,0,0,1,.51.55,1.532,1.532,0,0,1,.15.71,1.62,1.62,0,0,1-.35,1.04,1.035,1.035,0,0,1-.83.44,1.576,1.576,0,0,1-.48-.07,3.269,3.269,0,0,1-.62-.31q-.1-.06-.57-.31a4.615,4.615,0,0,0-1.1-.4,5.909,5.909,0,0,0-1.37-.15,3.047,3.047,0,0,0-1.64.39,1.175,1.175,0,0,0-.62,1.03.882.882,0,0,0,.22.62,2.219,2.219,0,0,0,.82.47,11.976,11.976,0,0,0,1.78.47,11.933,11.933,0,0,1,3.02,1.01,3.858,3.858,0,0,1,1.56,1.37,3.556,3.556,0,0,1,.46,1.84,3.839,3.839,0,0,1-.74,2.33,4.734,4.734,0,0,1-2.07,1.56A8.041,8.041,0,0,1-109.46.18Zm12.7-.02a6.168,6.168,0,0,1-2.85-.63,4.522,4.522,0,0,1-1.9-1.79,5.343,5.343,0,0,1-.67-2.72,5.288,5.288,0,0,1,.67-2.71,4.49,4.49,0,0,1,1.89-1.77,6.235,6.235,0,0,1,2.86-.62,6.235,6.235,0,0,1,2.86.62,4.49,4.49,0,0,1,1.89,1.77,5.288,5.288,0,0,1,.67,2.71,5.343,5.343,0,0,1-.67,2.72A4.536,4.536,0,0,1-93.9-.47,6.153,6.153,0,0,1-96.76.16Zm0-2.66q1.9,0,1.9-2.48t-1.9-2.48q-1.9,0-1.9,2.48T-96.76-2.5Zm13.56-7.58a4.136,4.136,0,0,1,2.26.62,4.155,4.155,0,0,1,1.53,1.77,6.122,6.122,0,0,1,.55,2.67,6.322,6.322,0,0,1-.55,2.7A4.3,4.3,0,0,1-80.95-.49,4.008,4.008,0,0,1-83.2.16a3.987,3.987,0,0,1-1.79-.4,2.874,2.874,0,0,1-1.23-1.1,1.5,1.5,0,0,1-.53,1.07,1.863,1.863,0,0,1-1.23.39,1.76,1.76,0,0,1-1.27-.45,1.571,1.571,0,0,1-.47-1.19V-12.6a1.478,1.478,0,0,1,.5-1.15,1.9,1.9,0,0,1,1.32-.45,1.844,1.844,0,0,1,1.26.42,1.414,1.414,0,0,1,.48,1.12v3.98A3.064,3.064,0,0,1-84.93-9.7,3.938,3.938,0,0,1-83.2-10.08ZM-84.3-2.5a1.686,1.686,0,0,0,1.42-.65,3.018,3.018,0,0,0,.5-1.87,2.816,2.816,0,0,0-.49-1.78,1.691,1.691,0,0,0-1.41-.62,1.73,1.73,0,0,0-1.44.63,2.855,2.855,0,0,0-.5,1.81,2.936,2.936,0,0,0,.5,1.84A1.7,1.7,0,0,0-84.3-2.5Zm13.32-7.54a1.343,1.343,0,0,1,1.08.31,1.412,1.412,0,0,1,.4,1.09,1.563,1.563,0,0,1-.37,1.16,2.252,2.252,0,0,1-1.33.46l-.6.06a2.128,2.128,0,0,0-1.43.63,2.088,2.088,0,0,0-.43,1.39v3.42a1.484,1.484,0,0,1-.51,1.23,1.962,1.962,0,0,1-1.27.41,1.962,1.962,0,0,1-1.27-.41,1.484,1.484,0,0,1-.51-1.23V-8.44a1.443,1.443,0,0,1,.51-1.18,1.872,1.872,0,0,1,1.23-.42,1.725,1.725,0,0,1,1.19.4,1.42,1.42,0,0,1,.45,1.12v.38A2.664,2.664,0,0,1-72.79-9.5a3.027,3.027,0,0,1,1.53-.52Zm9.94,6.88a.919.919,0,0,1,.75.36,1.452,1.452,0,0,1,.29.94,1.323,1.323,0,0,1-.78,1.22,7.791,7.791,0,0,1-1.61.57A7.165,7.165,0,0,1-64.1.16a6.235,6.235,0,0,1-2.86-.62,4.409,4.409,0,0,1-1.88-1.78,5.407,5.407,0,0,1-.66-2.72,5.5,5.5,0,0,1,.63-2.65,4.536,4.536,0,0,1,1.76-1.82,5.021,5.021,0,0,1,2.55-.65,4.756,4.756,0,0,1,2.42.6,4.087,4.087,0,0,1,1.61,1.7,5.535,5.535,0,0,1,.57,2.58,1.074,1.074,0,0,1-.21.71.752.752,0,0,1-.61.25h-5.28a2.192,2.192,0,0,0,.62,1.38,2.1,2.1,0,0,0,1.42.42,3.626,3.626,0,0,0,.92-.11,9.018,9.018,0,0,0,.94-.31q.3-.12.59-.21A1.8,1.8,0,0,1-61.04-3.16Zm-3.42-4.52a1.459,1.459,0,0,0-1.12.45,2.16,2.16,0,0,0-.5,1.31h3.14Q-63.06-7.68-64.46-7.68Zm24.4-2.4a3.2,3.2,0,0,1,2.5.97,4.837,4.837,0,0,1,.88,3.27v4.32a1.484,1.484,0,0,1-.51,1.23,1.962,1.962,0,0,1-1.27.41,1.962,1.962,0,0,1-1.27-.41,1.484,1.484,0,0,1-.51-1.23v-4.4a1.718,1.718,0,0,0-.28-1.12,1.031,1.031,0,0,0-.82-.32,1.389,1.389,0,0,0-1.12.5,2.081,2.081,0,0,0-.42,1.38v3.96a1.5,1.5,0,0,1-.5,1.23,1.953,1.953,0,0,1-1.28.41,1.962,1.962,0,0,1-1.27-.41,1.484,1.484,0,0,1-.51-1.23v-4.4a1.718,1.718,0,0,0-.28-1.12,1.031,1.031,0,0,0-.82-.32,1.36,1.36,0,0,0-1.11.5,2.116,2.116,0,0,0-.41,1.38v3.96a1.484,1.484,0,0,1-.51,1.23,1.962,1.962,0,0,1-1.27.41,1.962,1.962,0,0,1-1.27-.41,1.484,1.484,0,0,1-.51-1.23V-8.44a1.414,1.414,0,0,1,.53-1.19,2.014,2.014,0,0,1,1.27-.41,1.833,1.833,0,0,1,1.17.37,1.333,1.333,0,0,1,.49,1.07,3.349,3.349,0,0,1,3-1.48A2.793,2.793,0,0,1-43.3-8.34a3.659,3.659,0,0,1,1.34-1.27A3.824,3.824,0,0,1-40.06-10.08ZM-32.9.12a1.962,1.962,0,0,1-1.27-.41,1.484,1.484,0,0,1-.51-1.23V-8.4a1.484,1.484,0,0,1,.51-1.23,1.962,1.962,0,0,1,1.27-.41,1.962,1.962,0,0,1,1.27.41,1.484,1.484,0,0,1,.51,1.23v6.88a1.484,1.484,0,0,1-.51,1.23A1.962,1.962,0,0,1-32.9.12Zm0-11.56a2.077,2.077,0,0,1-1.43-.47,1.589,1.589,0,0,1-.53-1.25,1.558,1.558,0,0,1,.53-1.24,2.106,2.106,0,0,1,1.43-.46,2.115,2.115,0,0,1,1.42.46,1.545,1.545,0,0,1,.54,1.24,1.589,1.589,0,0,1-.53,1.25A2.077,2.077,0,0,1-32.9-11.44ZM-17.02.98a1.392,1.392,0,0,1,.91.32,1.194,1.194,0,0,1,.39.98,1.224,1.224,0,0,1-.39.99,1.366,1.366,0,0,1-.91.33h-1.66a2.913,2.913,0,0,1-2.14-.77A2.857,2.857,0,0,1-21.6.7V-2.36a1.931,1.931,0,0,0-.25-1.12,1.159,1.159,0,0,0-.87-.4,1.336,1.336,0,0,1-.96-.4A1.422,1.422,0,0,1-24-5.26a1.325,1.325,0,0,1,.32-.93,1.428,1.428,0,0,1,.96-.41,1.159,1.159,0,0,0,.87-.4,1.931,1.931,0,0,0,.25-1.12V-11.2a2.857,2.857,0,0,1,.78-2.13,2.913,2.913,0,0,1,2.14-.77h1.66a1.366,1.366,0,0,1,.91.33,1.224,1.224,0,0,1,.39.99,1.194,1.194,0,0,1-.39.98,1.392,1.392,0,0,1-.91.32h-.3a.842.842,0,0,0-.6.19.9.9,0,0,0-.2.67v2.94a2.527,2.527,0,0,1-.53,1.6,2.173,2.173,0,0,1-1.21.84,2.173,2.173,0,0,1,1.21.84,2.527,2.527,0,0,1,.53,1.6V.12a.9.9,0,0,0,.2.67.842.842,0,0,0,.6.19Zm8.36,1.04a1.557,1.557,0,0,1-.98-.28A.892.892,0,0,1-10,1,.865.865,0,0,1-9.64.27,1.6,1.6,0,0,1-8.66,0h7.32A1.6,1.6,0,0,1-.36.27.865.865,0,0,1,0,1a.892.892,0,0,1-.36.74,1.557,1.557,0,0,1-.98.28Z" transform="translate(731 -31)" fill="#fff"/>
      <path id="Trazado_169" data-name="Trazado 169" d="M301.408,171.8a2.622,2.622,0,0,1-2.619-2.619v-5.031a2.619,2.619,0,0,1,5.238,0v2.412h71.394V128.694H305.49a2.619,2.619,0,1,1,0-5.238H378.04a2.622,2.622,0,0,1,2.618,2.619v43.1a2.622,2.622,0,0,1-2.618,2.619Z" transform="translate(376.336 -185.456)" fill="url(#linear-gradient)"/>
    </g>
  </g>
</svg>
