<svg xmlns="http://www.w3.org/2000/svg" xmlns:xlink="http://www.w3.org/1999/xlink" width="353" height="50" viewBox="0 0 353 50">
  <defs>
    <linearGradient id="linear-gradient" x1="0.5" x2="0.5" y2="1" gradientUnits="objectBoundingBox">
      <stop offset="0" stop-color="#264de4"/>
      <stop offset="0.159" stop-color="#2653e3"/>
      <stop offset="0.374" stop-color="#2664e3"/>
      <stop offset="0.621" stop-color="#2680e3"/>
      <stop offset="0.89" stop-color="#26a7e3"/>
      <stop offset="1" stop-color="#26bae3"/>
    </linearGradient>
    <clipPath id="clip-blog_two_states">
      <rect width="353" height="50"/>
    </clipPath>
  </defs>
  <g id="blog_two_states" clip-path="url(#clip-blog_two_states)">
    <path id="Trazado_358" data-name="Trazado 358" d="M-11.31-7.32a3.586,3.586,0,0,1,1.9,1.27,3.574,3.574,0,0,1,.66,2.19,3.446,3.446,0,0,1-.61,2.03A3.941,3.941,0,0,1-11.1-.48,6.741,6.741,0,0,1-13.75,0h-5.32a1.705,1.705,0,0,1-1.26-.44,1.705,1.705,0,0,1-.44-1.26V-12.4a1.705,1.705,0,0,1,.44-1.26,1.705,1.705,0,0,1,1.26-.44h5.12a5.719,5.719,0,0,1,3.53.99,3.173,3.173,0,0,1,1.31,2.67,3.252,3.252,0,0,1-.58,1.91A3.293,3.293,0,0,1-11.31-7.32Zm-5.88-1.24h2.62a2.8,2.8,0,0,0,1.52-.32,1.137,1.137,0,0,0,.48-1.02,1.232,1.232,0,0,0-.48-1.08,2.67,2.67,0,0,0-1.52-.34h-2.62Zm2.98,5.78a2.69,2.69,0,0,0,1.57-.35,1.34,1.34,0,0,0,.47-1.15,1.34,1.34,0,0,0-.47-1.15,2.69,2.69,0,0,0-1.57-.35h-2.98v3ZM-5.33.12A1.962,1.962,0,0,1-6.6-.29a1.484,1.484,0,0,1-.51-1.23V-12.54a1.513,1.513,0,0,1,.51-1.24,1.931,1.931,0,0,1,1.27-.42,1.931,1.931,0,0,1,1.27.42,1.513,1.513,0,0,1,.51,1.24V-1.52A1.484,1.484,0,0,1-4.06-.29,1.962,1.962,0,0,1-5.33.12Zm8.8.04A6.168,6.168,0,0,1,.62-.47a4.522,4.522,0,0,1-1.9-1.79,5.343,5.343,0,0,1-.67-2.72,5.288,5.288,0,0,1,.67-2.71A4.49,4.49,0,0,1,.61-9.46a6.235,6.235,0,0,1,2.86-.62,6.235,6.235,0,0,1,2.86.62A4.49,4.49,0,0,1,8.22-7.69a5.288,5.288,0,0,1,.67,2.71,5.343,5.343,0,0,1-.67,2.72A4.536,4.536,0,0,1,6.33-.47,6.153,6.153,0,0,1,3.47.16Zm0-2.66q1.9,0,1.9-2.48T3.47-7.46q-1.9,0-1.9,2.48T3.47-2.5Zm15.78-7.54a1.8,1.8,0,0,1,1.28.45,1.555,1.555,0,0,1,.48,1.19v7.2a4.6,4.6,0,0,1-1.47,3.7,6.457,6.457,0,0,1-4.31,1.26,10.389,10.389,0,0,1-2.08-.2,5.76,5.76,0,0,1-1.66-.58,1.592,1.592,0,0,1-.57-.52,1.283,1.283,0,0,1-.21-.72A1.452,1.452,0,0,1,11,.8a.919.919,0,0,1,.75-.36,5.211,5.211,0,0,1,1.3.3q.62.2,1.1.31a4.373,4.373,0,0,0,.98.11A2.633,2.633,0,0,0,16.92.65a2.057,2.057,0,0,0,.57-1.61v-.76A3.037,3.037,0,0,1,16.23-.67a4.091,4.091,0,0,1-1.78.39,4.345,4.345,0,0,1-2.28-.6,4.088,4.088,0,0,1-1.56-1.71,5.632,5.632,0,0,1-.56-2.57,5.7,5.7,0,0,1,.56-2.58,4.142,4.142,0,0,1,1.56-1.73,4.29,4.29,0,0,1,2.28-.61,4.05,4.05,0,0,1,1.8.4,3,3,0,0,1,1.26,1.1,1.432,1.432,0,0,1,.51-1.07A1.863,1.863,0,0,1,19.25-10.04Zm-3.72,7.1a1.86,1.86,0,0,0,1.46-.58,2.373,2.373,0,0,0,.52-1.64,2.452,2.452,0,0,0-.52-1.66,1.829,1.829,0,0,0-1.46-.6,1.819,1.819,0,0,0-1.44.59,2.444,2.444,0,0,0-.52,1.67,2.352,2.352,0,0,0,.53,1.63A1.826,1.826,0,0,0,15.53-2.94Z" transform="translate(94 32)" fill="#fff"/>
    <g id="Grupo_248" data-name="Grupo 248" transform="translate(-744 63)">
      <path id="Trazado_359" data-name="Trazado 359" d="M-76.92.12a1.866,1.866,0,0,1-1.39-.56,1.893,1.893,0,0,1-.55-1.38,1.893,1.893,0,0,1,.55-1.38,1.866,1.866,0,0,1,1.39-.56,1.842,1.842,0,0,1,1.37.56A1.893,1.893,0,0,1-75-1.82a1.893,1.893,0,0,1-.55,1.38A1.842,1.842,0,0,1-76.92.12Zm13.46-7.44a3.586,3.586,0,0,1,1.9,1.27,3.574,3.574,0,0,1,.66,2.19,3.446,3.446,0,0,1-.61,2.03A3.941,3.941,0,0,1-63.25-.48,6.741,6.741,0,0,1-65.9,0h-5.32a1.705,1.705,0,0,1-1.26-.44,1.705,1.705,0,0,1-.44-1.26V-12.4a1.705,1.705,0,0,1,.44-1.26,1.705,1.705,0,0,1,1.26-.44h5.12a5.719,5.719,0,0,1,3.53.99,3.173,3.173,0,0,1,1.31,2.67,3.252,3.252,0,0,1-.58,1.91A3.293,3.293,0,0,1-63.46-7.32Zm-5.88-1.24h2.62a2.8,2.8,0,0,0,1.52-.32,1.137,1.137,0,0,0,.48-1.02,1.232,1.232,0,0,0-.48-1.08,2.669,2.669,0,0,0-1.52-.34h-2.62Zm2.98,5.78a2.69,2.69,0,0,0,1.57-.35,1.34,1.34,0,0,0,.47-1.15,1.34,1.34,0,0,0-.47-1.15,2.69,2.69,0,0,0-1.57-.35h-2.98v3Zm8.88,2.9a1.962,1.962,0,0,1-1.27-.41,1.484,1.484,0,0,1-.51-1.23V-12.54a1.513,1.513,0,0,1,.51-1.24,1.932,1.932,0,0,1,1.27-.42,1.932,1.932,0,0,1,1.27.42,1.513,1.513,0,0,1,.51,1.24V-1.52a1.484,1.484,0,0,1-.51,1.23A1.962,1.962,0,0,1-57.48.12Zm8.8.04a6.168,6.168,0,0,1-2.85-.63,4.522,4.522,0,0,1-1.9-1.79,5.343,5.343,0,0,1-.67-2.72,5.288,5.288,0,0,1,.67-2.71,4.49,4.49,0,0,1,1.89-1.77,6.235,6.235,0,0,1,2.86-.62,6.235,6.235,0,0,1,2.86.62,4.49,4.49,0,0,1,1.89,1.77,5.288,5.288,0,0,1,.67,2.71,5.343,5.343,0,0,1-.67,2.72A4.536,4.536,0,0,1-45.82-.47,6.153,6.153,0,0,1-48.68.16Zm0-2.66q1.9,0,1.9-2.48t-1.9-2.48q-1.9,0-1.9,2.48T-48.68-2.5Zm15.78-7.54a1.8,1.8,0,0,1,1.28.45,1.555,1.555,0,0,1,.48,1.19v7.2a4.6,4.6,0,0,1-1.47,3.7,6.457,6.457,0,0,1-4.31,1.26A10.389,10.389,0,0,1-39,3.56a5.76,5.76,0,0,1-1.66-.58,1.592,1.592,0,0,1-.57-.52,1.283,1.283,0,0,1-.21-.72A1.452,1.452,0,0,1-41.15.8.919.919,0,0,1-40.4.44a5.211,5.211,0,0,1,1.3.3q.62.2,1.1.31a4.373,4.373,0,0,0,.98.11A2.633,2.633,0,0,0-35.23.65a2.057,2.057,0,0,0,.57-1.61v-.76A3.037,3.037,0,0,1-35.92-.67a4.091,4.091,0,0,1-1.78.39,4.345,4.345,0,0,1-2.28-.6,4.088,4.088,0,0,1-1.56-1.71,5.632,5.632,0,0,1-.56-2.57,5.7,5.7,0,0,1,.56-2.58,4.142,4.142,0,0,1,1.56-1.73,4.29,4.29,0,0,1,2.28-.61,4.05,4.05,0,0,1,1.8.4,3,3,0,0,1,1.26,1.1,1.432,1.432,0,0,1,.51-1.07A1.863,1.863,0,0,1-32.9-10.04Zm-3.72,7.1a1.86,1.86,0,0,0,1.46-.58,2.373,2.373,0,0,0,.52-1.64,2.452,2.452,0,0,0-.52-1.66,1.829,1.829,0,0,0-1.46-.6,1.819,1.819,0,0,0-1.44.59,2.444,2.444,0,0,0-.52,1.67,2.352,2.352,0,0,0,.53,1.63A1.826,1.826,0,0,0-36.62-2.94ZM-17.02.98a1.392,1.392,0,0,1,.91.32,1.194,1.194,0,0,1,.39.98,1.224,1.224,0,0,1-.39.99,1.366,1.366,0,0,1-.91.33h-1.66a2.913,2.913,0,0,1-2.14-.77A2.857,2.857,0,0,1-21.6.7V-2.36a1.931,1.931,0,0,0-.25-1.12,1.159,1.159,0,0,0-.87-.4,1.336,1.336,0,0,1-.96-.4A1.422,1.422,0,0,1-24-5.26a1.325,1.325,0,0,1,.32-.93,1.428,1.428,0,0,1,.96-.41,1.159,1.159,0,0,0,.87-.4,1.931,1.931,0,0,0,.25-1.12V-11.2a2.857,2.857,0,0,1,.78-2.13,2.913,2.913,0,0,1,2.14-.77h1.66a1.366,1.366,0,0,1,.91.33,1.224,1.224,0,0,1,.39.99,1.194,1.194,0,0,1-.39.98,1.392,1.392,0,0,1-.91.32h-.3a.842.842,0,0,0-.6.19.9.9,0,0,0-.2.67v2.94a2.527,2.527,0,0,1-.53,1.6,2.173,2.173,0,0,1-1.21.84,2.173,2.173,0,0,1,1.21.84,2.527,2.527,0,0,1,.53,1.6V.12a.9.9,0,0,0,.2.67.842.842,0,0,0,.6.19Zm8.36,1.04a1.557,1.557,0,0,1-.98-.28A.892.892,0,0,1-10,1,.865.865,0,0,1-9.64.27,1.6,1.6,0,0,1-8.66,0h7.32A1.6,1.6,0,0,1-.36.27.865.865,0,0,1,0,1a.892.892,0,0,1-.36.74,1.557,1.557,0,0,1-.98.28Z" transform="translate(1034 -31)" fill="#fff"/>
      <path id="Trazado_171" data-name="Trazado 171" d="M305.408,171.8a2.622,2.622,0,0,1-2.619-2.619v-5.031a2.619,2.619,0,0,1,5.238,0v2.412h67.394V128.694H309.49a2.619,2.619,0,1,1,0-5.238H378.04a2.622,2.622,0,0,1,2.618,2.619v43.1a2.622,2.622,0,0,1-2.618,2.619Z" transform="translate(682.336 -185.456)" fill="url(#linear-gradient)"/>
    </g>
  </g>
</svg>
