<svg xmlns="http://www.w3.org/2000/svg" xmlns:xlink="http://www.w3.org/1999/xlink" width="353" height="50" viewBox="0 0 353 50">
  <defs>
    <linearGradient id="linear-gradient" x1="0.5" x2="0.5" y2="1" gradientUnits="objectBoundingBox">
      <stop offset="0" stop-color="#264de4"/>
      <stop offset="0.159" stop-color="#2653e3"/>
      <stop offset="0.374" stop-color="#2664e3"/>
      <stop offset="0.621" stop-color="#2680e3"/>
      <stop offset="0.89" stop-color="#26a7e3"/>
      <stop offset="1" stop-color="#26bae3"/>
    </linearGradient>
    <clipPath id="clip-blog_two_states_dark">
      <rect width="353" height="50"/>
    </clipPath>
  </defs>
  <g id="blog_two_states_dark" clip-path="url(#clip-blog_two_states_dark)">
    <path id="Trazado_358" data-name="Trazado 358" d="M-10.97-7.28A3.411,3.411,0,0,1-9.08-6.04a3.58,3.58,0,0,1,.67,2.2A3.4,3.4,0,0,1-9.7-1.02,5.581,5.581,0,0,1-13.25,0h-5.16a1.252,1.252,0,0,1-.91-.32,1.2,1.2,0,0,1-.33-.9V-12.88a1.2,1.2,0,0,1,.33-.9,1.252,1.252,0,0,1,.91-.32h4.96a5.5,5.5,0,0,1,3.45.97,3.235,3.235,0,0,1,1.25,2.71,3.233,3.233,0,0,1-.59,1.94A3.374,3.374,0,0,1-10.97-7.28Zm-6.16-.88h3.26q2.66,0,2.66-1.98a1.708,1.708,0,0,0-.66-1.48,3.4,3.4,0,0,0-2-.48h-3.26ZM-13.53-2a3.324,3.324,0,0,0,2.04-.5,1.857,1.857,0,0,0,.64-1.56,1.9,1.9,0,0,0-.65-1.58,3.234,3.234,0,0,0-2.03-.52h-3.6V-2ZM-4.97.12a1.293,1.293,0,0,1-.89-.31,1.126,1.126,0,0,1-.35-.89V-13.02a1.1,1.1,0,0,1,.35-.88,1.319,1.319,0,0,1,.89-.3,1.358,1.358,0,0,1,.9.3,1.08,1.08,0,0,1,.36.88V-1.08a1.11,1.11,0,0,1-.36.89A1.33,1.33,0,0,1-4.97.12Zm8.3.04A5.381,5.381,0,0,1,.7-.46,4.29,4.29,0,0,1-1.05-2.24a5.643,5.643,0,0,1-.62-2.7,5.584,5.584,0,0,1,.62-2.69A4.3,4.3,0,0,1,.7-9.4a5.381,5.381,0,0,1,2.63-.62,5.381,5.381,0,0,1,2.63.62A4.242,4.242,0,0,1,7.7-7.63a5.659,5.659,0,0,1,.61,2.69,5.719,5.719,0,0,1-.61,2.7A4.228,4.228,0,0,1,5.96-.46,5.381,5.381,0,0,1,3.33.16ZM3.31-1.78a2.241,2.241,0,0,0,1.86-.8,3.717,3.717,0,0,0,.64-2.36,3.724,3.724,0,0,0-.64-2.35A2.207,2.207,0,0,0,3.33-8.1a2.235,2.235,0,0,0-1.85.81A3.682,3.682,0,0,0,.83-4.94a3.717,3.717,0,0,0,.64,2.36A2.219,2.219,0,0,0,3.31-1.78Zm15.34-8.2a1.26,1.26,0,0,1,.9.32,1.125,1.125,0,0,1,.34.86V-.9a4.5,4.5,0,0,1-1.28,3.48,5.4,5.4,0,0,1-3.78,1.18,7.35,7.35,0,0,1-3.64-.82,1.254,1.254,0,0,1-.74-1.06,1.082,1.082,0,0,1,.21-.7.673.673,0,0,1,.55-.26,1.391,1.391,0,0,1,.44.09q.26.09.54.21a11.465,11.465,0,0,0,1.29.46,4.86,4.86,0,0,0,1.31.16A2.29,2.29,0,0,0,17.41-.72V-2A3.054,3.054,0,0,1,16.13-.73a4,4,0,0,1-1.92.45,4.238,4.238,0,0,1-2.27-.61A4.192,4.192,0,0,1,10.39-2.6a5.524,5.524,0,0,1-.56-2.54,5.671,5.671,0,0,1,.55-2.55,4.089,4.089,0,0,1,1.55-1.72,4.29,4.29,0,0,1,2.28-.61,4,4,0,0,1,1.92.45A3.054,3.054,0,0,1,17.41-8.3v-.52a1.1,1.1,0,0,1,.34-.84A1.26,1.26,0,0,1,18.65-9.98ZM14.87-2.22A2.333,2.333,0,0,0,16.74-3a3.177,3.177,0,0,0,.67-2.14,3.21,3.21,0,0,0-.67-2.16,2.333,2.333,0,0,0-1.87-.78,2.34,2.34,0,0,0-1.86.78,3.178,3.178,0,0,0-.68,2.16A3.146,3.146,0,0,0,13.01-3,2.34,2.34,0,0,0,14.87-2.22Z" transform="translate(94 32)" fill="#3f3f3f"/>
    <g id="Grupo_248" data-name="Grupo 248" transform="translate(-744 63)">
      <path id="Trazado_359" data-name="Trazado 359" d="M-73.42.12a1.419,1.419,0,0,1-1.06-.43,1.471,1.471,0,0,1-.42-1.07,1.471,1.471,0,0,1,.42-1.07,1.419,1.419,0,0,1,1.06-.43,1.419,1.419,0,0,1,1.06.43,1.471,1.471,0,0,1,.42,1.07,1.471,1.471,0,0,1-.42,1.07A1.419,1.419,0,0,1-73.42.12Zm12.68-7.4a3.411,3.411,0,0,1,1.89,1.24,3.58,3.58,0,0,1,.67,2.2,3.4,3.4,0,0,1-1.29,2.82A5.581,5.581,0,0,1-63.02,0h-5.16a1.252,1.252,0,0,1-.91-.32,1.2,1.2,0,0,1-.33-.9V-12.88a1.2,1.2,0,0,1,.33-.9,1.252,1.252,0,0,1,.91-.32h4.96a5.5,5.5,0,0,1,3.45.97,3.235,3.235,0,0,1,1.25,2.71,3.233,3.233,0,0,1-.59,1.94A3.374,3.374,0,0,1-60.74-7.28Zm-6.16-.88h3.26q2.66,0,2.66-1.98a1.708,1.708,0,0,0-.66-1.48,3.4,3.4,0,0,0-2-.48H-66.9ZM-63.3-2a3.324,3.324,0,0,0,2.04-.5,1.857,1.857,0,0,0,.64-1.56,1.9,1.9,0,0,0-.65-1.58,3.234,3.234,0,0,0-2.03-.52h-3.6V-2ZM-54.74.12a1.293,1.293,0,0,1-.89-.31,1.126,1.126,0,0,1-.35-.89V-13.02a1.1,1.1,0,0,1,.35-.88,1.319,1.319,0,0,1,.89-.3,1.358,1.358,0,0,1,.9.3,1.08,1.08,0,0,1,.36.88V-1.08a1.11,1.11,0,0,1-.36.89A1.33,1.33,0,0,1-54.74.12Zm8.3.04a5.381,5.381,0,0,1-2.63-.62,4.29,4.29,0,0,1-1.75-1.78,5.643,5.643,0,0,1-.62-2.7,5.584,5.584,0,0,1,.62-2.69A4.3,4.3,0,0,1-49.07-9.4a5.381,5.381,0,0,1,2.63-.62,5.381,5.381,0,0,1,2.63.62,4.242,4.242,0,0,1,1.74,1.77,5.659,5.659,0,0,1,.61,2.69,5.719,5.719,0,0,1-.61,2.7A4.228,4.228,0,0,1-43.81-.46,5.381,5.381,0,0,1-46.44.16Zm-.02-1.94a2.241,2.241,0,0,0,1.86-.8,3.717,3.717,0,0,0,.64-2.36,3.724,3.724,0,0,0-.64-2.35,2.207,2.207,0,0,0-1.84-.81,2.235,2.235,0,0,0-1.85.81,3.682,3.682,0,0,0-.65,2.35,3.717,3.717,0,0,0,.64,2.36A2.219,2.219,0,0,0-46.46-1.78Zm15.34-8.2a1.26,1.26,0,0,1,.9.32,1.125,1.125,0,0,1,.34.86V-.9a4.5,4.5,0,0,1-1.28,3.48,5.4,5.4,0,0,1-3.78,1.18,7.35,7.35,0,0,1-3.64-.82,1.254,1.254,0,0,1-.74-1.06,1.082,1.082,0,0,1,.21-.7.673.673,0,0,1,.55-.26,1.391,1.391,0,0,1,.44.09q.26.09.54.21a11.465,11.465,0,0,0,1.29.46,4.86,4.86,0,0,0,1.31.16A2.29,2.29,0,0,0-32.36-.72V-2A3.054,3.054,0,0,1-33.64-.73a4,4,0,0,1-1.92.45,4.239,4.239,0,0,1-2.27-.61A4.192,4.192,0,0,1-39.38-2.6a5.524,5.524,0,0,1-.56-2.54,5.671,5.671,0,0,1,.55-2.55,4.089,4.089,0,0,1,1.55-1.72,4.29,4.29,0,0,1,2.28-.61,4,4,0,0,1,1.92.45A3.054,3.054,0,0,1-32.36-8.3v-.52a1.1,1.1,0,0,1,.34-.84A1.26,1.26,0,0,1-31.12-9.98ZM-34.9-2.22A2.333,2.333,0,0,0-33.03-3a3.177,3.177,0,0,0,.67-2.14,3.21,3.21,0,0,0-.67-2.16,2.333,2.333,0,0,0-1.87-.78,2.34,2.34,0,0,0-1.86.78,3.178,3.178,0,0,0-.68,2.16A3.146,3.146,0,0,0-36.76-3,2.34,2.34,0,0,0-34.9-2.22Zm18.5,3.94a1.038,1.038,0,0,1,.7.24.871.871,0,0,1,.28.7.871.871,0,0,1-.28.7,1.038,1.038,0,0,1-.7.24h-1.5a2.4,2.4,0,0,1-1.79-.64,2.428,2.428,0,0,1-.63-1.78V-2.7a1.9,1.9,0,0,0-.28-1.16,1.35,1.35,0,0,0-1-.42.981.981,0,0,1-.71-.29.976.976,0,0,1-.25-.69.94.94,0,0,1,.25-.68,1,1,0,0,1,.71-.28,1.35,1.35,0,0,0,1-.42,1.9,1.9,0,0,0,.28-1.16v-3.88a2.428,2.428,0,0,1,.63-1.78,2.4,2.4,0,0,1,1.79-.64h1.5a1.038,1.038,0,0,1,.7.24.871.871,0,0,1,.28.7.871.871,0,0,1-.28.7,1.038,1.038,0,0,1-.7.24h-.64a.856.856,0,0,0-.63.21.917.917,0,0,0-.21.67V-7.5a2.4,2.4,0,0,1-.47,1.51,1.909,1.909,0,0,1-1.11.75,1.922,1.922,0,0,1,1.11.74A2.358,2.358,0,0,1-17.88-3V.84a.917.917,0,0,0,.21.67.856.856,0,0,0,.63.21Zm7.36-.22a1.082,1.082,0,0,1-.7-.21A.673.673,0,0,1-10,.74.645.645,0,0,1-9.73.21,1.091,1.091,0,0,1-9.04,0H-.96A1.091,1.091,0,0,1-.27.21.645.645,0,0,1,0,.74a.673.673,0,0,1-.26.55,1.082,1.082,0,0,1-.7.21Z" transform="translate(1034 -31)" fill="#3f3f3f"/>
      <path id="Trazado_171" data-name="Trazado 171" d="M305.408,171.8a2.622,2.622,0,0,1-2.619-2.619v-5.031a2.619,2.619,0,0,1,5.238,0v2.412h67.394V128.694H309.49a2.619,2.619,0,1,1,0-5.238H378.04a2.622,2.622,0,0,1,2.618,2.619v43.1a2.622,2.622,0,0,1-2.618,2.619Z" transform="translate(682.336 -185.456)" fill="url(#linear-gradient)"/>
    </g>
  </g>
</svg>
