<svg xmlns="http://www.w3.org/2000/svg" xmlns:xlink="http://www.w3.org/1999/xlink" width="353" height="50" viewBox="0 0 353 50">
  <defs>
    <linearGradient id="linear-gradient" x1="0.5" x2="0.5" y2="1" gradientUnits="objectBoundingBox">
      <stop offset="0" stop-color="#264de4"/>
      <stop offset="0.159" stop-color="#2653e3"/>
      <stop offset="0.374" stop-color="#2664e3"/>
      <stop offset="0.621" stop-color="#2680e3"/>
      <stop offset="0.89" stop-color="#26a7e3"/>
      <stop offset="1" stop-color="#26bae3"/>
    </linearGradient>
    <clipPath id="clip-brand">
      <rect width="353" height="50"/>
    </clipPath>
  </defs>
  <g id="brand" clip-path="url(#clip-brand)">
    <path id="Trazado_361" data-name="Trazado 361" d="M-18.23-7.32a3.586,3.586,0,0,1,1.9,1.27,3.574,3.574,0,0,1,.66,2.19,3.446,3.446,0,0,1-.61,2.03A3.941,3.941,0,0,1-18.02-.48,6.741,6.741,0,0,1-20.67,0h-5.32a1.705,1.705,0,0,1-1.26-.44,1.705,1.705,0,0,1-.44-1.26V-12.4a1.705,1.705,0,0,1,.44-1.26,1.705,1.705,0,0,1,1.26-.44h5.12a5.719,5.719,0,0,1,3.53.99,3.173,3.173,0,0,1,1.31,2.67,3.252,3.252,0,0,1-.58,1.91A3.293,3.293,0,0,1-18.23-7.32Zm-5.88-1.24h2.62a2.8,2.8,0,0,0,1.52-.32,1.137,1.137,0,0,0,.48-1.02,1.232,1.232,0,0,0-.48-1.08,2.67,2.67,0,0,0-1.52-.34h-2.62Zm2.98,5.78a2.69,2.69,0,0,0,1.57-.35,1.34,1.34,0,0,0,.47-1.15,1.34,1.34,0,0,0-.47-1.15,2.69,2.69,0,0,0-1.57-.35h-2.98v3Zm13.34-7.26a1.343,1.343,0,0,1,1.08.31,1.412,1.412,0,0,1,.4,1.09,1.563,1.563,0,0,1-.37,1.16,2.252,2.252,0,0,1-1.33.46l-.6.06a2.128,2.128,0,0,0-1.43.63,2.088,2.088,0,0,0-.43,1.39v3.42a1.484,1.484,0,0,1-.51,1.23,1.962,1.962,0,0,1-1.27.41,1.962,1.962,0,0,1-1.27-.41,1.484,1.484,0,0,1-.51-1.23V-8.44a1.443,1.443,0,0,1,.51-1.18,1.872,1.872,0,0,1,1.23-.42,1.725,1.725,0,0,1,1.19.4,1.42,1.42,0,0,1,.45,1.12v.38A2.664,2.664,0,0,1-9.6-9.5a3.027,3.027,0,0,1,1.53-.52Zm6.74-.04A4.593,4.593,0,0,1,2.32-8.99,4.5,4.5,0,0,1,3.41-5.68V-1.5A1.568,1.568,0,0,1,2.96-.31,1.736,1.736,0,0,1,1.71.12,1.666,1.666,0,0,1,.56-.28,1.5,1.5,0,0,1,.07-1.36,2.214,2.214,0,0,1-.87-.24a2.991,2.991,0,0,1-1.58.4A4.057,4.057,0,0,1-4.29-.25,3.2,3.2,0,0,1-5.58-1.39a2.982,2.982,0,0,1-.47-1.65A2.479,2.479,0,0,1-5.5-4.73a3.23,3.23,0,0,1,1.75-.91A14.864,14.864,0,0,1-.51-5.92H.03v-.24A1.36,1.36,0,0,0-.29-7.17a1.526,1.526,0,0,0-1.08-.31,7.946,7.946,0,0,0-2.4.56,2.453,2.453,0,0,1-.78.16.989.989,0,0,1-.8-.36,1.42,1.42,0,0,1-.3-.94,1.31,1.31,0,0,1,.18-.72,1.564,1.564,0,0,1,.58-.5,6.976,6.976,0,0,1,1.76-.58A10.219,10.219,0,0,1-1.05-10.08Zm-.56,7.86A1.517,1.517,0,0,0-.43-2.73,1.881,1.881,0,0,0,.03-4.04v-.24H-.29a5.092,5.092,0,0,0-1.82.23.79.79,0,0,0-.54.77,1.049,1.049,0,0,0,.29.76A1,1,0,0,0-1.61-2.22Zm13.64-7.86a3.189,3.189,0,0,1,2.62,1.05,4.966,4.966,0,0,1,.86,3.19v4.32a1.547,1.547,0,0,1-.48,1.2,1.85,1.85,0,0,1-1.3.44,1.85,1.85,0,0,1-1.3-.44,1.547,1.547,0,0,1-.48-1.2V-5.68a2.1,2.1,0,0,0-.31-1.28,1.1,1.1,0,0,0-.93-.4,1.643,1.643,0,0,0-1.27.51,1.942,1.942,0,0,0-.47,1.37v3.96a1.547,1.547,0,0,1-.48,1.2,1.85,1.85,0,0,1-1.3.44,1.85,1.85,0,0,1-1.3-.44,1.547,1.547,0,0,1-.48-1.2V-8.44a1.478,1.478,0,0,1,.5-1.15,1.869,1.869,0,0,1,1.3-.45,1.7,1.7,0,0,1,1.21.42,1.435,1.435,0,0,1,.45,1.1,3.411,3.411,0,0,1,1.34-1.16A4.1,4.1,0,0,1,12.03-10.08ZM26.11-14.2a1.907,1.907,0,0,1,1.31.45,1.465,1.465,0,0,1,.51,1.15V-1.52a1.547,1.547,0,0,1-.48,1.2,1.82,1.82,0,0,1-1.28.44,1.832,1.832,0,0,1-1.21-.39,1.5,1.5,0,0,1-.53-1.07A2.874,2.874,0,0,1,23.2-.24a3.987,3.987,0,0,1-1.79.4,4.008,4.008,0,0,1-2.25-.65,4.369,4.369,0,0,1-1.55-1.83,6.226,6.226,0,0,1-.56-2.7,6.122,6.122,0,0,1,.55-2.67,4.131,4.131,0,0,1,1.54-1.77,4.187,4.187,0,0,1,2.27-.62,3.938,3.938,0,0,1,1.73.38,3.064,3.064,0,0,1,1.23,1.02v-3.98a1.428,1.428,0,0,1,.47-1.12A1.836,1.836,0,0,1,26.11-14.2ZM22.49-2.5a1.719,1.719,0,0,0,1.44-.64,2.936,2.936,0,0,0,.5-1.84,2.855,2.855,0,0,0-.5-1.81,1.73,1.73,0,0,0-1.44-.63,1.72,1.72,0,0,0-1.42.62,2.775,2.775,0,0,0-.5,1.78,2.982,2.982,0,0,0,.51,1.86A1.683,1.683,0,0,0,22.49-2.5Z" transform="translate(94 32)" fill="#fff"/>
    <g id="Grupo_248" data-name="Grupo 248" transform="translate(-744 63)">
      <path id="Trazado_362" data-name="Trazado 362" d="M-90.76.12a1.866,1.866,0,0,1-1.39-.56,1.893,1.893,0,0,1-.55-1.38,1.893,1.893,0,0,1,.55-1.38,1.866,1.866,0,0,1,1.39-.56,1.842,1.842,0,0,1,1.37.56,1.893,1.893,0,0,1,.55,1.38,1.893,1.893,0,0,1-.55,1.38A1.842,1.842,0,0,1-90.76.12ZM-77.3-7.32a3.586,3.586,0,0,1,1.9,1.27,3.574,3.574,0,0,1,.66,2.19,3.446,3.446,0,0,1-.61,2.03A3.941,3.941,0,0,1-77.09-.48,6.741,6.741,0,0,1-79.74,0h-5.32a1.705,1.705,0,0,1-1.26-.44,1.705,1.705,0,0,1-.44-1.26V-12.4a1.705,1.705,0,0,1,.44-1.26,1.705,1.705,0,0,1,1.26-.44h5.12a5.719,5.719,0,0,1,3.53.99,3.173,3.173,0,0,1,1.31,2.67,3.252,3.252,0,0,1-.58,1.91A3.293,3.293,0,0,1-77.3-7.32Zm-5.88-1.24h2.62a2.8,2.8,0,0,0,1.52-.32,1.137,1.137,0,0,0,.48-1.02,1.232,1.232,0,0,0-.48-1.08,2.669,2.669,0,0,0-1.52-.34h-2.62Zm2.98,5.78a2.69,2.69,0,0,0,1.57-.35,1.34,1.34,0,0,0,.47-1.15,1.34,1.34,0,0,0-.47-1.15,2.69,2.69,0,0,0-1.57-.35h-2.98v3Zm13.34-7.26a1.343,1.343,0,0,1,1.08.31,1.412,1.412,0,0,1,.4,1.09,1.563,1.563,0,0,1-.37,1.16,2.252,2.252,0,0,1-1.33.46l-.6.06a2.128,2.128,0,0,0-1.43.63,2.088,2.088,0,0,0-.43,1.39v3.42a1.484,1.484,0,0,1-.51,1.23,1.962,1.962,0,0,1-1.27.41,1.962,1.962,0,0,1-1.27-.41,1.484,1.484,0,0,1-.51-1.23V-8.44a1.443,1.443,0,0,1,.51-1.18,1.872,1.872,0,0,1,1.23-.42,1.725,1.725,0,0,1,1.19.4,1.42,1.42,0,0,1,.45,1.12v.38A2.664,2.664,0,0,1-68.67-9.5a3.027,3.027,0,0,1,1.53-.52Zm6.74-.04a4.593,4.593,0,0,1,3.37,1.09,4.5,4.5,0,0,1,1.09,3.31V-1.5a1.568,1.568,0,0,1-.45,1.19,1.736,1.736,0,0,1-1.25.43,1.666,1.666,0,0,1-1.15-.4A1.5,1.5,0,0,1-59-1.36a2.214,2.214,0,0,1-.94,1.12,2.991,2.991,0,0,1-1.58.4,4.057,4.057,0,0,1-1.84-.41,3.2,3.2,0,0,1-1.29-1.14,2.982,2.982,0,0,1-.47-1.65,2.479,2.479,0,0,1,.55-1.69,3.23,3.23,0,0,1,1.75-.91,14.864,14.864,0,0,1,3.24-.28h.54v-.24a1.36,1.36,0,0,0-.32-1.01,1.526,1.526,0,0,0-1.08-.31,7.946,7.946,0,0,0-2.4.56,2.454,2.454,0,0,1-.78.16.989.989,0,0,1-.8-.36,1.42,1.42,0,0,1-.3-.94,1.31,1.31,0,0,1,.18-.72,1.564,1.564,0,0,1,.58-.5,6.976,6.976,0,0,1,1.76-.58A10.219,10.219,0,0,1-60.12-10.08Zm-.56,7.86a1.517,1.517,0,0,0,1.18-.51,1.881,1.881,0,0,0,.46-1.31v-.24h-.32a5.092,5.092,0,0,0-1.82.23.79.79,0,0,0-.54.77,1.049,1.049,0,0,0,.29.76A1,1,0,0,0-60.68-2.22Zm13.64-7.86a3.189,3.189,0,0,1,2.62,1.05,4.966,4.966,0,0,1,.86,3.19v4.32a1.547,1.547,0,0,1-.48,1.2,1.85,1.85,0,0,1-1.3.44,1.85,1.85,0,0,1-1.3-.44,1.547,1.547,0,0,1-.48-1.2V-5.68a2.1,2.1,0,0,0-.31-1.28,1.1,1.1,0,0,0-.93-.4,1.643,1.643,0,0,0-1.27.51,1.942,1.942,0,0,0-.47,1.37v3.96a1.547,1.547,0,0,1-.48,1.2,1.85,1.85,0,0,1-1.3.44,1.85,1.85,0,0,1-1.3-.44,1.547,1.547,0,0,1-.48-1.2V-8.44a1.478,1.478,0,0,1,.5-1.15,1.869,1.869,0,0,1,1.3-.45,1.7,1.7,0,0,1,1.21.42,1.435,1.435,0,0,1,.45,1.1,3.411,3.411,0,0,1,1.34-1.16A4.1,4.1,0,0,1-47.04-10.08Zm14.08-4.12a1.907,1.907,0,0,1,1.31.45,1.465,1.465,0,0,1,.51,1.15V-1.52a1.547,1.547,0,0,1-.48,1.2A1.82,1.82,0,0,1-32.9.12a1.832,1.832,0,0,1-1.21-.39,1.5,1.5,0,0,1-.53-1.07,2.874,2.874,0,0,1-1.23,1.1,3.987,3.987,0,0,1-1.79.4,4.008,4.008,0,0,1-2.25-.65,4.369,4.369,0,0,1-1.55-1.83,6.226,6.226,0,0,1-.56-2.7,6.122,6.122,0,0,1,.55-2.67,4.131,4.131,0,0,1,1.54-1.77,4.187,4.187,0,0,1,2.27-.62,3.938,3.938,0,0,1,1.73.38A3.064,3.064,0,0,1-34.7-8.68v-3.98a1.428,1.428,0,0,1,.47-1.12A1.836,1.836,0,0,1-32.96-14.2ZM-36.58-2.5a1.719,1.719,0,0,0,1.44-.64,2.936,2.936,0,0,0,.5-1.84,2.855,2.855,0,0,0-.5-1.81,1.73,1.73,0,0,0-1.44-.63A1.72,1.72,0,0,0-38-6.8a2.775,2.775,0,0,0-.5,1.78,2.982,2.982,0,0,0,.51,1.86A1.683,1.683,0,0,0-36.58-2.5ZM-17.02.98a1.392,1.392,0,0,1,.91.32,1.194,1.194,0,0,1,.39.98,1.224,1.224,0,0,1-.39.99,1.366,1.366,0,0,1-.91.33h-1.66a2.913,2.913,0,0,1-2.14-.77A2.857,2.857,0,0,1-21.6.7V-2.36a1.931,1.931,0,0,0-.25-1.12,1.159,1.159,0,0,0-.87-.4,1.336,1.336,0,0,1-.96-.4A1.422,1.422,0,0,1-24-5.26a1.325,1.325,0,0,1,.32-.93,1.428,1.428,0,0,1,.96-.41,1.159,1.159,0,0,0,.87-.4,1.931,1.931,0,0,0,.25-1.12V-11.2a2.857,2.857,0,0,1,.78-2.13,2.913,2.913,0,0,1,2.14-.77h1.66a1.366,1.366,0,0,1,.91.33,1.224,1.224,0,0,1,.39.99,1.194,1.194,0,0,1-.39.98,1.392,1.392,0,0,1-.91.32h-.3a.842.842,0,0,0-.6.19.9.9,0,0,0-.2.67v2.94a2.527,2.527,0,0,1-.53,1.6,2.173,2.173,0,0,1-1.21.84,2.173,2.173,0,0,1,1.21.84,2.527,2.527,0,0,1,.53,1.6V.12a.9.9,0,0,0,.2.67.842.842,0,0,0,.6.19Zm8.36,1.04a1.557,1.557,0,0,1-.98-.28A.892.892,0,0,1-10,1,.865.865,0,0,1-9.64.27,1.6,1.6,0,0,1-8.66,0h7.32A1.6,1.6,0,0,1-.36.27.865.865,0,0,1,0,1a.892.892,0,0,1-.36.74,1.557,1.557,0,0,1-.98.28Z" transform="translate(1034 -31)" fill="#fff"/>
      <path id="Trazado_171" data-name="Trazado 171" d="M305.408,171.8a2.622,2.622,0,0,1-2.619-2.619v-5.031a2.619,2.619,0,0,1,5.238,0v2.412h67.394V128.694H309.49a2.619,2.619,0,1,1,0-5.238H378.04a2.622,2.622,0,0,1,2.618,2.619v43.1a2.622,2.622,0,0,1-2.618,2.619Z" transform="translate(682.336 -185.456)" fill="url(#linear-gradient)"/>
    </g>
  </g>
</svg>
