<svg xmlns="http://www.w3.org/2000/svg" xmlns:xlink="http://www.w3.org/1999/xlink" width="353" height="50" viewBox="0 0 353 50">
  <defs>
    <linearGradient id="linear-gradient" x1="0.5" x2="0.5" y2="1" gradientUnits="objectBoundingBox">
      <stop offset="0" stop-color="#e44d26"/>
      <stop offset="0.636" stop-color="#164cff"/>
      <stop offset="0.782" stop-color="#cac939"/>
      <stop offset="1" stop-color="#feed00"/>
    </linearGradient>
    <clipPath id="clip-Brand_dark">
      <rect width="353" height="50"/>
    </clipPath>
  </defs>
  <g id="Brand_dark" clip-path="url(#clip-Brand_dark)">
    <text id="Brand" transform="translate(94 32)" fill="#3f3f3f" font-size="20" font-family="Nunito-Bold, Nunito" font-weight="700"><tspan x="-27.9" y="0">Brand</tspan></text>
    <g id="Grupo_248" data-name="Grupo 248" transform="translate(-744 63)">
      <text id="_.Brand__" data-name=".Brand { _" transform="translate(1034 -31)" fill="#3f3f3f" font-size="20" font-family="Nunito-Bold, Nunito" font-weight="700"><tspan x="-89.36" y="0">.Brand { _</tspan></text>
      <path id="Trazado_171" data-name="Trazado 171" d="M305.408,171.8a2.622,2.622,0,0,1-2.619-2.619v-5.031a2.619,2.619,0,0,1,5.238,0v2.412h67.394V128.694H309.49a2.619,2.619,0,1,1,0-5.238H378.04a2.622,2.622,0,0,1,2.618,2.619v43.1a2.622,2.622,0,0,1-2.618,2.619Z" transform="translate(682.336 -185.456)" fill="url(#linear-gradient)"/>
    </g>
  </g>
</svg>
