<svg xmlns="http://www.w3.org/2000/svg" xmlns:xlink="http://www.w3.org/1999/xlink" width="353" height="50" viewBox="0 0 353 50">
  <defs>
    <linearGradient id="linear-gradient" x1="0.5" x2="0.5" y2="1" gradientUnits="objectBoundingBox">
      <stop offset="0" stop-color="#264de4"/>
      <stop offset="0.159" stop-color="#2653e3"/>
      <stop offset="0.374" stop-color="#2664e3"/>
      <stop offset="0.621" stop-color="#2680e3"/>
      <stop offset="0.89" stop-color="#26a7e3"/>
      <stop offset="1" stop-color="#26bae3"/>
    </linearGradient>
    <clipPath id="clip-Brand_dark">
      <rect width="353" height="50"/>
    </clipPath>
  </defs>
  <g id="Brand_dark" clip-path="url(#clip-Brand_dark)">
    <path id="Trazado_363" data-name="Trazado 363" d="M-17.7-7.28a3.411,3.411,0,0,1,1.89,1.24,3.58,3.58,0,0,1,.67,2.2,3.4,3.4,0,0,1-1.29,2.82A5.581,5.581,0,0,1-19.98,0h-5.16a1.252,1.252,0,0,1-.91-.32,1.2,1.2,0,0,1-.33-.9V-12.88a1.2,1.2,0,0,1,.33-.9,1.252,1.252,0,0,1,.91-.32h4.96a5.5,5.5,0,0,1,3.45.97,3.235,3.235,0,0,1,1.25,2.71,3.233,3.233,0,0,1-.59,1.94A3.374,3.374,0,0,1-17.7-7.28Zm-6.16-.88h3.26q2.66,0,2.66-1.98a1.708,1.708,0,0,0-.66-1.48,3.4,3.4,0,0,0-2-.48h-3.26ZM-20.26-2a3.324,3.324,0,0,0,2.04-.5,1.857,1.857,0,0,0,.64-1.56,1.9,1.9,0,0,0-.65-1.58,3.234,3.234,0,0,0-2.03-.52h-3.6V-2ZM-7.48-9.98a1.077,1.077,0,0,1,.82.22.976.976,0,0,1,.3.78,1.09,1.09,0,0,1-.26.8,1.6,1.6,0,0,1-.94.34l-.6.06a2.43,2.43,0,0,0-1.73.8,2.616,2.616,0,0,0-.55,1.7v4.2a1.11,1.11,0,0,1-.36.89,1.33,1.33,0,0,1-.9.31,1.293,1.293,0,0,1-.89-.31,1.126,1.126,0,0,1-.35-.89V-8.82a1.071,1.071,0,0,1,.35-.86,1.29,1.29,0,0,1,.87-.3,1.2,1.2,0,0,1,.84.29,1.063,1.063,0,0,1,.32.83v.8A2.96,2.96,0,0,1-9.43-9.42a3.464,3.464,0,0,1,1.67-.54Zm6.4-.04A4.074,4.074,0,0,1,1.95-9.01a4.228,4.228,0,0,1,.99,3.07v4.88a1.128,1.128,0,0,1-.32.85A1.211,1.211,0,0,1,1.74.1,1.17,1.17,0,0,1,.89-.22a1.117,1.117,0,0,1-.33-.84V-1.5A2.609,2.609,0,0,1-.51-.28,3.209,3.209,0,0,1-2.2.16a3.924,3.924,0,0,1-1.78-.4,3.166,3.166,0,0,1-1.26-1.1A2.779,2.779,0,0,1-5.7-2.9a2.471,2.471,0,0,1,.55-1.7,3.305,3.305,0,0,1,1.79-.9A16.3,16.3,0,0,1,.06-5.78h.5v-.46A2.048,2.048,0,0,0,.14-7.67a1.787,1.787,0,0,0-1.36-.45,4.315,4.315,0,0,0-1.18.17q-.6.17-1.42.49a2,2,0,0,1-.76.26.752.752,0,0,1-.59-.26.988.988,0,0,1-.23-.68,1.024,1.024,0,0,1,.17-.59,1.614,1.614,0,0,1,.57-.47,6.519,6.519,0,0,1,1.67-.6A8.617,8.617,0,0,1-1.08-10.02ZM-1.7-1.64A2.136,2.136,0,0,0-.07-2.31,2.423,2.423,0,0,0,.56-4.04v-.42H.2a13.8,13.8,0,0,0-2.08.12,2.019,2.019,0,0,0-1.06.42,1.07,1.07,0,0,0-.32.82,1.357,1.357,0,0,0,.45,1.05A1.587,1.587,0,0,0-1.7-1.64Zm12.86-8.38a3.269,3.269,0,0,1,2.62,1A4.535,4.535,0,0,1,14.64-6v4.92a1.169,1.169,0,0,1-.33.88,1.252,1.252,0,0,1-.91.32,1.288,1.288,0,0,1-.92-.32,1.15,1.15,0,0,1-.34-.88V-5.86a2.593,2.593,0,0,0-.43-1.66,1.652,1.652,0,0,0-1.35-.52,2.282,2.282,0,0,0-1.73.68,2.524,2.524,0,0,0-.65,1.82v4.46a1.15,1.15,0,0,1-.34.88,1.288,1.288,0,0,1-.92.32A1.252,1.252,0,0,1,5.81-.2a1.169,1.169,0,0,1-.33-.88V-8.82a1.1,1.1,0,0,1,.34-.84,1.288,1.288,0,0,1,.92-.32,1.191,1.191,0,0,1,.85.31,1.06,1.06,0,0,1,.33.81v.54A3.382,3.382,0,0,1,9.26-9.58,4.033,4.033,0,0,1,11.16-10.02ZM25.34-14.2a1.333,1.333,0,0,1,.92.32,1.07,1.07,0,0,1,.36.84V-1.08a1.125,1.125,0,0,1-.34.86,1.26,1.26,0,0,1-.9.32,1.26,1.26,0,0,1-.9-.32,1.125,1.125,0,0,1-.34-.86v-.5A3.131,3.131,0,0,1,22.87-.3a3.833,3.833,0,0,1-1.89.46,4.053,4.053,0,0,1-2.25-.64,4.244,4.244,0,0,1-1.54-1.81,6.255,6.255,0,0,1-.55-2.69,6.057,6.057,0,0,1,.55-2.66A4.166,4.166,0,0,1,18.72-9.4a4.136,4.136,0,0,1,2.26-.62,3.914,3.914,0,0,1,1.88.44,3.052,3.052,0,0,1,1.26,1.24v-4.74a1.06,1.06,0,0,1,.33-.81A1.247,1.247,0,0,1,25.34-14.2ZM21.64-1.78a2.224,2.224,0,0,0,1.85-.82,3.69,3.69,0,0,0,.65-2.34,3.646,3.646,0,0,0-.65-2.33,2.213,2.213,0,0,0-1.83-.81,2.276,2.276,0,0,0-1.86.8,3.529,3.529,0,0,0-.66,2.3,3.737,3.737,0,0,0,.66,2.36A2.208,2.208,0,0,0,21.64-1.78Z" transform="translate(94 32)" fill="#3f3f3f"/>
    <g id="Grupo_248" data-name="Grupo 248" transform="translate(-744 63)">
      <path id="Trazado_364" data-name="Trazado 364" d="M-86.88.12a1.419,1.419,0,0,1-1.06-.43,1.471,1.471,0,0,1-.42-1.07,1.471,1.471,0,0,1,.42-1.07,1.419,1.419,0,0,1,1.06-.43,1.419,1.419,0,0,1,1.06.43,1.471,1.471,0,0,1,.42,1.07,1.471,1.471,0,0,1-.42,1.07A1.419,1.419,0,0,1-86.88.12Zm12.68-7.4a3.411,3.411,0,0,1,1.89,1.24,3.58,3.58,0,0,1,.67,2.2,3.4,3.4,0,0,1-1.29,2.82A5.581,5.581,0,0,1-76.48,0h-5.16a1.252,1.252,0,0,1-.91-.32,1.2,1.2,0,0,1-.33-.9V-12.88a1.2,1.2,0,0,1,.33-.9,1.252,1.252,0,0,1,.91-.32h4.96a5.5,5.5,0,0,1,3.45.97,3.235,3.235,0,0,1,1.25,2.71,3.233,3.233,0,0,1-.59,1.94A3.374,3.374,0,0,1-74.2-7.28Zm-6.16-.88h3.26q2.66,0,2.66-1.98a1.708,1.708,0,0,0-.66-1.48,3.4,3.4,0,0,0-2-.48h-3.26ZM-76.76-2a3.324,3.324,0,0,0,2.04-.5,1.857,1.857,0,0,0,.64-1.56,1.9,1.9,0,0,0-.65-1.58,3.234,3.234,0,0,0-2.03-.52h-3.6V-2Zm12.78-7.98a1.077,1.077,0,0,1,.82.22.976.976,0,0,1,.3.78,1.09,1.09,0,0,1-.26.8,1.6,1.6,0,0,1-.94.34l-.6.06a2.43,2.43,0,0,0-1.73.8,2.616,2.616,0,0,0-.55,1.7v4.2a1.11,1.11,0,0,1-.36.89,1.33,1.33,0,0,1-.9.31,1.293,1.293,0,0,1-.89-.31,1.126,1.126,0,0,1-.35-.89V-8.82a1.071,1.071,0,0,1,.35-.86,1.29,1.29,0,0,1,.87-.3,1.2,1.2,0,0,1,.84.29,1.063,1.063,0,0,1,.32.83v.8a2.96,2.96,0,0,1,1.13-1.36,3.464,3.464,0,0,1,1.67-.54Zm6.4-.04a4.074,4.074,0,0,1,3.03,1.01,4.228,4.228,0,0,1,.99,3.07v4.88a1.128,1.128,0,0,1-.32.85,1.211,1.211,0,0,1-.88.31,1.17,1.17,0,0,1-.85-.32,1.117,1.117,0,0,1-.33-.84V-1.5A2.609,2.609,0,0,1-57.01-.28,3.209,3.209,0,0,1-58.7.16a3.924,3.924,0,0,1-1.78-.4,3.166,3.166,0,0,1-1.26-1.1A2.779,2.779,0,0,1-62.2-2.9a2.471,2.471,0,0,1,.55-1.7,3.305,3.305,0,0,1,1.79-.9,16.3,16.3,0,0,1,3.42-.28h.5v-.46a2.048,2.048,0,0,0-.42-1.43,1.787,1.787,0,0,0-1.36-.45,4.315,4.315,0,0,0-1.18.17q-.6.17-1.42.49a2,2,0,0,1-.76.26.752.752,0,0,1-.59-.26.988.988,0,0,1-.23-.68,1.024,1.024,0,0,1,.17-.59,1.614,1.614,0,0,1,.57-.47,6.519,6.519,0,0,1,1.67-.6A8.617,8.617,0,0,1-57.58-10.02Zm-.62,8.38a2.136,2.136,0,0,0,1.63-.67,2.423,2.423,0,0,0,.63-1.73v-.42h-.36a13.8,13.8,0,0,0-2.08.12,2.019,2.019,0,0,0-1.06.42,1.07,1.07,0,0,0-.32.82,1.357,1.357,0,0,0,.45,1.05A1.587,1.587,0,0,0-58.2-1.64Zm12.86-8.38a3.269,3.269,0,0,1,2.62,1A4.535,4.535,0,0,1-41.86-6v4.92a1.169,1.169,0,0,1-.33.88,1.252,1.252,0,0,1-.91.32,1.288,1.288,0,0,1-.92-.32,1.15,1.15,0,0,1-.34-.88V-5.86a2.593,2.593,0,0,0-.43-1.66,1.652,1.652,0,0,0-1.35-.52,2.282,2.282,0,0,0-1.73.68,2.524,2.524,0,0,0-.65,1.82v4.46a1.15,1.15,0,0,1-.34.88,1.288,1.288,0,0,1-.92.32,1.252,1.252,0,0,1-.91-.32,1.169,1.169,0,0,1-.33-.88V-8.82a1.1,1.1,0,0,1,.34-.84,1.288,1.288,0,0,1,.92-.32,1.191,1.191,0,0,1,.85.31,1.06,1.06,0,0,1,.33.81v.54a3.382,3.382,0,0,1,1.34-1.26A4.033,4.033,0,0,1-45.34-10.02Zm14.18-4.18a1.333,1.333,0,0,1,.92.32,1.07,1.07,0,0,1,.36.84V-1.08a1.125,1.125,0,0,1-.34.86,1.26,1.26,0,0,1-.9.32,1.26,1.26,0,0,1-.9-.32,1.125,1.125,0,0,1-.34-.86v-.5A3.131,3.131,0,0,1-33.63-.3a3.833,3.833,0,0,1-1.89.46,4.053,4.053,0,0,1-2.25-.64,4.244,4.244,0,0,1-1.54-1.81,6.255,6.255,0,0,1-.55-2.69,6.057,6.057,0,0,1,.55-2.66A4.166,4.166,0,0,1-37.78-9.4a4.136,4.136,0,0,1,2.26-.62,3.914,3.914,0,0,1,1.88.44,3.052,3.052,0,0,1,1.26,1.24v-4.74a1.06,1.06,0,0,1,.33-.81A1.247,1.247,0,0,1-31.16-14.2Zm-3.7,12.42a2.224,2.224,0,0,0,1.85-.82,3.69,3.69,0,0,0,.65-2.34,3.646,3.646,0,0,0-.65-2.33,2.213,2.213,0,0,0-1.83-.81,2.276,2.276,0,0,0-1.86.8,3.529,3.529,0,0,0-.66,2.3,3.737,3.737,0,0,0,.66,2.36A2.208,2.208,0,0,0-34.86-1.78Zm18.46,3.5a1.038,1.038,0,0,1,.7.24.871.871,0,0,1,.28.7.871.871,0,0,1-.28.7,1.038,1.038,0,0,1-.7.24h-1.5a2.4,2.4,0,0,1-1.79-.64,2.428,2.428,0,0,1-.63-1.78V-2.7a1.9,1.9,0,0,0-.28-1.16,1.35,1.35,0,0,0-1-.42.981.981,0,0,1-.71-.29.976.976,0,0,1-.25-.69.94.94,0,0,1,.25-.68,1,1,0,0,1,.71-.28,1.35,1.35,0,0,0,1-.42,1.9,1.9,0,0,0,.28-1.16v-3.88a2.428,2.428,0,0,1,.63-1.78,2.4,2.4,0,0,1,1.79-.64h1.5a1.038,1.038,0,0,1,.7.24.871.871,0,0,1,.28.7.871.871,0,0,1-.28.7,1.038,1.038,0,0,1-.7.24h-.64a.856.856,0,0,0-.63.21.917.917,0,0,0-.21.67V-7.5a2.4,2.4,0,0,1-.47,1.51,1.909,1.909,0,0,1-1.11.75,1.922,1.922,0,0,1,1.11.74A2.358,2.358,0,0,1-17.88-3V.84a.917.917,0,0,0,.21.67.856.856,0,0,0,.63.21Zm7.36-.22a1.082,1.082,0,0,1-.7-.21A.673.673,0,0,1-10,.74.645.645,0,0,1-9.73.21,1.091,1.091,0,0,1-9.04,0H-.96A1.091,1.091,0,0,1-.27.21.645.645,0,0,1,0,.74a.673.673,0,0,1-.26.55,1.082,1.082,0,0,1-.7.21Z" transform="translate(1034 -31)" fill="#3f3f3f"/>
    </g>
    <path id="Trazado_171" data-name="Trazado 171" d="M305.408,171.8a2.622,2.622,0,0,1-2.619-2.619v-5.031a2.619,2.619,0,0,1,5.238,0v2.412h67.394V128.694H309.49a2.619,2.619,0,1,1,0-5.238H378.04a2.622,2.622,0,0,1,2.618,2.619v43.1a2.622,2.622,0,0,1-2.618,2.619Z" transform="translate(-61.664 -122.456)" fill="url(#linear-gradient)"/>
  </g>
</svg>
