<svg xmlns="http://www.w3.org/2000/svg" xmlns:xlink="http://www.w3.org/1999/xlink" width="353" height="50" viewBox="0 0 353 50">
  <defs>
    <linearGradient id="linear-gradient" x1="0.5" x2="0.5" y2="1" gradientUnits="objectBoundingBox">
      <stop offset="0" stop-color="#264de4"/>
      <stop offset="0.159" stop-color="#2653e3"/>
      <stop offset="0.374" stop-color="#2664e3"/>
      <stop offset="0.621" stop-color="#2680e3"/>
      <stop offset="0.89" stop-color="#26a7e3"/>
      <stop offset="1" stop-color="#26bae3"/>
    </linearGradient>
    <clipPath id="clip-contact_two_states">
      <rect width="353" height="50"/>
    </clipPath>
  </defs>
  <g id="contact_two_states" clip-path="url(#clip-contact_two_states)">
    <g id="Grupo_246" data-name="Grupo 246" transform="translate(-899 63)">
      <path id="Trazado_353" data-name="Trazado 353" d="M-146.6.12a1.866,1.866,0,0,1-1.39-.56,1.893,1.893,0,0,1-.55-1.38,1.893,1.893,0,0,1,.55-1.38,1.866,1.866,0,0,1,1.39-.56,1.842,1.842,0,0,1,1.37.56,1.893,1.893,0,0,1,.55,1.38,1.893,1.893,0,0,1-.55,1.38A1.842,1.842,0,0,1-146.6.12Zm9.96.06a7.539,7.539,0,0,1-3.71-.88,6.058,6.058,0,0,1-2.46-2.52,8.078,8.078,0,0,1-.87-3.84,8.034,8.034,0,0,1,.87-3.82,6.058,6.058,0,0,1,2.46-2.52,7.539,7.539,0,0,1,3.71-.88,7.6,7.6,0,0,1,4.46,1.34,1.554,1.554,0,0,1,.49.52,1.519,1.519,0,0,1,.15.72,1.61,1.61,0,0,1-.35,1.05,1.061,1.061,0,0,1-.85.43,1.529,1.529,0,0,1-.54-.09,3.243,3.243,0,0,1-.56-.29,5.674,5.674,0,0,0-1.32-.6,4.568,4.568,0,0,0-1.28-.18,3.214,3.214,0,0,0-2.65,1.07,5.086,5.086,0,0,0-.87,3.25,5.123,5.123,0,0,0,.87,3.27,3.214,3.214,0,0,0,2.65,1.07,3.586,3.586,0,0,0,1.16-.19q.56-.19,1.44-.59.42-.22.62-.3a1.292,1.292,0,0,1,.48-.08,1.061,1.061,0,0,1,.85.43,1.61,1.61,0,0,1,.35,1.05,1.532,1.532,0,0,1-.15.71,1.518,1.518,0,0,1-.49.53A7.6,7.6,0,0,1-136.64.18Zm11.4-.02a6.168,6.168,0,0,1-2.85-.63,4.522,4.522,0,0,1-1.9-1.79,5.343,5.343,0,0,1-.67-2.72,5.288,5.288,0,0,1,.67-2.71,4.49,4.49,0,0,1,1.89-1.77,6.235,6.235,0,0,1,2.86-.62,6.235,6.235,0,0,1,2.86.62,4.49,4.49,0,0,1,1.89,1.77,5.288,5.288,0,0,1,.67,2.71,5.343,5.343,0,0,1-.67,2.72,4.536,4.536,0,0,1-1.89,1.79A6.153,6.153,0,0,1-125.24.16Zm0-2.66q1.9,0,1.9-2.48t-1.9-2.48q-1.9,0-1.9,2.48T-125.24-2.5Zm13.66-7.58a3.189,3.189,0,0,1,2.62,1.05,4.966,4.966,0,0,1,.86,3.19v4.32a1.547,1.547,0,0,1-.48,1.2,1.85,1.85,0,0,1-1.3.44,1.85,1.85,0,0,1-1.3-.44,1.547,1.547,0,0,1-.48-1.2V-5.68a2.1,2.1,0,0,0-.31-1.28,1.1,1.1,0,0,0-.93-.4,1.643,1.643,0,0,0-1.27.51,1.942,1.942,0,0,0-.47,1.37v3.96a1.547,1.547,0,0,1-.48,1.2,1.85,1.85,0,0,1-1.3.44,1.85,1.85,0,0,1-1.3-.44,1.547,1.547,0,0,1-.48-1.2V-8.44a1.478,1.478,0,0,1,.5-1.15,1.869,1.869,0,0,1,1.3-.45,1.7,1.7,0,0,1,1.21.42,1.435,1.435,0,0,1,.45,1.1,3.411,3.411,0,0,1,1.34-1.16A4.1,4.1,0,0,1-111.58-10.08Zm11.3,7.66q1.34.08,1.34,1.2a1.144,1.144,0,0,1-.54,1.04,2.6,2.6,0,0,1-1.54.28l-.56-.04a4.126,4.126,0,0,1-2.73-1.09,3.627,3.627,0,0,1-.93-2.65V-7.22h-.58q-1.6,0-1.6-1.32,0-1.3,1.6-1.3h.58v-1.3a1.579,1.579,0,0,1,.48-1.21,1.824,1.824,0,0,1,1.3-.45,1.824,1.824,0,0,1,1.3.45,1.579,1.579,0,0,1,.48,1.21v1.3h1.1q1.6,0,1.6,1.3,0,1.32-1.6,1.32h-1.1v3.84a.931.931,0,0,0,.23.64.816.816,0,0,0,.59.28Zm6.86-7.66a4.593,4.593,0,0,1,3.37,1.09,4.5,4.5,0,0,1,1.09,3.31V-1.5a1.568,1.568,0,0,1-.45,1.19,1.736,1.736,0,0,1-1.25.43,1.666,1.666,0,0,1-1.15-.4,1.5,1.5,0,0,1-.49-1.08,2.214,2.214,0,0,1-.94,1.12,2.991,2.991,0,0,1-1.58.4,4.057,4.057,0,0,1-1.84-.41,3.2,3.2,0,0,1-1.29-1.14,2.982,2.982,0,0,1-.47-1.65,2.479,2.479,0,0,1,.55-1.69,3.23,3.23,0,0,1,1.75-.91,14.864,14.864,0,0,1,3.24-.28h.54v-.24a1.36,1.36,0,0,0-.32-1.01,1.526,1.526,0,0,0-1.08-.31,7.946,7.946,0,0,0-2.4.56,2.453,2.453,0,0,1-.78.16.989.989,0,0,1-.8-.36,1.42,1.42,0,0,1-.3-.94,1.31,1.31,0,0,1,.18-.72,1.564,1.564,0,0,1,.58-.5,6.976,6.976,0,0,1,1.76-.58A10.219,10.219,0,0,1-93.42-10.08Zm-.56,7.86a1.517,1.517,0,0,0,1.18-.51,1.881,1.881,0,0,0,.46-1.31v-.24h-.32a5.092,5.092,0,0,0-1.82.23.79.79,0,0,0-.54.77,1.049,1.049,0,0,0,.29.76A1,1,0,0,0-93.98-2.22Zm1.24-9a1.013,1.013,0,0,1-.6.2.87.87,0,0,1-.64-.26.824.824,0,0,1-.26-.6.954.954,0,0,1,.22-.6l1.48-2.04a1.941,1.941,0,0,1,.63-.57,1.473,1.473,0,0,1,.71-.19,1.451,1.451,0,0,1,1.02.41,1.283,1.283,0,0,1,.44.97,1.437,1.437,0,0,1-.74,1.2ZM-82.22.16a5.221,5.221,0,0,1-3.8-1.36,4.919,4.919,0,0,1-1.4-3.7,5.349,5.349,0,0,1,.68-2.72,4.614,4.614,0,0,1,1.91-1.82,6,6,0,0,1,2.81-.64,6.607,6.607,0,0,1,1.68.22,5.315,5.315,0,0,1,1.48.62,1.268,1.268,0,0,1,.62,1.16,1.649,1.649,0,0,1-.29,1.01.9.9,0,0,1-.75.39,1.884,1.884,0,0,1-.58-.09,3.894,3.894,0,0,1-.62-.27,6.737,6.737,0,0,0-.68-.27,2.019,2.019,0,0,0-.62-.09q-1.98,0-1.98,2.42a2.85,2.85,0,0,0,.51,1.83,1.781,1.781,0,0,0,1.47.63,2.116,2.116,0,0,0,.63-.09,4.388,4.388,0,0,0,.65-.27q.4-.18.65-.27a1.613,1.613,0,0,1,.55-.09.9.9,0,0,1,.75.39,1.649,1.649,0,0,1,.29,1.01,1.482,1.482,0,0,1-.16.69,1.113,1.113,0,0,1-.44.47A6.347,6.347,0,0,1-82.22.16Zm11.2-2.58q1.34.08,1.34,1.2a1.144,1.144,0,0,1-.54,1.04A2.6,2.6,0,0,1-71.76.1l-.56-.04a4.126,4.126,0,0,1-2.73-1.09,3.627,3.627,0,0,1-.93-2.65V-7.22h-.58q-1.6,0-1.6-1.32,0-1.3,1.6-1.3h.58v-1.3a1.579,1.579,0,0,1,.48-1.21,1.824,1.824,0,0,1,1.3-.45,1.824,1.824,0,0,1,1.3.45,1.579,1.579,0,0,1,.48,1.21v1.3h1.1q1.6,0,1.6,1.3,0,1.32-1.6,1.32h-1.1v3.84a.931.931,0,0,0,.23.64.816.816,0,0,0,.59.28Zm6.86-7.66a4.593,4.593,0,0,1,3.37,1.09A4.5,4.5,0,0,1-59.7-5.68V-1.5a1.568,1.568,0,0,1-.45,1.19A1.736,1.736,0,0,1-61.4.12a1.666,1.666,0,0,1-1.15-.4,1.5,1.5,0,0,1-.49-1.08,2.214,2.214,0,0,1-.94,1.12,2.991,2.991,0,0,1-1.58.4A4.057,4.057,0,0,1-67.4-.25a3.2,3.2,0,0,1-1.29-1.14,2.982,2.982,0,0,1-.47-1.65,2.479,2.479,0,0,1,.55-1.69,3.23,3.23,0,0,1,1.75-.91,14.864,14.864,0,0,1,3.24-.28h.54v-.24a1.36,1.36,0,0,0-.32-1.01,1.526,1.526,0,0,0-1.08-.31,7.946,7.946,0,0,0-2.4.56,2.453,2.453,0,0,1-.78.16.989.989,0,0,1-.8-.36,1.42,1.42,0,0,1-.3-.94,1.31,1.31,0,0,1,.18-.72,1.564,1.564,0,0,1,.58-.5,6.976,6.976,0,0,1,1.76-.58A10.219,10.219,0,0,1-64.16-10.08Zm-.56,7.86a1.517,1.517,0,0,0,1.18-.51,1.881,1.881,0,0,0,.46-1.31v-.24h-.32a5.092,5.092,0,0,0-1.82.23.79.79,0,0,0-.54.77,1.049,1.049,0,0,0,.29.76A1,1,0,0,0-64.72-2.22Zm19.58-7.86a3.2,3.2,0,0,1,2.5.97,4.837,4.837,0,0,1,.88,3.27v4.32a1.484,1.484,0,0,1-.51,1.23,1.962,1.962,0,0,1-1.27.41,1.962,1.962,0,0,1-1.27-.41,1.484,1.484,0,0,1-.51-1.23v-4.4a1.718,1.718,0,0,0-.28-1.12,1.031,1.031,0,0,0-.82-.32,1.389,1.389,0,0,0-1.12.5,2.081,2.081,0,0,0-.42,1.38v3.96a1.5,1.5,0,0,1-.5,1.23,1.953,1.953,0,0,1-1.28.41,1.962,1.962,0,0,1-1.27-.41,1.484,1.484,0,0,1-.51-1.23v-4.4a1.718,1.718,0,0,0-.28-1.12,1.031,1.031,0,0,0-.82-.32,1.36,1.36,0,0,0-1.11.5,2.116,2.116,0,0,0-.41,1.38v3.96a1.484,1.484,0,0,1-.51,1.23,1.962,1.962,0,0,1-1.27.41,1.962,1.962,0,0,1-1.27-.41,1.484,1.484,0,0,1-.51-1.23V-8.44a1.414,1.414,0,0,1,.53-1.19,2.014,2.014,0,0,1,1.27-.41,1.833,1.833,0,0,1,1.17.37,1.333,1.333,0,0,1,.49,1.07,3.349,3.349,0,0,1,3-1.48,2.793,2.793,0,0,1,2.86,1.74,3.659,3.659,0,0,1,1.34-1.27A3.824,3.824,0,0,1-45.14-10.08Zm13.38,6.92a.919.919,0,0,1,.75.36,1.452,1.452,0,0,1,.29.94A1.323,1.323,0,0,1-31.5-.64a7.791,7.791,0,0,1-1.61.57,7.165,7.165,0,0,1-1.71.23,6.235,6.235,0,0,1-2.86-.62,4.409,4.409,0,0,1-1.88-1.78,5.407,5.407,0,0,1-.66-2.72,5.5,5.5,0,0,1,.63-2.65,4.536,4.536,0,0,1,1.76-1.82,5.021,5.021,0,0,1,2.55-.65,4.756,4.756,0,0,1,2.42.6,4.087,4.087,0,0,1,1.61,1.7,5.535,5.535,0,0,1,.57,2.58,1.074,1.074,0,0,1-.21.71.752.752,0,0,1-.61.25h-5.28a2.192,2.192,0,0,0,.62,1.38,2.1,2.1,0,0,0,1.42.42,3.626,3.626,0,0,0,.92-.11,9.018,9.018,0,0,0,.94-.31q.3-.12.59-.21A1.8,1.8,0,0,1-31.76-3.16Zm-3.42-4.52a1.459,1.459,0,0,0-1.12.45,2.16,2.16,0,0,0-.5,1.31h3.14Q-33.78-7.68-35.18-7.68ZM-17.02.98a1.392,1.392,0,0,1,.91.32,1.194,1.194,0,0,1,.39.98,1.224,1.224,0,0,1-.39.99,1.366,1.366,0,0,1-.91.33h-1.66a2.913,2.913,0,0,1-2.14-.77A2.857,2.857,0,0,1-21.6.7V-2.36a1.931,1.931,0,0,0-.25-1.12,1.159,1.159,0,0,0-.87-.4,1.336,1.336,0,0,1-.96-.4A1.422,1.422,0,0,1-24-5.26a1.325,1.325,0,0,1,.32-.93,1.428,1.428,0,0,1,.96-.41,1.159,1.159,0,0,0,.87-.4,1.931,1.931,0,0,0,.25-1.12V-11.2a2.857,2.857,0,0,1,.78-2.13,2.913,2.913,0,0,1,2.14-.77h1.66a1.366,1.366,0,0,1,.91.33,1.224,1.224,0,0,1,.39.99,1.194,1.194,0,0,1-.39.98,1.392,1.392,0,0,1-.91.32h-.3a.842.842,0,0,0-.6.19.9.9,0,0,0-.2.67v2.94a2.527,2.527,0,0,1-.53,1.6,2.173,2.173,0,0,1-1.21.84,2.173,2.173,0,0,1,1.21.84,2.527,2.527,0,0,1,.53,1.6V.12a.9.9,0,0,0,.2.67.842.842,0,0,0,.6.19Zm8.36,1.04a1.557,1.557,0,0,1-.98-.28A.892.892,0,0,1-10,1,.865.865,0,0,1-9.64.27,1.6,1.6,0,0,1-8.66,0h7.32A1.6,1.6,0,0,1-.36.27.865.865,0,0,1,0,1a.892.892,0,0,1-.36.74,1.557,1.557,0,0,1-.98.28Z" transform="translate(1223 -31)" fill="#fff"/>
      <path id="Trazado_172" data-name="Trazado 172" d="M260.408,171.8a2.622,2.622,0,0,1-2.619-2.619v-5.031a2.619,2.619,0,0,1,5.238,0v2.412H375.421V128.694H264.49a2.619,2.619,0,1,1,0-5.238H378.04a2.622,2.622,0,0,1,2.618,2.619v43.1a2.622,2.622,0,0,1-2.618,2.619Z" transform="translate(871.336 -185.456)" fill="url(#linear-gradient)"/>
    </g>
    <path id="Trazado_352" data-name="Trazado 352" d="M-112.26.18a7.539,7.539,0,0,1-3.71-.88,6.058,6.058,0,0,1-2.46-2.52,8.079,8.079,0,0,1-.87-3.84,8.034,8.034,0,0,1,.87-3.82,6.058,6.058,0,0,1,2.46-2.52,7.539,7.539,0,0,1,3.71-.88,7.6,7.6,0,0,1,4.46,1.34,1.553,1.553,0,0,1,.49.52,1.519,1.519,0,0,1,.15.72,1.61,1.61,0,0,1-.35,1.05,1.061,1.061,0,0,1-.85.43,1.529,1.529,0,0,1-.54-.09,3.243,3.243,0,0,1-.56-.29,5.674,5.674,0,0,0-1.32-.6,4.568,4.568,0,0,0-1.28-.18,3.214,3.214,0,0,0-2.65,1.07,5.086,5.086,0,0,0-.87,3.25,5.123,5.123,0,0,0,.87,3.27,3.214,3.214,0,0,0,2.65,1.07,3.586,3.586,0,0,0,1.16-.19q.56-.19,1.44-.59.42-.22.62-.3a1.292,1.292,0,0,1,.48-.08,1.061,1.061,0,0,1,.85.43,1.61,1.61,0,0,1,.35,1.05,1.532,1.532,0,0,1-.15.71,1.518,1.518,0,0,1-.49.53A7.6,7.6,0,0,1-112.26.18Zm11.4-.02a6.168,6.168,0,0,1-2.85-.63,4.522,4.522,0,0,1-1.9-1.79,5.343,5.343,0,0,1-.67-2.72,5.288,5.288,0,0,1,.67-2.71,4.49,4.49,0,0,1,1.89-1.77,6.235,6.235,0,0,1,2.86-.62A6.235,6.235,0,0,1-98-9.46a4.49,4.49,0,0,1,1.89,1.77,5.288,5.288,0,0,1,.67,2.71,5.343,5.343,0,0,1-.67,2.72A4.536,4.536,0,0,1-98-.47,6.153,6.153,0,0,1-100.86.16Zm0-2.66q1.9,0,1.9-2.48t-1.9-2.48q-1.9,0-1.9,2.48T-100.86-2.5Zm13.66-7.58a3.189,3.189,0,0,1,2.62,1.05,4.966,4.966,0,0,1,.86,3.19v4.32a1.547,1.547,0,0,1-.48,1.2,1.85,1.85,0,0,1-1.3.44,1.85,1.85,0,0,1-1.3-.44,1.547,1.547,0,0,1-.48-1.2V-5.68a2.1,2.1,0,0,0-.31-1.28,1.1,1.1,0,0,0-.93-.4,1.643,1.643,0,0,0-1.27.51,1.942,1.942,0,0,0-.47,1.37v3.96a1.547,1.547,0,0,1-.48,1.2,1.85,1.85,0,0,1-1.3.44,1.85,1.85,0,0,1-1.3-.44,1.547,1.547,0,0,1-.48-1.2V-8.44a1.478,1.478,0,0,1,.5-1.15,1.869,1.869,0,0,1,1.3-.45,1.7,1.7,0,0,1,1.21.42,1.435,1.435,0,0,1,.45,1.1,3.411,3.411,0,0,1,1.34-1.16A4.1,4.1,0,0,1-87.2-10.08Zm11.3,7.66q1.34.08,1.34,1.2A1.144,1.144,0,0,1-75.1-.18,2.6,2.6,0,0,1-76.64.1L-77.2.06a4.126,4.126,0,0,1-2.73-1.09,3.627,3.627,0,0,1-.93-2.65V-7.22h-.58q-1.6,0-1.6-1.32,0-1.3,1.6-1.3h.58v-1.3a1.579,1.579,0,0,1,.48-1.21,1.824,1.824,0,0,1,1.3-.45,1.824,1.824,0,0,1,1.3.45,1.579,1.579,0,0,1,.48,1.21v1.3h1.1q1.6,0,1.6,1.3,0,1.32-1.6,1.32h-1.1v3.84a.931.931,0,0,0,.23.64.816.816,0,0,0,.59.28Zm6.86-7.66a4.593,4.593,0,0,1,3.37,1.09,4.5,4.5,0,0,1,1.09,3.31V-1.5a1.568,1.568,0,0,1-.45,1.19,1.736,1.736,0,0,1-1.25.43,1.666,1.666,0,0,1-1.15-.4,1.5,1.5,0,0,1-.49-1.08,2.214,2.214,0,0,1-.94,1.12,2.991,2.991,0,0,1-1.58.4,4.057,4.057,0,0,1-1.84-.41,3.2,3.2,0,0,1-1.29-1.14,2.982,2.982,0,0,1-.47-1.65,2.479,2.479,0,0,1,.55-1.69,3.23,3.23,0,0,1,1.75-.91,14.864,14.864,0,0,1,3.24-.28h.54v-.24a1.36,1.36,0,0,0-.32-1.01,1.526,1.526,0,0,0-1.08-.31,7.946,7.946,0,0,0-2.4.56,2.453,2.453,0,0,1-.78.16.989.989,0,0,1-.8-.36,1.42,1.42,0,0,1-.3-.94,1.31,1.31,0,0,1,.18-.72,1.564,1.564,0,0,1,.58-.5,6.976,6.976,0,0,1,1.76-.58A10.219,10.219,0,0,1-69.04-10.08Zm-.56,7.86a1.517,1.517,0,0,0,1.18-.51,1.881,1.881,0,0,0,.46-1.31v-.24h-.32a5.092,5.092,0,0,0-1.82.23.79.79,0,0,0-.54.77,1.049,1.049,0,0,0,.29.76A1,1,0,0,0-69.6-2.22Zm1.24-9a1.013,1.013,0,0,1-.6.2.87.87,0,0,1-.64-.26.824.824,0,0,1-.26-.6.954.954,0,0,1,.22-.6l1.48-2.04a1.941,1.941,0,0,1,.63-.57,1.473,1.473,0,0,1,.71-.19,1.451,1.451,0,0,1,1.02.41,1.283,1.283,0,0,1,.44.97,1.437,1.437,0,0,1-.74,1.2ZM-57.84.16a5.221,5.221,0,0,1-3.8-1.36,4.919,4.919,0,0,1-1.4-3.7,5.349,5.349,0,0,1,.68-2.72,4.614,4.614,0,0,1,1.91-1.82,6,6,0,0,1,2.81-.64,6.607,6.607,0,0,1,1.68.22,5.315,5.315,0,0,1,1.48.62,1.268,1.268,0,0,1,.62,1.16,1.649,1.649,0,0,1-.29,1.01.9.9,0,0,1-.75.39,1.884,1.884,0,0,1-.58-.09,3.894,3.894,0,0,1-.62-.27,6.738,6.738,0,0,0-.68-.27,2.018,2.018,0,0,0-.62-.09q-1.98,0-1.98,2.42a2.85,2.85,0,0,0,.51,1.83,1.781,1.781,0,0,0,1.47.63,2.116,2.116,0,0,0,.63-.09,4.388,4.388,0,0,0,.65-.27q.4-.18.65-.27a1.613,1.613,0,0,1,.55-.09.9.9,0,0,1,.75.39,1.649,1.649,0,0,1,.29,1.01,1.482,1.482,0,0,1-.16.69,1.113,1.113,0,0,1-.44.47A6.347,6.347,0,0,1-57.84.16Zm11.2-2.58q1.34.08,1.34,1.2a1.144,1.144,0,0,1-.54,1.04A2.6,2.6,0,0,1-47.38.1l-.56-.04a4.126,4.126,0,0,1-2.73-1.09,3.627,3.627,0,0,1-.93-2.65V-7.22h-.58q-1.6,0-1.6-1.32,0-1.3,1.6-1.3h.58v-1.3a1.579,1.579,0,0,1,.48-1.21,1.824,1.824,0,0,1,1.3-.45,1.824,1.824,0,0,1,1.3.45,1.579,1.579,0,0,1,.48,1.21v1.3h1.1q1.6,0,1.6,1.3,0,1.32-1.6,1.32h-1.1v3.84a.931.931,0,0,0,.23.64.816.816,0,0,0,.59.28Zm6.86-7.66a4.593,4.593,0,0,1,3.37,1.09,4.5,4.5,0,0,1,1.09,3.31V-1.5a1.568,1.568,0,0,1-.45,1.19,1.736,1.736,0,0,1-1.25.43,1.666,1.666,0,0,1-1.15-.4,1.5,1.5,0,0,1-.49-1.08A2.214,2.214,0,0,1-39.6-.24a2.991,2.991,0,0,1-1.58.4,4.057,4.057,0,0,1-1.84-.41,3.2,3.2,0,0,1-1.29-1.14,2.982,2.982,0,0,1-.47-1.65,2.479,2.479,0,0,1,.55-1.69,3.23,3.23,0,0,1,1.75-.91,14.864,14.864,0,0,1,3.24-.28h.54v-.24a1.36,1.36,0,0,0-.32-1.01,1.526,1.526,0,0,0-1.08-.31,7.946,7.946,0,0,0-2.4.56,2.454,2.454,0,0,1-.78.16.989.989,0,0,1-.8-.36,1.42,1.42,0,0,1-.3-.94,1.31,1.31,0,0,1,.18-.72,1.564,1.564,0,0,1,.58-.5,6.976,6.976,0,0,1,1.76-.58A10.219,10.219,0,0,1-39.78-10.08Zm-.56,7.86a1.517,1.517,0,0,0,1.18-.51,1.881,1.881,0,0,0,.46-1.31v-.24h-.32a5.092,5.092,0,0,0-1.82.23.79.79,0,0,0-.54.77,1.049,1.049,0,0,0,.29.76A1,1,0,0,0-40.34-2.22Zm19.58-7.86a3.2,3.2,0,0,1,2.5.97,4.837,4.837,0,0,1,.88,3.27v4.32a1.484,1.484,0,0,1-.51,1.23,1.962,1.962,0,0,1-1.27.41,1.962,1.962,0,0,1-1.27-.41,1.484,1.484,0,0,1-.51-1.23v-4.4a1.718,1.718,0,0,0-.28-1.12,1.031,1.031,0,0,0-.82-.32,1.389,1.389,0,0,0-1.12.5,2.081,2.081,0,0,0-.42,1.38v3.96a1.5,1.5,0,0,1-.5,1.23,1.953,1.953,0,0,1-1.28.41,1.962,1.962,0,0,1-1.27-.41,1.484,1.484,0,0,1-.51-1.23v-4.4a1.718,1.718,0,0,0-.28-1.12,1.031,1.031,0,0,0-.82-.32,1.36,1.36,0,0,0-1.11.5,2.116,2.116,0,0,0-.41,1.38v3.96a1.484,1.484,0,0,1-.51,1.23,1.962,1.962,0,0,1-1.27.41,1.962,1.962,0,0,1-1.27-.41,1.484,1.484,0,0,1-.51-1.23V-8.44a1.414,1.414,0,0,1,.53-1.19,2.014,2.014,0,0,1,1.27-.41,1.833,1.833,0,0,1,1.17.37,1.333,1.333,0,0,1,.49,1.07,3.349,3.349,0,0,1,3-1.48A2.793,2.793,0,0,1-24-8.34a3.659,3.659,0,0,1,1.34-1.27A3.824,3.824,0,0,1-20.76-10.08ZM-7.38-3.16a.919.919,0,0,1,.75.36,1.452,1.452,0,0,1,.29.94A1.323,1.323,0,0,1-7.12-.64a7.791,7.791,0,0,1-1.61.57,7.165,7.165,0,0,1-1.71.23A6.235,6.235,0,0,1-13.3-.46a4.409,4.409,0,0,1-1.88-1.78,5.407,5.407,0,0,1-.66-2.72,5.5,5.5,0,0,1,.63-2.65,4.536,4.536,0,0,1,1.76-1.82,5.021,5.021,0,0,1,2.55-.65,4.756,4.756,0,0,1,2.42.6,4.087,4.087,0,0,1,1.61,1.7A5.535,5.535,0,0,1-6.3-5.2a1.074,1.074,0,0,1-.21.71.752.752,0,0,1-.61.25H-12.4a2.192,2.192,0,0,0,.62,1.38,2.1,2.1,0,0,0,1.42.42,3.626,3.626,0,0,0,.92-.11,9.018,9.018,0,0,0,.94-.31q.3-.12.59-.21A1.8,1.8,0,0,1-7.38-3.16ZM-10.8-7.68a1.459,1.459,0,0,0-1.12.45,2.16,2.16,0,0,0-.5,1.31h3.14Q-9.4-7.68-10.8-7.68Z" transform="translate(152 32)" fill="#fff"/>
  </g>
</svg>
