<svg xmlns="http://www.w3.org/2000/svg" xmlns:xlink="http://www.w3.org/1999/xlink" width="353" height="50" viewBox="0 0 353 50">
  <defs>
    <linearGradient id="linear-gradient" x1="0.5" x2="0.5" y2="1" gradientUnits="objectBoundingBox">
      <stop offset="0" stop-color="#264de4"/>
      <stop offset="0.159" stop-color="#2653e3"/>
      <stop offset="0.374" stop-color="#2664e3"/>
      <stop offset="0.621" stop-color="#2680e3"/>
      <stop offset="0.89" stop-color="#26a7e3"/>
      <stop offset="1" stop-color="#26bae3"/>
    </linearGradient>
    <clipPath id="clip-contact_two_states_dark">
      <rect width="353" height="50"/>
    </clipPath>
  </defs>
  <g id="contact_two_states_dark" clip-path="url(#clip-contact_two_states_dark)">
    <g id="Grupo_246" data-name="Grupo 246" transform="translate(-899 63)">
      <path id="Trazado_353" data-name="Trazado 353" d="M-141.24.12a1.419,1.419,0,0,1-1.06-.43,1.471,1.471,0,0,1-.42-1.07,1.471,1.471,0,0,1,.42-1.07,1.419,1.419,0,0,1,1.06-.43,1.419,1.419,0,0,1,1.06.43,1.471,1.471,0,0,1,.42,1.07,1.471,1.471,0,0,1-.42,1.07A1.419,1.419,0,0,1-141.24.12Zm9.64.06a7.035,7.035,0,0,1-3.57-.88,5.851,5.851,0,0,1-2.35-2.52,8.486,8.486,0,0,1-.82-3.84,8.423,8.423,0,0,1,.82-3.83,5.863,5.863,0,0,1,2.35-2.51,7.035,7.035,0,0,1,3.57-.88,7.732,7.732,0,0,1,2.48.39,6.444,6.444,0,0,1,2.06,1.13,1.147,1.147,0,0,1,.36.42,1.3,1.3,0,0,1,.1.54,1.147,1.147,0,0,1-.24.74.721.721,0,0,1-.58.3,1.479,1.479,0,0,1-.82-.28,5.931,5.931,0,0,0-1.6-.89,5.1,5.1,0,0,0-1.64-.25,3.844,3.844,0,0,0-3.15,1.3,5.89,5.89,0,0,0-1.07,3.82,5.926,5.926,0,0,0,1.07,3.84,3.844,3.844,0,0,0,3.15,1.3,4.707,4.707,0,0,0,1.59-.26,7.628,7.628,0,0,0,1.65-.88,2.8,2.8,0,0,1,.4-.2,1.12,1.12,0,0,1,.42-.08.721.721,0,0,1,.58.3,1.147,1.147,0,0,1,.24.74,1.319,1.319,0,0,1-.1.53,1.12,1.12,0,0,1-.36.43,6.444,6.444,0,0,1-2.06,1.13A7.732,7.732,0,0,1-131.6.18Zm11.3-.02a5.381,5.381,0,0,1-2.63-.62,4.29,4.29,0,0,1-1.75-1.78,5.643,5.643,0,0,1-.62-2.7,5.584,5.584,0,0,1,.62-2.69,4.3,4.3,0,0,1,1.75-1.77,5.381,5.381,0,0,1,2.63-.62,5.381,5.381,0,0,1,2.63.62,4.242,4.242,0,0,1,1.74,1.77,5.659,5.659,0,0,1,.61,2.69,5.719,5.719,0,0,1-.61,2.7,4.228,4.228,0,0,1-1.74,1.78A5.381,5.381,0,0,1-120.3.16Zm-.02-1.94a2.241,2.241,0,0,0,1.86-.8,3.717,3.717,0,0,0,.64-2.36,3.724,3.724,0,0,0-.64-2.35,2.207,2.207,0,0,0-1.84-.81,2.235,2.235,0,0,0-1.85.81,3.682,3.682,0,0,0-.65,2.35,3.717,3.717,0,0,0,.64,2.36A2.219,2.219,0,0,0-120.32-1.78Zm12.74-8.24a3.269,3.269,0,0,1,2.62,1A4.535,4.535,0,0,1-104.1-6v4.92a1.169,1.169,0,0,1-.33.88,1.252,1.252,0,0,1-.91.32,1.288,1.288,0,0,1-.92-.32,1.15,1.15,0,0,1-.34-.88V-5.86a2.593,2.593,0,0,0-.43-1.66,1.652,1.652,0,0,0-1.35-.52,2.282,2.282,0,0,0-1.73.68,2.524,2.524,0,0,0-.65,1.82v4.46a1.15,1.15,0,0,1-.34.88,1.288,1.288,0,0,1-.92.32,1.252,1.252,0,0,1-.91-.32,1.169,1.169,0,0,1-.33-.88V-8.82a1.1,1.1,0,0,1,.34-.84,1.288,1.288,0,0,1,.92-.32,1.191,1.191,0,0,1,.85.31,1.06,1.06,0,0,1,.33.81v.54a3.382,3.382,0,0,1,1.34-1.26A4.033,4.033,0,0,1-107.58-10.02Zm11.1,8.28q1,.06,1,.9a.814.814,0,0,1-.39.73A1.861,1.861,0,0,1-96.98.1l-.54-.04a3.217,3.217,0,0,1-3.36-3.6V-7.9h-1a1.27,1.27,0,0,1-.83-.24.856.856,0,0,1-.29-.7.856.856,0,0,1,.29-.7,1.27,1.27,0,0,1,.83-.24h1v-1.84a1.125,1.125,0,0,1,.34-.86,1.288,1.288,0,0,1,.92-.32,1.26,1.26,0,0,1,.9.32,1.125,1.125,0,0,1,.34.86v1.84h1.7a1.27,1.27,0,0,1,.83.24.857.857,0,0,1,.29.7.856.856,0,0,1-.29.7,1.27,1.27,0,0,1-.83.24h-1.7v4.54q0,1.48,1.36,1.58Zm6.54-8.28a4.074,4.074,0,0,1,3.03,1.01,4.228,4.228,0,0,1,.99,3.07v4.88a1.128,1.128,0,0,1-.32.85,1.211,1.211,0,0,1-.88.31,1.17,1.17,0,0,1-.85-.32,1.117,1.117,0,0,1-.33-.84V-1.5A2.609,2.609,0,0,1-89.37-.28a3.21,3.21,0,0,1-1.69.44,3.924,3.924,0,0,1-1.78-.4,3.166,3.166,0,0,1-1.26-1.1,2.779,2.779,0,0,1-.46-1.56,2.471,2.471,0,0,1,.55-1.7,3.305,3.305,0,0,1,1.79-.9,16.3,16.3,0,0,1,3.42-.28h.5v-.46a2.048,2.048,0,0,0-.42-1.43,1.787,1.787,0,0,0-1.36-.45,4.316,4.316,0,0,0-1.18.17q-.6.17-1.42.49a2,2,0,0,1-.76.26.752.752,0,0,1-.59-.26.988.988,0,0,1-.23-.68,1.024,1.024,0,0,1,.17-.59,1.613,1.613,0,0,1,.57-.47,6.519,6.519,0,0,1,1.67-.6A8.617,8.617,0,0,1-89.94-10.02Zm-.62,8.38a2.136,2.136,0,0,0,1.63-.67,2.423,2.423,0,0,0,.63-1.73v-.42h-.36a13.8,13.8,0,0,0-2.08.12,2.019,2.019,0,0,0-1.06.42,1.07,1.07,0,0,0-.32.82,1.357,1.357,0,0,0,.45,1.05A1.587,1.587,0,0,0-90.56-1.64Zm1.12-9.48a.745.745,0,0,1-.44.16.638.638,0,0,1-.47-.19.615.615,0,0,1-.19-.45.745.745,0,0,1,.16-.44l1.94-2.58a1.323,1.323,0,0,1,1.06-.6,1.022,1.022,0,0,1,.75.31,1,1,0,0,1,.31.73,1.17,1.17,0,0,1-.54.96ZM-79.04.16a5.182,5.182,0,0,1-2.57-.62,4.226,4.226,0,0,1-1.71-1.76,5.631,5.631,0,0,1-.6-2.66,5.585,5.585,0,0,1,.63-2.69,4.451,4.451,0,0,1,1.77-1.81,5.26,5.26,0,0,1,2.62-.64,5.831,5.831,0,0,1,1.57.22,5.179,5.179,0,0,1,1.39.6,1.238,1.238,0,0,1,.64,1.06,1.124,1.124,0,0,1-.21.71.664.664,0,0,1-.55.27,1.2,1.2,0,0,1-.46-.1A4.028,4.028,0,0,1-77-7.5a5.372,5.372,0,0,0-.84-.41,2.61,2.61,0,0,0-.92-.15,2.339,2.339,0,0,0-1.91.81,3.569,3.569,0,0,0-.67,2.33,3.534,3.534,0,0,0,.67,2.31,2.339,2.339,0,0,0,1.91.81,2.466,2.466,0,0,0,.89-.15A7.539,7.539,0,0,0-77-2.36a3.96,3.96,0,0,1,.52-.27,1.154,1.154,0,0,1,.44-.09.664.664,0,0,1,.54.28,1.1,1.1,0,0,1,.22.7,1.125,1.125,0,0,1-.15.59,1.351,1.351,0,0,1-.49.45,5.259,5.259,0,0,1-1.44.63A6.191,6.191,0,0,1-79.04.16Zm10.56-1.9q1,.06,1,.9a.814.814,0,0,1-.39.73A1.861,1.861,0,0,1-68.98.1l-.54-.04a3.217,3.217,0,0,1-3.36-3.6V-7.9h-1a1.27,1.27,0,0,1-.83-.24.856.856,0,0,1-.29-.7.856.856,0,0,1,.29-.7,1.27,1.27,0,0,1,.83-.24h1v-1.84a1.125,1.125,0,0,1,.34-.86,1.288,1.288,0,0,1,.92-.32,1.26,1.26,0,0,1,.9.32,1.125,1.125,0,0,1,.34.86v1.84h1.7a1.27,1.27,0,0,1,.83.24.857.857,0,0,1,.29.7.856.856,0,0,1-.29.7,1.27,1.27,0,0,1-.83.24h-1.7v4.54q0,1.48,1.36,1.58Zm6.54-8.28a4.074,4.074,0,0,1,3.03,1.01,4.228,4.228,0,0,1,.99,3.07v4.88a1.128,1.128,0,0,1-.32.85,1.211,1.211,0,0,1-.88.31,1.17,1.17,0,0,1-.85-.32,1.117,1.117,0,0,1-.33-.84V-1.5A2.609,2.609,0,0,1-61.37-.28a3.209,3.209,0,0,1-1.69.44,3.924,3.924,0,0,1-1.78-.4,3.167,3.167,0,0,1-1.26-1.1,2.779,2.779,0,0,1-.46-1.56,2.471,2.471,0,0,1,.55-1.7,3.305,3.305,0,0,1,1.79-.9,16.3,16.3,0,0,1,3.42-.28h.5v-.46a2.048,2.048,0,0,0-.42-1.43,1.787,1.787,0,0,0-1.36-.45,4.315,4.315,0,0,0-1.18.17q-.6.17-1.42.49a2,2,0,0,1-.76.26.752.752,0,0,1-.59-.26.988.988,0,0,1-.23-.68,1.024,1.024,0,0,1,.17-.59,1.613,1.613,0,0,1,.57-.47,6.519,6.519,0,0,1,1.67-.6A8.617,8.617,0,0,1-61.94-10.02Zm-.62,8.38a2.136,2.136,0,0,0,1.63-.67,2.423,2.423,0,0,0,.63-1.73v-.42h-.36a13.8,13.8,0,0,0-2.08.12,2.019,2.019,0,0,0-1.06.42,1.07,1.07,0,0,0-.32.82,1.357,1.357,0,0,0,.45,1.05A1.587,1.587,0,0,0-62.56-1.64Zm18.8-8.38a3.117,3.117,0,0,1,2.45.95A4.542,4.542,0,0,1-40.46-6v4.92a1.126,1.126,0,0,1-.35.89,1.322,1.322,0,0,1-.91.31,1.293,1.293,0,0,1-.89-.31,1.126,1.126,0,0,1-.35-.89V-6a2.474,2.474,0,0,0-.39-1.57,1.458,1.458,0,0,0-1.19-.47,1.958,1.958,0,0,0-1.56.67,2.7,2.7,0,0,0-.58,1.83v4.46a1.126,1.126,0,0,1-.35.89,1.293,1.293,0,0,1-.89.31,1.33,1.33,0,0,1-.9-.31,1.11,1.11,0,0,1-.36-.89V-6a2.474,2.474,0,0,0-.39-1.57,1.458,1.458,0,0,0-1.19-.47,1.929,1.929,0,0,0-1.55.67,2.734,2.734,0,0,0-.57,1.83v4.46a1.11,1.11,0,0,1-.36.89,1.33,1.33,0,0,1-.9.31,1.293,1.293,0,0,1-.89-.31,1.126,1.126,0,0,1-.35-.89V-8.82a1.056,1.056,0,0,1,.36-.86,1.358,1.358,0,0,1,.9-.3,1.24,1.24,0,0,1,.85.29,1.046,1.046,0,0,1,.33.83v.48A3.135,3.135,0,0,1-51.71-9.6a3.637,3.637,0,0,1,1.77-.42A2.866,2.866,0,0,1-47-8.18a3.305,3.305,0,0,1,1.3-1.34A3.788,3.788,0,0,1-43.76-10.02Zm13.58,7.34a.673.673,0,0,1,.55.26,1.082,1.082,0,0,1,.21.7,1.213,1.213,0,0,1-.74,1.04,6.686,6.686,0,0,1-1.54.61,6.349,6.349,0,0,1-1.64.23A5.1,5.1,0,0,1-37.08-1.2a4.985,4.985,0,0,1-1.38-3.72,5.707,5.707,0,0,1,.6-2.66,4.363,4.363,0,0,1,1.69-1.8,4.786,4.786,0,0,1,2.47-.64,4.432,4.432,0,0,1,2.3.58A3.933,3.933,0,0,1-29.88-7.8a5.442,5.442,0,0,1,.54,2.5q0,.86-.76.86H-36a3.147,3.147,0,0,0,.78,2.03,2.625,2.625,0,0,0,1.92.65,3.641,3.641,0,0,0,1.13-.16,11.154,11.154,0,0,0,1.11-.44A2.207,2.207,0,0,1-30.18-2.68Zm-3.46-5.58a2.146,2.146,0,0,0-1.63.64A3.022,3.022,0,0,0-36-5.78h4.52a2.852,2.852,0,0,0-.6-1.85A1.979,1.979,0,0,0-33.64-8.26ZM-16.4,1.72a1.038,1.038,0,0,1,.7.24.871.871,0,0,1,.28.7.871.871,0,0,1-.28.7,1.038,1.038,0,0,1-.7.24h-1.5a2.4,2.4,0,0,1-1.79-.64,2.428,2.428,0,0,1-.63-1.78V-2.7a1.9,1.9,0,0,0-.28-1.16,1.35,1.35,0,0,0-1-.42.981.981,0,0,1-.71-.29.976.976,0,0,1-.25-.69.94.94,0,0,1,.25-.68,1,1,0,0,1,.71-.28,1.35,1.35,0,0,0,1-.42,1.9,1.9,0,0,0,.28-1.16v-3.88a2.428,2.428,0,0,1,.63-1.78,2.4,2.4,0,0,1,1.79-.64h1.5a1.038,1.038,0,0,1,.7.24.871.871,0,0,1,.28.7.871.871,0,0,1-.28.7,1.038,1.038,0,0,1-.7.24h-.64a.856.856,0,0,0-.63.21.917.917,0,0,0-.21.67V-7.5a2.4,2.4,0,0,1-.47,1.51,1.909,1.909,0,0,1-1.11.75,1.922,1.922,0,0,1,1.11.74A2.358,2.358,0,0,1-17.88-3V.84a.917.917,0,0,0,.21.67.856.856,0,0,0,.63.21Zm7.36-.22a1.082,1.082,0,0,1-.7-.21A.673.673,0,0,1-10,.74.645.645,0,0,1-9.73.21,1.091,1.091,0,0,1-9.04,0H-.96A1.091,1.091,0,0,1-.27.21.645.645,0,0,1,0,.74a.673.673,0,0,1-.26.55,1.082,1.082,0,0,1-.7.21Z" transform="translate(1223 -31)" fill="#3f3f3f"/>
      <path id="Trazado_172" data-name="Trazado 172" d="M260.408,171.8a2.622,2.622,0,0,1-2.619-2.619v-5.031a2.619,2.619,0,0,1,5.238,0v2.412H375.421V128.694H264.49a2.619,2.619,0,1,1,0-5.238H378.04a2.622,2.622,0,0,1,2.618,2.619v43.1a2.622,2.622,0,0,1-2.618,2.619Z" transform="translate(871.336 -185.456)" fill="url(#linear-gradient)"/>
    </g>
    <path id="Trazado_352" data-name="Trazado 352" d="M-108.42.18a7.034,7.034,0,0,1-3.57-.88,5.851,5.851,0,0,1-2.35-2.52,8.486,8.486,0,0,1-.82-3.84,8.423,8.423,0,0,1,.82-3.83,5.863,5.863,0,0,1,2.35-2.51,7.034,7.034,0,0,1,3.57-.88,7.732,7.732,0,0,1,2.48.39,6.444,6.444,0,0,1,2.06,1.13,1.147,1.147,0,0,1,.36.42,1.3,1.3,0,0,1,.1.54,1.147,1.147,0,0,1-.24.74.721.721,0,0,1-.58.3,1.479,1.479,0,0,1-.82-.28,5.931,5.931,0,0,0-1.6-.89,5.1,5.1,0,0,0-1.64-.25,3.844,3.844,0,0,0-3.15,1.3,5.89,5.89,0,0,0-1.07,3.82,5.926,5.926,0,0,0,1.07,3.84,3.844,3.844,0,0,0,3.15,1.3,4.707,4.707,0,0,0,1.59-.26,7.627,7.627,0,0,0,1.65-.88,2.8,2.8,0,0,1,.4-.2,1.12,1.12,0,0,1,.42-.08.721.721,0,0,1,.58.3,1.147,1.147,0,0,1,.24.74,1.319,1.319,0,0,1-.1.53,1.12,1.12,0,0,1-.36.43,6.444,6.444,0,0,1-2.06,1.13A7.732,7.732,0,0,1-108.42.18Zm11.3-.02a5.381,5.381,0,0,1-2.63-.62,4.29,4.29,0,0,1-1.75-1.78,5.643,5.643,0,0,1-.62-2.7,5.584,5.584,0,0,1,.62-2.69A4.3,4.3,0,0,1-99.75-9.4a5.381,5.381,0,0,1,2.63-.62,5.381,5.381,0,0,1,2.63.62,4.242,4.242,0,0,1,1.74,1.77,5.659,5.659,0,0,1,.61,2.69,5.719,5.719,0,0,1-.61,2.7A4.228,4.228,0,0,1-94.49-.46,5.381,5.381,0,0,1-97.12.16Zm-.02-1.94a2.241,2.241,0,0,0,1.86-.8,3.717,3.717,0,0,0,.64-2.36,3.724,3.724,0,0,0-.64-2.35,2.207,2.207,0,0,0-1.84-.81,2.235,2.235,0,0,0-1.85.81,3.682,3.682,0,0,0-.65,2.35,3.717,3.717,0,0,0,.64,2.36A2.219,2.219,0,0,0-97.14-1.78Zm12.74-8.24a3.269,3.269,0,0,1,2.62,1A4.535,4.535,0,0,1-80.92-6v4.92a1.169,1.169,0,0,1-.33.88,1.252,1.252,0,0,1-.91.32,1.288,1.288,0,0,1-.92-.32,1.15,1.15,0,0,1-.34-.88V-5.86a2.593,2.593,0,0,0-.43-1.66,1.652,1.652,0,0,0-1.35-.52,2.282,2.282,0,0,0-1.73.68,2.524,2.524,0,0,0-.65,1.82v4.46a1.15,1.15,0,0,1-.34.88,1.288,1.288,0,0,1-.92.32,1.252,1.252,0,0,1-.91-.32,1.169,1.169,0,0,1-.33-.88V-8.82a1.1,1.1,0,0,1,.34-.84,1.288,1.288,0,0,1,.92-.32,1.191,1.191,0,0,1,.85.31,1.06,1.06,0,0,1,.33.81v.54A3.382,3.382,0,0,1-86.3-9.58,4.033,4.033,0,0,1-84.4-10.02Zm11.1,8.28q1,.06,1,.9a.814.814,0,0,1-.39.73A1.861,1.861,0,0,1-73.8.1l-.54-.04a3.217,3.217,0,0,1-3.36-3.6V-7.9h-1a1.27,1.27,0,0,1-.83-.24.856.856,0,0,1-.29-.7.856.856,0,0,1,.29-.7,1.27,1.27,0,0,1,.83-.24h1v-1.84a1.125,1.125,0,0,1,.34-.86,1.288,1.288,0,0,1,.92-.32,1.26,1.26,0,0,1,.9.32,1.125,1.125,0,0,1,.34.86v1.84h1.7a1.27,1.27,0,0,1,.83.24.857.857,0,0,1,.29.7.856.856,0,0,1-.29.7,1.27,1.27,0,0,1-.83.24h-1.7v4.54q0,1.48,1.36,1.58Zm6.54-8.28a4.074,4.074,0,0,1,3.03,1.01,4.228,4.228,0,0,1,.99,3.07v4.88a1.128,1.128,0,0,1-.32.85,1.211,1.211,0,0,1-.88.31,1.17,1.17,0,0,1-.85-.32,1.117,1.117,0,0,1-.33-.84V-1.5A2.609,2.609,0,0,1-66.19-.28a3.21,3.21,0,0,1-1.69.44,3.924,3.924,0,0,1-1.78-.4,3.167,3.167,0,0,1-1.26-1.1,2.779,2.779,0,0,1-.46-1.56,2.471,2.471,0,0,1,.55-1.7,3.305,3.305,0,0,1,1.79-.9,16.3,16.3,0,0,1,3.42-.28h.5v-.46a2.048,2.048,0,0,0-.42-1.43,1.787,1.787,0,0,0-1.36-.45,4.316,4.316,0,0,0-1.18.17q-.6.17-1.42.49a2,2,0,0,1-.76.26.752.752,0,0,1-.59-.26.988.988,0,0,1-.23-.68,1.024,1.024,0,0,1,.17-.59,1.613,1.613,0,0,1,.57-.47,6.519,6.519,0,0,1,1.67-.6A8.617,8.617,0,0,1-66.76-10.02Zm-.62,8.38a2.136,2.136,0,0,0,1.63-.67,2.423,2.423,0,0,0,.63-1.73v-.42h-.36a13.8,13.8,0,0,0-2.08.12,2.019,2.019,0,0,0-1.06.42,1.07,1.07,0,0,0-.32.82,1.357,1.357,0,0,0,.45,1.05A1.587,1.587,0,0,0-67.38-1.64Zm1.12-9.48a.745.745,0,0,1-.44.16.638.638,0,0,1-.47-.19.615.615,0,0,1-.19-.45.745.745,0,0,1,.16-.44l1.94-2.58a1.323,1.323,0,0,1,1.06-.6,1.022,1.022,0,0,1,.75.31,1,1,0,0,1,.31.73,1.17,1.17,0,0,1-.54.96ZM-55.86.16a5.182,5.182,0,0,1-2.57-.62,4.226,4.226,0,0,1-1.71-1.76,5.631,5.631,0,0,1-.6-2.66,5.585,5.585,0,0,1,.63-2.69,4.451,4.451,0,0,1,1.77-1.81,5.26,5.26,0,0,1,2.62-.64,5.831,5.831,0,0,1,1.57.22,5.179,5.179,0,0,1,1.39.6,1.238,1.238,0,0,1,.64,1.06,1.124,1.124,0,0,1-.21.71.664.664,0,0,1-.55.27,1.2,1.2,0,0,1-.46-.1,4.028,4.028,0,0,1-.48-.24,5.372,5.372,0,0,0-.84-.41,2.61,2.61,0,0,0-.92-.15,2.339,2.339,0,0,0-1.91.81,3.569,3.569,0,0,0-.67,2.33,3.534,3.534,0,0,0,.67,2.31,2.339,2.339,0,0,0,1.91.81,2.466,2.466,0,0,0,.89-.15,7.539,7.539,0,0,0,.87-.41,3.96,3.96,0,0,1,.52-.27,1.154,1.154,0,0,1,.44-.09.664.664,0,0,1,.54.28,1.1,1.1,0,0,1,.22.7,1.125,1.125,0,0,1-.15.59,1.351,1.351,0,0,1-.49.45,5.259,5.259,0,0,1-1.44.63A6.191,6.191,0,0,1-55.86.16Zm10.56-1.9q1,.06,1,.9a.814.814,0,0,1-.39.73A1.861,1.861,0,0,1-45.8.1l-.54-.04a3.217,3.217,0,0,1-3.36-3.6V-7.9h-1a1.27,1.27,0,0,1-.83-.24.857.857,0,0,1-.29-.7.857.857,0,0,1,.29-.7,1.27,1.27,0,0,1,.83-.24h1v-1.84a1.125,1.125,0,0,1,.34-.86,1.288,1.288,0,0,1,.92-.32,1.26,1.26,0,0,1,.9.32,1.125,1.125,0,0,1,.34.86v1.84h1.7a1.27,1.27,0,0,1,.83.24.857.857,0,0,1,.29.7.857.857,0,0,1-.29.7,1.27,1.27,0,0,1-.83.24h-1.7v4.54q0,1.48,1.36,1.58Zm6.54-8.28a4.074,4.074,0,0,1,3.03,1.01,4.228,4.228,0,0,1,.99,3.07v4.88a1.128,1.128,0,0,1-.32.85,1.211,1.211,0,0,1-.88.31,1.17,1.17,0,0,1-.85-.32,1.117,1.117,0,0,1-.33-.84V-1.5A2.609,2.609,0,0,1-38.19-.28a3.209,3.209,0,0,1-1.69.44,3.924,3.924,0,0,1-1.78-.4,3.166,3.166,0,0,1-1.26-1.1,2.779,2.779,0,0,1-.46-1.56,2.471,2.471,0,0,1,.55-1.7,3.305,3.305,0,0,1,1.79-.9,16.3,16.3,0,0,1,3.42-.28h.5v-.46a2.048,2.048,0,0,0-.42-1.43,1.787,1.787,0,0,0-1.36-.45,4.315,4.315,0,0,0-1.18.17q-.6.17-1.42.49a2,2,0,0,1-.76.26.752.752,0,0,1-.59-.26.988.988,0,0,1-.23-.68,1.024,1.024,0,0,1,.17-.59,1.614,1.614,0,0,1,.57-.47,6.519,6.519,0,0,1,1.67-.6A8.617,8.617,0,0,1-38.76-10.02Zm-.62,8.38a2.136,2.136,0,0,0,1.63-.67,2.423,2.423,0,0,0,.63-1.73v-.42h-.36a13.8,13.8,0,0,0-2.08.12,2.019,2.019,0,0,0-1.06.42,1.07,1.07,0,0,0-.32.82,1.357,1.357,0,0,0,.45,1.05A1.587,1.587,0,0,0-39.38-1.64Zm18.8-8.38a3.117,3.117,0,0,1,2.45.95A4.542,4.542,0,0,1-17.28-6v4.92a1.126,1.126,0,0,1-.35.89,1.321,1.321,0,0,1-.91.31,1.293,1.293,0,0,1-.89-.31,1.126,1.126,0,0,1-.35-.89V-6a2.474,2.474,0,0,0-.39-1.57,1.458,1.458,0,0,0-1.19-.47,1.958,1.958,0,0,0-1.56.67,2.7,2.7,0,0,0-.58,1.83v4.46a1.126,1.126,0,0,1-.35.89,1.293,1.293,0,0,1-.89.31,1.33,1.33,0,0,1-.9-.31A1.11,1.11,0,0,1-26-1.08V-6a2.474,2.474,0,0,0-.39-1.57,1.458,1.458,0,0,0-1.19-.47,1.929,1.929,0,0,0-1.55.67,2.734,2.734,0,0,0-.57,1.83v4.46a1.11,1.11,0,0,1-.36.89,1.33,1.33,0,0,1-.9.31,1.293,1.293,0,0,1-.89-.31,1.126,1.126,0,0,1-.35-.89V-8.82a1.056,1.056,0,0,1,.36-.86,1.358,1.358,0,0,1,.9-.3,1.24,1.24,0,0,1,.85.29,1.046,1.046,0,0,1,.33.83v.48A3.135,3.135,0,0,1-28.53-9.6a3.637,3.637,0,0,1,1.77-.42,2.866,2.866,0,0,1,2.94,1.84,3.3,3.3,0,0,1,1.3-1.34A3.788,3.788,0,0,1-20.58-10.02ZM-7-2.68a.673.673,0,0,1,.55.26,1.082,1.082,0,0,1,.21.7A1.213,1.213,0,0,1-6.98-.68a6.686,6.686,0,0,1-1.54.61,6.349,6.349,0,0,1-1.64.23A5.1,5.1,0,0,1-13.9-1.2a4.985,4.985,0,0,1-1.38-3.72,5.707,5.707,0,0,1,.6-2.66,4.363,4.363,0,0,1,1.69-1.8,4.786,4.786,0,0,1,2.47-.64,4.432,4.432,0,0,1,2.3.58A3.933,3.933,0,0,1-6.7-7.8a5.442,5.442,0,0,1,.54,2.5q0,.86-.76.86h-5.9a3.147,3.147,0,0,0,.78,2.03,2.625,2.625,0,0,0,1.92.65,3.641,3.641,0,0,0,1.13-.16,11.154,11.154,0,0,0,1.11-.44A2.207,2.207,0,0,1-7-2.68Zm-3.46-5.58a2.146,2.146,0,0,0-1.63.64,3.022,3.022,0,0,0-.73,1.84H-8.3a2.852,2.852,0,0,0-.6-1.85A1.979,1.979,0,0,0-10.46-8.26Z" transform="translate(152 32)" fill="#3f3f3f"/>
  </g>
</svg>
