<svg xmlns="http://www.w3.org/2000/svg" width="34.025" height="38.588" viewBox="0 0 34.025 38.588">
  <g id="css" transform="translate(0 -9.438)">
    <g id="g3013" transform="translate(0 0)">
      <path id="polygon2989" d="M773.3,172.494l-3.1,34.725-13.934,3.863-13.9-3.857-3.1-34.731Z" transform="translate(-739.276 -163.056)" fill="#264de3"/>
      <path id="polygon2991" d="M822.181,214.128l2.649-29.674H810.922v32.8Z" transform="translate(-793.909 -172.175)" fill="#2965f0"/>
      <path id="polygon2993" d="M769.171,238.7l.382,4.26h9.532V238.7Z" transform="translate(-762.072 -213.541)" fill="#eaeaea"/>
      <path id="polygon2995" d="M776.622,202.392H765.941l.387,4.26h10.294Z" transform="translate(-759.609 -185.854)" fill="#eaeaea"/>
      <path id="polygon2997" d="M780.922,274.713v-4.432l-.019,0L776.159,269l-.3-3.4H771.58l.6,6.688,8.726,2.422Z" transform="translate(-763.91 -234.059)" fill="#eaeaea"/>
      <path id="polygon3005" d="M816.1,215.273l-.494,5.524-4.751,1.282v4.432l8.732-2.42.064-.72,1-11.214.1-1.144.769-8.621H810.86v4.26h6l-.388,4.362H810.86v4.26Z" transform="translate(-793.862 -185.854)" fill="#fff"/>
    </g>
  </g>
</svg>
