<svg xmlns="http://www.w3.org/2000/svg" width="30.868" height="29.582" viewBox="0 0 30.868 29.582">
  <defs>
    <style>
      .cls-1 {
        fill: #3f3f3f;
      }
    </style>
  </defs>
  <path id="github" class="cls-1" d="M15.434.5A15.3,15.3,0,0,0,0,15.666a15.192,15.192,0,0,0,10.553,14.39c.772.143,1.055-.327,1.055-.729,0-.36-.013-1.314-.019-2.579-4.293.914-5.2-2.035-5.2-2.035a4.043,4.043,0,0,0-1.717-2.219c-1.4-.94.108-.921.108-.921a3.229,3.229,0,0,1,2.364,1.563,3.323,3.323,0,0,0,4.5,1.262,3.211,3.211,0,0,1,.977-2.028c-3.428-.379-7.03-1.684-7.03-7.494a5.794,5.794,0,0,1,1.588-4.069,5.306,5.306,0,0,1,.135-4.014S8.6,6.385,11.555,8.347a14.8,14.8,0,0,1,7.717,0C22.2,6.385,23.5,6.792,23.5,6.792a5.453,5.453,0,0,1,.154,4.014,5.818,5.818,0,0,1,1.582,4.069c0,5.826-3.608,7.109-7.042,7.482a3.6,3.6,0,0,1,1.042,2.806c0,2.03-.019,3.66-.019,4.153,0,.4.27.872,1.061.72a15.146,15.146,0,0,0,10.593-14.37A15.3,15.3,0,0,0,15.434.5Z" transform="translate(0 -0.5)"/>
</svg>
