<svg id="html" xmlns="http://www.w3.org/2000/svg" width="30.861" height="35" viewBox="0 0 30.861 35">
  <path id="Trazado_206" data-name="Trazado 206" d="M537.813,204.432,535,172.931h30.861l-2.811,31.5-12.638,3.5Z" transform="translate(-535.005 -172.931)" fill="#e34d26"/>
  <path id="Trazado_207" data-name="Trazado 207" d="M606.457,214.526l10.365-2.824,2.439-26.844h-12.8Z" transform="translate(-591.258 -182.244)" fill="#f16529"/>
  <path id="Trazado_208" data-name="Trazado 208" d="M571.43,210.686h-5.189l-.358-4.016h5.548v-3.922H561.6l.094,1.052.964,10.807h8.776Z" transform="translate(-555.894 -196.358)" fill="#eaeaea"/>
  <path id="Trazado_209" data-name="Trazado 209" d="M575.822,270.1l-.017,0-4.367-1.179-.279-3.128h-3.937l.549,6.157,8.033,2.23.018,0Z" transform="translate(-560.304 -245.833)" fill="#eaeaea"/>
  <path id="Trazado_214" data-name="Trazado 214" d="M606.4,238.959v3.921h4.829l-.455,5.086-4.374,1.18v4.08L614.435,251l.059-.662.922-10.324.1-1.053H606.4Z" transform="translate(-591.073 -224.843)" fill="#fff"/>
  <path id="Trazado_215" data-name="Trazado 215" d="M606.4,202.749v3.922h9.472l.079-.881.179-1.988.094-1.052Z" transform="translate(-591.084 -196.321)" fill="#fff"/>
</svg>
