<svg id="instagram_white" xmlns="http://www.w3.org/2000/svg" width="30.378" height="30.378" viewBox="0 0 30.378 30.378">
  <defs>
    <style>
      .cls-1 {
        fill: #fff;
      }
    </style>
  </defs>
  <path id="Trazado_2" data-name="Trazado 2" class="cls-1" d="M212.994,210a3,3,0,1,1-3-3A3,3,0,0,1,212.994,210Zm0,0" transform="translate(-194.808 -194.808)"/>
  <path id="Trazado_3" data-name="Trazado 3" class="cls-1" d="M149.865,137.557a2.978,2.978,0,0,0-1.706-1.706,4.975,4.975,0,0,0-1.669-.309c-.948-.043-1.233-.053-3.633-.053s-2.685.009-3.633.052a4.978,4.978,0,0,0-1.669.31,2.979,2.979,0,0,0-1.707,1.706,4.977,4.977,0,0,0-.309,1.67c-.043.948-.053,1.232-.053,3.633s.009,2.685.053,3.633a4.975,4.975,0,0,0,.309,1.669,2.978,2.978,0,0,0,1.706,1.706,4.969,4.969,0,0,0,1.67.31c.948.043,1.232.052,3.633.052s2.686-.009,3.633-.052a4.969,4.969,0,0,0,1.67-.31,2.977,2.977,0,0,0,1.706-1.706,4.98,4.98,0,0,0,.31-1.669c.043-.948.052-1.233.052-3.633s-.009-2.685-.052-3.633A4.969,4.969,0,0,0,149.865,137.557Zm-7.009,9.92a4.617,4.617,0,1,1,4.617-4.617A4.617,4.617,0,0,1,142.856,147.477Zm4.8-8.338a1.079,1.079,0,1,1,1.079-1.079A1.079,1.079,0,0,1,147.655,139.139Zm0,0" transform="translate(-127.667 -127.671)"/>
  <path id="Trazado_4" data-name="Trazado 4" class="cls-1" d="M15.189,0A15.189,15.189,0,1,0,30.378,15.189,15.191,15.191,0,0,0,15.189,0Zm8.669,18.785a6.4,6.4,0,0,1-.405,2.117A4.46,4.46,0,0,1,20.9,23.453a6.4,6.4,0,0,1-2.117.405c-.93.042-1.227.053-3.6.053s-2.666-.01-3.6-.053a6.4,6.4,0,0,1-2.117-.405A4.46,4.46,0,0,1,6.925,20.9a6.4,6.4,0,0,1-.405-2.117c-.043-.93-.053-1.227-.053-3.6s.01-2.666.053-3.6a6.4,6.4,0,0,1,.405-2.117A4.463,4.463,0,0,1,9.476,6.925a6.4,6.4,0,0,1,2.117-.405c.93-.042,1.227-.053,3.6-.053s2.666.01,3.6.053a6.406,6.406,0,0,1,2.117.4,4.461,4.461,0,0,1,2.551,2.551,6.4,6.4,0,0,1,.406,2.117c.042.93.052,1.227.052,3.6S23.9,17.855,23.858,18.785Zm0,0"/>
</svg>
