<svg xmlns="http://www.w3.org/2000/svg" width="35" height="35" viewBox="0 0 35 35">
  <g id="js" transform="translate(0)">
    <path id="Trazado_216" data-name="Trazado 216" d="M973.686,201.809q-8.674,0-17.347,0c-.124,0-.153-.028-.153-.153q0-17.348,0-34.695c0-.125.028-.153.153-.153q17.348,0,34.695,0c.125,0,.153.028.153.153q0,17.347,0,34.695c0,.124-.028.153-.153.153Q982.36,201.807,973.686,201.809Zm9.239-2.769a7.423,7.423,0,0,0,2.337-.355,4.358,4.358,0,0,0,2.672-2.215,4.727,4.727,0,0,0,.421-2.409,4.238,4.238,0,0,0-1.472-3.087,9.862,9.862,0,0,0-2.423-1.458c-.693-.318-1.41-.583-2.089-.933a3.2,3.2,0,0,1-.814-.567,1.431,1.431,0,0,1,.528-2.324,2.021,2.021,0,0,1,2.144.442,3.009,3.009,0,0,1,.561.738c.046.081.081.1.163.043q1.178-.762,2.36-1.516c.071-.045.085-.079.04-.155a4.668,4.668,0,0,0-2.931-2.332,6.461,6.461,0,0,0-3.2-.008,4.167,4.167,0,0,0-3.271,4.093,4.414,4.414,0,0,0,1.2,3.277,6.667,6.667,0,0,0,1.776,1.268c.771.4,1.588.7,2.375,1.066a5.8,5.8,0,0,1,1.156.647,1.557,1.557,0,0,1,.557.747,1.475,1.475,0,0,1-.984,1.922,3.359,3.359,0,0,1-3.364-.54,4.2,4.2,0,0,1-.944-1.107c-.061-.1-.1-.126-.216-.06q-1.2.707-2.413,1.4c-.109.062-.117.108-.06.213a5.855,5.855,0,0,0,2,2.161A7.137,7.137,0,0,0,982.925,199.04Zm-7.76-10.182h.012c0-1.921,0-3.843,0-5.765,0-.164-.045-.2-.2-.2q-1.437.012-2.874,0c-.17,0-.206.044-.206.208q.008,5.416,0,10.832a4.646,4.646,0,0,1-.064.86,1.405,1.405,0,0,1-.744,1.131,2.038,2.038,0,0,1-2.383-.472,6.217,6.217,0,0,1-.606-.911c-.048-.086-.081-.118-.183-.056q-1.217.745-2.442,1.478c-.087.052-.11.095-.06.193a4.857,4.857,0,0,0,2.682,2.494,6.244,6.244,0,0,0,4.341.024,3.783,3.783,0,0,0,2.275-2.125,4.973,4.973,0,0,0,.44-1.98C975.175,192.668,975.164,190.763,975.164,188.857Z" transform="translate(-956.186 -166.812)" fill="#eae02a"/>
    <path id="Trazado_217" data-name="Trazado 217" d="M1058.339,256.821a7.242,7.242,0,0,1-3.961-1.07,5.943,5.943,0,0,1-2.025-2.193c-.058-.107-.05-.153.061-.217q1.229-.7,2.449-1.418c.114-.067.158-.039.219.061a4.262,4.262,0,0,0,.958,1.124,3.409,3.409,0,0,0,3.415.548,1.5,1.5,0,0,0,1-1.951,1.581,1.581,0,0,0-.565-.758,5.894,5.894,0,0,0-1.173-.657c-.8-.37-1.628-.675-2.411-1.082a6.767,6.767,0,0,1-1.8-1.287,4.481,4.481,0,0,1-1.215-3.326,4.229,4.229,0,0,1,3.32-4.154,6.557,6.557,0,0,1,3.252.009,4.737,4.737,0,0,1,2.975,2.367c.045.077.031.112-.041.158q-1.2.766-2.4,1.539c-.083.054-.119.038-.166-.044a3.051,3.051,0,0,0-.569-.749,2.051,2.051,0,0,0-2.177-.448,1.453,1.453,0,0,0-.536,2.359,3.247,3.247,0,0,0,.826.576c.689.355,1.417.625,2.12.947a10.012,10.012,0,0,1,2.459,1.48,4.3,4.3,0,0,1,1.494,3.133,4.8,4.8,0,0,1-.427,2.445,4.424,4.424,0,0,1-2.712,2.249A7.526,7.526,0,0,1,1058.339,256.821Z" transform="translate(-1031.724 -224.635)" fill="#323330"/>
    <path id="Trazado_218" data-name="Trazado 218" d="M1008.65,247.174c0,1.934.011,3.867-.006,5.8a5.052,5.052,0,0,1-.446,2.01,3.841,3.841,0,0,1-2.31,2.157,6.337,6.337,0,0,1-4.406-.024,4.929,4.929,0,0,1-2.722-2.532c-.05-.1-.027-.143.061-.2q1.242-.745,2.479-1.5c.1-.063.137-.031.185.056a6.328,6.328,0,0,0,.615.924,2.068,2.068,0,0,0,2.419.479,1.426,1.426,0,0,0,.755-1.148,4.716,4.716,0,0,0,.065-.873q0-5.5,0-10.995c0-.167.037-.213.209-.212q1.458.014,2.917,0c.159,0,.206.034.2.2-.006,1.95,0,3.9,0,5.851Z" transform="translate(-989.579 -225.323)" fill="#323330"/>
  </g>
</svg>
