<svg xmlns="http://www.w3.org/2000/svg" width="30.362" height="30.362" viewBox="0 0 30.362 30.362">
  <defs>
    <style>
      .cls-1 {
        fill: #3f3f3f;
      }
    </style>
  </defs>
  <path id="linkedin" class="cls-1" d="M15.181,0A15.181,15.181,0,1,0,30.362,15.181,15.182,15.182,0,0,0,15.181,0ZM10.769,22.949h-3.7V11.826h3.7ZM8.921,10.307H8.9a1.927,1.927,0,1,1,.049-3.843,1.928,1.928,0,1,1-.025,3.843ZM24.1,22.949H20.4V17c0-1.5-.535-2.515-1.873-2.515a2.024,2.024,0,0,0-1.9,1.352,2.532,2.532,0,0,0-.122.9v6.212h-3.7s.048-10.08,0-11.123h3.7V13.4a3.67,3.67,0,0,1,3.332-1.836c2.432,0,4.256,1.59,4.256,5.006Zm0,0"/>
</svg>
