<svg xmlns="http://www.w3.org/2000/svg" width="172.55" height="133.669" viewBox="0 0 172.55 133.669">
  <defs>
    <style>
      .cls-1 {
        fill: #fff;
      }
    </style>
  </defs>
  <g id="logo_footer_mono" transform="translate(-186 -149)">
    <g id="Grupo_96" data-name="Grupo 96" transform="translate(186 149)">
      <g id="Grupo_95" data-name="Grupo 95">
        <g id="Grupo_94" data-name="Grupo 94">
          <g id="Grupo_93" data-name="Grupo 93">
            <g id="Grupo_90" data-name="Grupo 90">
              <path id="Trazado_113" data-name="Trazado 113" class="cls-1" d="M476.441,246.566a1.611,1.611,0,0,1,0-2.215,1.5,1.5,0,0,1,1.116-.449,1.477,1.477,0,0,1,1.1.449,1.608,1.608,0,0,1,0,2.215,1.474,1.474,0,0,1-1.1.45A1.5,1.5,0,0,1,476.441,246.566Z" transform="translate(-476 -235.458)"/>
              <path id="Trazado_114" data-name="Trazado 114" class="cls-1" d="M490.221,234.967a5.482,5.482,0,0,1-1.806-.779,1.393,1.393,0,0,1-.393-.433,1.211,1.211,0,0,1-.12-.578,1.278,1.278,0,0,1,.288-.835.854.854,0,0,1,.674-.353,1.266,1.266,0,0,1,.4.064,2.509,2.509,0,0,1,.481.241,5.257,5.257,0,0,0,1.309.53,6.13,6.13,0,0,0,1.469.16,2.929,2.929,0,0,0,1.436-.281.9.9,0,0,0,.49-.826.754.754,0,0,0-.457-.634,6.484,6.484,0,0,0-1.742-.522,10.139,10.139,0,0,1-2.488-.8,2.941,2.941,0,0,1-1.26-1.1,3.044,3.044,0,0,1-.362-1.533,3.087,3.087,0,0,1,.61-1.862,4.072,4.072,0,0,1,1.678-1.308,5.856,5.856,0,0,1,2.4-.473,7.734,7.734,0,0,1,2.087.257,5.245,5.245,0,0,1,1.67.8,1.312,1.312,0,0,1,.409.441,1.229,1.229,0,0,1,.12.57,1.3,1.3,0,0,1-.281.835.829.829,0,0,1-.666.353,1.264,1.264,0,0,1-.385-.056,2.594,2.594,0,0,1-.5-.249q-.08-.048-.458-.249a3.68,3.68,0,0,0-.883-.321,4.731,4.731,0,0,0-1.1-.12,2.444,2.444,0,0,0-1.316.313.943.943,0,0,0-.5.826.71.71,0,0,0,.176.5,1.776,1.776,0,0,0,.659.377,9.632,9.632,0,0,0,1.428.378,9.555,9.555,0,0,1,2.424.81,3.094,3.094,0,0,1,1.252,1.1,2.853,2.853,0,0,1,.37,1.477,3.088,3.088,0,0,1-.594,1.87,3.8,3.8,0,0,1-1.662,1.252,6.448,6.448,0,0,1-2.48.442A9.626,9.626,0,0,1,490.221,234.967Z" transform="translate(-482.941 -223.643)"/>
              <path id="Trazado_115" data-name="Trazado 115" class="cls-1" d="M517.67,234.534a4.867,4.867,0,0,1-1.967-2.022,7.191,7.191,0,0,1,0-6.148,4.821,4.821,0,0,1,1.967-2.014,6.769,6.769,0,0,1,6.02,0,4.769,4.769,0,0,1,1.958,2.014,6.564,6.564,0,0,1,.683,3.074,6.5,6.5,0,0,1-.691,3.074,4.869,4.869,0,0,1-1.966,2.022,6.661,6.661,0,0,1-6,0Zm5.016-2.456a4.164,4.164,0,0,0,.723-2.641,4.1,4.1,0,0,0-.73-2.632,2.688,2.688,0,0,0-4.005-.008,5.2,5.2,0,0,0,0,5.289,2.681,2.681,0,0,0,4.013-.008Z" transform="translate(-498.753 -223.643)"/>
              <path id="Trazado_116" data-name="Trazado 116" class="cls-1" d="M552.635,223.758a1.348,1.348,0,0,1,.957.409,1.272,1.272,0,0,1,.425.939,1.35,1.35,0,0,1-.353.883l-3.372,3.9v3.917a1.4,1.4,0,0,1-.409,1.083,1.489,1.489,0,0,1-1.051.378,1.541,1.541,0,0,1-1.075-.378,1.384,1.384,0,0,1-.418-1.083V229.89l-3.339-3.9a1.335,1.335,0,0,1-.368-.9,1.252,1.252,0,0,1,.417-.932,1.331,1.331,0,0,1,.947-.4,1.263,1.263,0,0,1,.98.481l2.84,3.371,2.842-3.371A1.258,1.258,0,0,1,552.635,223.758Z" transform="translate(-515.443 -223.71)"/>
            </g>
            <g id="Grupo_91" data-name="Grupo 91" transform="translate(0 19.263)">
              <path id="Trazado_117" data-name="Trazado 117" class="cls-1" d="M476,280.319a1.137,1.137,0,0,1,.273-.835,1.29,1.29,0,0,1,.867-.3l.546-.032a.942.942,0,0,0,.731-.313,1.22,1.22,0,0,0,.249-.811v-6.565a1.4,1.4,0,0,1,.4-1.052,1.677,1.677,0,0,1,2.159,0,1.392,1.392,0,0,1,.409,1.052v6.517a3.49,3.49,0,0,1-.843,2.5,3.658,3.658,0,0,1-2.512,1l-.514.032Q476,281.587,476,280.319Z" transform="translate(-476 -269.949)"/>
              <path id="Trazado_118" data-name="Trazado 118" class="cls-1" d="M496.725,280.3a4.9,4.9,0,0,1-1.276-3.66v-5.185a1.446,1.446,0,1,1,2.889,0v5.3a2.868,2.868,0,0,0,.546,1.878,2.209,2.209,0,0,0,3.146,0,2.868,2.868,0,0,0,.546-1.878v-5.3a1.353,1.353,0,0,1,1.445-1.445,1.449,1.449,0,0,1,1.059.393,1.405,1.405,0,0,1,.4,1.052v5.185a4.872,4.872,0,0,1-1.292,3.652,6.17,6.17,0,0,1-7.464.008Z" transform="translate(-487.343 -269.949)"/>
              <path id="Trazado_119" data-name="Trazado 119" class="cls-1" d="M535.071,280.168a1.149,1.149,0,0,1-.425.9,1.444,1.444,0,0,1-.972.369,1.236,1.236,0,0,1-.674-.193,1.3,1.3,0,0,1-.481-.578l-.723-1.621h-5.2l-.738,1.621a1.255,1.255,0,0,1-1.171.77,1.5,1.5,0,0,1-.987-.369,1.131,1.131,0,0,1-.441-.9,1.383,1.383,0,0,1,.144-.594l4.238-8.7a1.493,1.493,0,0,1,.618-.666,1.869,1.869,0,0,1,1.806,0,1.48,1.48,0,0,1,.626.666l4.238,8.7A1.4,1.4,0,0,1,535.071,280.168Zm-7.48-3.339h3.21L529.2,273.25Z" transform="translate(-503.561 -269.927)"/>
              <path id="Trazado_120" data-name="Trazado 120" class="cls-1" d="M565.428,270.414a1.429,1.429,0,0,1,.393,1.044v8.588a1.465,1.465,0,0,1-.385,1.059,1.321,1.321,0,0,1-1,.4,1.291,1.291,0,0,1-1.091-.482l-4.879-6.084v5.1a1.5,1.5,0,0,1-.37,1.059,1.286,1.286,0,0,1-1,.4,1.32,1.32,0,0,1-1-.4,1.467,1.467,0,0,1-.385-1.059v-8.588a1.446,1.446,0,0,1,.385-1.044,1.321,1.321,0,0,1,1-.4,1.3,1.3,0,0,1,1.075.482l4.88,6.068v-5.1a1.455,1.455,0,0,1,.378-1.052,1.305,1.305,0,0,1,.988-.393A1.349,1.349,0,0,1,565.428,270.414Z" transform="translate(-522.496 -269.949)"/>
              <path id="Trazado_121" data-name="Trazado 121" class="cls-1" d="M582.877,280.319a1.136,1.136,0,0,1,.273-.835,1.29,1.29,0,0,1,.867-.3l.546-.032a.942.942,0,0,0,.731-.313,1.224,1.224,0,0,0,.248-.811v-6.565a1.407,1.407,0,0,1,.4-1.052,1.492,1.492,0,0,1,1.092-.393,1.477,1.477,0,0,1,1.067.393,1.391,1.391,0,0,1,.409,1.052v6.517a3.486,3.486,0,0,1-.844,2.5,3.654,3.654,0,0,1-2.511,1l-.514.032Q582.876,281.587,582.877,280.319Z" transform="translate(-538.332 -269.949)"/>
              <path id="Trazado_122" data-name="Trazado 122" class="cls-1" d="M604.441,280.751a4.869,4.869,0,0,1-1.966-2.022,7.187,7.187,0,0,1,0-6.148,4.825,4.825,0,0,1,1.966-2.014,6.768,6.768,0,0,1,6.02,0,4.772,4.772,0,0,1,1.958,2.014,6.565,6.565,0,0,1,.683,3.074,6.5,6.5,0,0,1-.691,3.074,4.873,4.873,0,0,1-1.966,2.022,6.662,6.662,0,0,1-6,0Zm5.016-2.456a4.164,4.164,0,0,0,.723-2.641,4.1,4.1,0,0,0-.731-2.632,2.688,2.688,0,0,0-4-.008,5.2,5.2,0,0,0,0,5.289,2.681,2.681,0,0,0,4.013-.008Z" transform="translate(-549.359 -269.86)"/>
            </g>
            <g id="Grupo_92" data-name="Grupo 92" transform="translate(0 35.09)">
              <path id="Trazado_123" data-name="Trazado 123" class="cls-1" d="M486.008,316.624a1.42,1.42,0,0,1,.393,1.052v8.588a1.446,1.446,0,0,1-.393,1.059,1.589,1.589,0,0,1-2.1.008,1.441,1.441,0,0,1-.393-1.067v-3.211H478.89v3.211a1.45,1.45,0,0,1-.393,1.059,1.59,1.59,0,0,1-2.1.008,1.441,1.441,0,0,1-.393-1.067v-8.588a1.446,1.446,0,1,1,2.89,0v3.034h4.623v-3.034a1.488,1.488,0,0,1,2.5-1.052Z" transform="translate(-476 -312.731)"/>
              <path id="Trazado_124" data-name="Trazado 124" class="cls-1" d="M507.4,327.387a1.371,1.371,0,0,1-.353-1.012v-8.588a1.232,1.232,0,0,1,1.364-1.365h5.554a1.619,1.619,0,0,1,1.044.289,1.018,1.018,0,0,1,.353.835q0,1.155-1.4,1.156h-4.044v2.151h3.724q1.4,0,1.4,1.139a1.017,1.017,0,0,1-.353.835,1.616,1.616,0,0,1-1.043.289h-3.724v2.344h4.044q1.4,0,1.4,1.156a1.018,1.018,0,0,1-.353.835,1.621,1.621,0,0,1-1.044.289h-5.554A1.367,1.367,0,0,1,507.4,327.387Z" transform="translate(-494.105 -312.843)"/>
              <path id="Trazado_125" data-name="Trazado 125" class="cls-1" d="M541,326.681a1.065,1.065,0,0,1-.426.859,1.575,1.575,0,0,1-1.71.169,1.6,1.6,0,0,1-.579-.53l-2.086-3.05a1.664,1.664,0,0,0-.474-.473,1.1,1.1,0,0,0-.586-.153h-1.043v2.873a1.458,1.458,0,0,1-.385,1.067,1.414,1.414,0,0,1-1.06.393,1.358,1.358,0,0,1-1.461-1.461v-8.588a1.233,1.233,0,0,1,1.365-1.365h4.029a4.631,4.631,0,0,1,3.09.891,3.216,3.216,0,0,1,1.035,2.577,3.4,3.4,0,0,1-.706,2.175,3.468,3.468,0,0,1-1.991,1.2,2.17,2.17,0,0,1,.923.353,3.3,3.3,0,0,1,.779.819l1,1.429A1.5,1.5,0,0,1,541,326.681Zm-3.476-5.7a1.141,1.141,0,0,0,.425-1,1.184,1.184,0,0,0-.425-1.019,2.426,2.426,0,0,0-1.4-.313h-2.055v2.632h2.055A2.473,2.473,0,0,0,537.522,320.982Z" transform="translate(-508.187 -312.843)"/>
              <path id="Trazado_126" data-name="Trazado 126" class="cls-1" d="M569.278,316.631a1.43,1.43,0,0,1,.393,1.044v8.588a1.463,1.463,0,0,1-.386,1.059,1.318,1.318,0,0,1-1,.4,1.289,1.289,0,0,1-1.091-.482l-4.88-6.084v5.1a1.507,1.507,0,0,1-.369,1.059,1.288,1.288,0,0,1-1,.4,1.319,1.319,0,0,1-1-.4,1.467,1.467,0,0,1-.385-1.059v-8.588a1.447,1.447,0,0,1,.385-1.044,1.32,1.32,0,0,1,1-.4,1.3,1.3,0,0,1,1.076.482l4.88,6.068v-5.1a1.458,1.458,0,0,1,.377-1.052,1.306,1.306,0,0,1,.987-.393A1.348,1.348,0,0,1,569.278,316.631Z" transform="translate(-524.742 -312.731)"/>
              <path id="Trazado_127" data-name="Trazado 127" class="cls-1" d="M599.7,321.511a1.15,1.15,0,0,1-.426.9,1.442,1.442,0,0,1-.971.369,1.236,1.236,0,0,1-.674-.193,1.3,1.3,0,0,1-.482-.578l-.722-1.621h-5.2l-.738,1.621a1.254,1.254,0,0,1-1.172.77,1.5,1.5,0,0,1-.987-.369,1.132,1.132,0,0,1-.442-.9,1.394,1.394,0,0,1,.144-.594l4.239-8.7a1.491,1.491,0,0,1,.618-.666,1.869,1.869,0,0,1,1.806,0,1.485,1.485,0,0,1,.626.666l4.238,8.7A1.383,1.383,0,0,1,599.7,321.511Zm-7.481-3.339h3.211l-1.605-3.579Zm1.557-7.641a.663.663,0,0,1-.466-.177.547.547,0,0,1-.193-.417.7.7,0,0,1,.241-.482l1.3-1.22a1.25,1.25,0,0,1,.866-.4.962.962,0,0,1,.715.305.985.985,0,0,1,.3.706,1.044,1.044,0,0,1-.722.947l-1.718.674A.783.783,0,0,1,593.772,310.531Z" transform="translate(-541.251 -307.834)"/>
              <path id="Trazado_128" data-name="Trazado 128" class="cls-1" d="M630.052,316.631a1.426,1.426,0,0,1,.393,1.044v8.588a1.463,1.463,0,0,1-.385,1.059,1.318,1.318,0,0,1-.995.4,1.291,1.291,0,0,1-1.092-.482l-4.879-6.084v5.1a1.5,1.5,0,0,1-.369,1.059,1.286,1.286,0,0,1-1,.4,1.319,1.319,0,0,1-1-.4,1.464,1.464,0,0,1-.386-1.059v-8.588a1.444,1.444,0,0,1,.386-1.044,1.32,1.32,0,0,1,1-.4,1.3,1.3,0,0,1,1.075.482l4.88,6.068v-5.1a1.452,1.452,0,0,1,.378-1.052,1.3,1.3,0,0,1,.987-.393A1.346,1.346,0,0,1,630.052,316.631Z" transform="translate(-560.186 -312.731)"/>
              <path id="Trazado_129" data-name="Trazado 129" class="cls-1" d="M651.012,327.387a1.367,1.367,0,0,1-.353-1.012v-8.588a1.233,1.233,0,0,1,1.365-1.365h3.242a7.119,7.119,0,0,1,3.234.682,4.83,4.83,0,0,1,2.079,1.951,5.99,5.99,0,0,1,.722,3.018,6.141,6.141,0,0,1-.714,3.042,4.71,4.71,0,0,1-2.071,1.95,7.229,7.229,0,0,1-3.25.674h-3.242A1.367,1.367,0,0,1,651.012,327.387Zm6.525-2.834a4.123,4.123,0,0,0,0-4.952,3.433,3.433,0,0,0-2.48-.8h-1.445v6.566h1.445A3.409,3.409,0,0,0,657.538,324.553Z" transform="translate(-577.864 -312.843)"/>
              <path id="Trazado_130" data-name="Trazado 130" class="cls-1" d="M681.94,327.387a1.37,1.37,0,0,1-.353-1.012v-8.588a1.232,1.232,0,0,1,1.364-1.365H688.5a1.619,1.619,0,0,1,1.044.289,1.018,1.018,0,0,1,.353.835q0,1.155-1.4,1.156H684.46v2.151h3.724q1.4,0,1.4,1.139a1.017,1.017,0,0,1-.353.835,1.616,1.616,0,0,1-1.044.289H684.46v2.344H688.5q1.4,0,1.4,1.156a1.018,1.018,0,0,1-.353.835,1.621,1.621,0,0,1-1.044.289h-5.554A1.367,1.367,0,0,1,681.94,327.387Z" transform="translate(-595.901 -312.843)"/>
              <path id="Trazado_131" data-name="Trazado 131" class="cls-1" d="M716.135,325.7a1.04,1.04,0,0,1,.345.867,1.1,1.1,0,0,1-.337.891,1.641,1.641,0,0,1-1.06.281h-6.421a1.253,1.253,0,0,1-.939-.353,1.211,1.211,0,0,1-.345-.883,1.769,1.769,0,0,1,.369-1.043l4.943-6.726h-3.884a1.677,1.677,0,0,1-1.067-.28,1.045,1.045,0,0,1-.345-.859,1.084,1.084,0,0,1,.345-.891,1.679,1.679,0,0,1,1.067-.281h6.165a1.247,1.247,0,0,1,.922.345,1.185,1.185,0,0,1,.346.875,1.8,1.8,0,0,1-.369,1.06l-4.944,6.726h4.157A1.684,1.684,0,0,1,716.135,325.7Z" transform="translate(-610.943 -312.843)"/>
              <path id="Trazado_132" data-name="Trazado 132" class="cls-1" d="M746.266,328.783a.96.96,0,0,1,.313.786.984.984,0,0,1-.313.795,1.1,1.1,0,0,1-.731.265H744.2a2.339,2.339,0,0,1-1.717-.618,2.293,2.293,0,0,1-.627-1.71v-2.456a1.552,1.552,0,0,0-.2-.9.931.931,0,0,0-.7-.321,1.072,1.072,0,0,1-.771-.321,1.144,1.144,0,0,1-.257-.786,1.065,1.065,0,0,1,.257-.746,1.145,1.145,0,0,1,.771-.329.929.929,0,0,0,.7-.321,1.551,1.551,0,0,0,.2-.9V318.75a2.291,2.291,0,0,1,.627-1.709,2.339,2.339,0,0,1,1.717-.618h1.332a1.1,1.1,0,0,1,.731.265.983.983,0,0,1,.313.795.959.959,0,0,1-.313.786,1.118,1.118,0,0,1-.731.257h-.24a.68.68,0,0,0-.482.152.728.728,0,0,0-.16.538v2.36a2.03,2.03,0,0,1-.426,1.284,1.742,1.742,0,0,1-.971.674,1.746,1.746,0,0,1,.971.674,2.03,2.03,0,0,1,.426,1.284v2.344a.727.727,0,0,0,.16.538.678.678,0,0,0,.482.153h.24A1.118,1.118,0,0,1,746.266,328.783Z" transform="translate(-629.929 -312.843)"/>
            </g>
          </g>
        </g>
        <rect id="Rectángulo_27" data-name="Rectángulo 27" class="cls-1" width="8.026" height="1.621" transform="translate(119.619 54.875)"/>
      </g>
      <path id="Trazado_133" data-name="Trazado 133" class="cls-1" d="M579.641,361.8a2.657,2.657,0,0,1-2.655-2.654V291.519a2.654,2.654,0,0,1,5.309,0v64.975H702.138V236.651H583.777a2.654,2.654,0,0,1,0-5.308H704.792A2.657,2.657,0,0,1,707.446,234V359.149a2.657,2.657,0,0,1-2.654,2.654Z" transform="translate(-534.896 -228.134)"/>
    </g>
  </g>
</svg>
