<svg xmlns="http://www.w3.org/2000/svg" xmlns:xlink="http://www.w3.org/1999/xlink" width="112.802" height="47.146" viewBox="0 0 112.802 47.146">
  <defs>
    <linearGradient id="linear-gradient" x1="0.134" y1="-0.163" x2="0.882" y2="1.191" gradientUnits="objectBoundingBox">
      <stop offset="0" stop-color="#0043d4"/>
      <stop offset="0.127" stop-color="#004fd7"/>
      <stop offset="0.36" stop-color="#0070e0"/>
      <stop offset="0.674" stop-color="#00a6ee"/>
      <stop offset="1" stop-color="#00e6ff"/>
    </linearGradient>
  </defs>
  <g id="nav_logo_color" transform="translate(-622.594 -292.174)">
    <g id="Grupo_266" data-name="Grupo 266" transform="translate(622.594 302.667)">
      <g id="Grupo_265" data-name="Grupo 265">
        <g id="Grupo_264" data-name="Grupo 264">
          <g id="Grupo_261" data-name="Grupo 261" transform="translate(0 0.021)">
            <path id="Trazado_278" data-name="Trazado 278" d="M622.882,335.966a1.054,1.054,0,0,1,0-1.448.981.981,0,0,1,.73-.294.966.966,0,0,1,.718.294,1.053,1.053,0,0,1,0,1.448.965.965,0,0,1-.718.294A.98.98,0,0,1,622.882,335.966Z" transform="translate(-622.594 -328.705)" fill="#3f3f3f"/>
            <path id="Trazado_279" data-name="Trazado 279" d="M632.614,327.152a3.584,3.584,0,0,1-1.18-.509.906.906,0,0,1-.257-.283.79.79,0,0,1-.079-.378.835.835,0,0,1,.188-.546.558.558,0,0,1,.441-.231.826.826,0,0,1,.262.042,1.635,1.635,0,0,1,.315.157,3.423,3.423,0,0,0,.856.346,4,4,0,0,0,.96.1,1.917,1.917,0,0,0,.939-.184.587.587,0,0,0,.32-.54.493.493,0,0,0-.3-.415,4.247,4.247,0,0,0-1.138-.341,6.639,6.639,0,0,1-1.627-.525,1.919,1.919,0,0,1-.823-.719,1.988,1.988,0,0,1-.237-1,2.017,2.017,0,0,1,.4-1.217,2.658,2.658,0,0,1,1.1-.855,3.828,3.828,0,0,1,1.568-.31,5.051,5.051,0,0,1,1.365.168,3.427,3.427,0,0,1,1.091.524.858.858,0,0,1,.267.289.8.8,0,0,1,.079.372.85.85,0,0,1-.184.546.542.542,0,0,1-.435.231.817.817,0,0,1-.252-.037,1.675,1.675,0,0,1-.325-.163c-.035-.021-.135-.075-.3-.162a2.412,2.412,0,0,0-.577-.21,3.094,3.094,0,0,0-.719-.079,1.6,1.6,0,0,0-.86.2.616.616,0,0,0-.326.54.462.462,0,0,0,.116.325,1.156,1.156,0,0,0,.43.247,6.336,6.336,0,0,0,.934.247,6.253,6.253,0,0,1,1.585.53,2.027,2.027,0,0,1,.818.719,1.87,1.87,0,0,1,.242.965,2.018,2.018,0,0,1-.388,1.222,2.483,2.483,0,0,1-1.086.818,4.209,4.209,0,0,1-1.621.289A6.306,6.306,0,0,1,632.614,327.152Z" transform="translate(-627.856 -319.749)" fill="#3f3f3f"/>
            <path id="Trazado_280" data-name="Trazado 280" d="M652.206,326.868a3.182,3.182,0,0,1-1.285-1.322,4.7,4.7,0,0,1,0-4.019,3.153,3.153,0,0,1,1.285-1.317,4.421,4.421,0,0,1,3.934,0,3.119,3.119,0,0,1,1.28,1.317,4.3,4.3,0,0,1,.446,2.009,4.25,4.25,0,0,1-.451,2.009,3.188,3.188,0,0,1-1.285,1.322,4.356,4.356,0,0,1-3.925,0Zm3.279-1.606a2.72,2.72,0,0,0,.472-1.726,2.676,2.676,0,0,0-.477-1.72,1.757,1.757,0,0,0-2.618-.006,3.4,3.4,0,0,0,0,3.457,1.752,1.752,0,0,0,2.623-.005Z" transform="translate(-639.841 -319.749)" fill="#3f3f3f"/>
            <path id="Trazado_281" data-name="Trazado 281" d="M676.8,319.831a.881.881,0,0,1,.625.268.831.831,0,0,1,.278.614.882.882,0,0,1-.231.577l-2.2,2.55v2.56a.915.915,0,0,1-.268.708.973.973,0,0,1-.687.247,1.007,1.007,0,0,1-.7-.247.905.905,0,0,1-.273-.708v-2.56l-2.182-2.55a.872.872,0,0,1-.241-.588.819.819,0,0,1,.273-.609.87.87,0,0,1,.619-.262.827.827,0,0,1,.641.315l1.857,2.2,1.858-2.2A.822.822,0,0,1,676.8,319.831Z" transform="translate(-652.492 -319.8)" fill="#3f3f3f"/>
          </g>
          <g id="Grupo_262" data-name="Grupo 262" transform="translate(28.097)">
            <path id="Trazado_282" data-name="Trazado 282" d="M696.286,326.54a.741.741,0,0,1,.179-.546.841.841,0,0,1,.566-.2l.357-.021a.615.615,0,0,0,.477-.2.8.8,0,0,0,.163-.53v-4.291a.916.916,0,0,1,.262-.687,1.1,1.1,0,0,1,1.411,0,.908.908,0,0,1,.268.687v4.26a2.281,2.281,0,0,1-.551,1.631,2.389,2.389,0,0,1-1.642.656l-.336.021Q696.286,327.369,696.286,326.54Z" transform="translate(-696.286 -319.762)" fill="#3f3f3f"/>
            <path id="Trazado_283" data-name="Trazado 283" d="M711.017,326.53a3.2,3.2,0,0,1-.834-2.392v-3.389a.945.945,0,1,1,1.888,0v3.463a1.874,1.874,0,0,0,.357,1.227,1.444,1.444,0,0,0,2.056,0,1.874,1.874,0,0,0,.357-1.227v-3.463a.885.885,0,0,1,.944-.944.947.947,0,0,1,.693.257.919.919,0,0,1,.262.687v3.389a3.183,3.183,0,0,1-.845,2.387,4.033,4.033,0,0,1-4.879.005Z" transform="translate(-704.884 -319.762)" fill="#3f3f3f"/>
            <path id="Trazado_284" data-name="Trazado 284" d="M737.774,326.44a.751.751,0,0,1-.278.588.943.943,0,0,1-.635.241.811.811,0,0,1-.441-.126.848.848,0,0,1-.315-.378l-.472-1.06h-3.4l-.483,1.06a.821.821,0,0,1-.766.5.981.981,0,0,1-.646-.241.739.739,0,0,1-.288-.588.9.9,0,0,1,.094-.388l2.77-5.687a.976.976,0,0,1,.4-.435,1.221,1.221,0,0,1,1.18,0,.967.967,0,0,1,.409.435l2.77,5.687A.908.908,0,0,1,737.774,326.44Zm-4.89-2.182h2.1l-1.049-2.34Z" transform="translate(-717.178 -319.746)" fill="#3f3f3f"/>
            <path id="Trazado_285" data-name="Trazado 285" d="M759.592,320.066a.936.936,0,0,1,.257.682v5.614a.956.956,0,0,1-.252.692.862.862,0,0,1-.65.262.843.843,0,0,1-.714-.315l-3.189-3.976v3.337a.982.982,0,0,1-.242.692.84.84,0,0,1-.65.262.863.863,0,0,1-.651-.262.96.96,0,0,1-.252-.692v-5.614a.947.947,0,0,1,.252-.682.864.864,0,0,1,.651-.262.848.848,0,0,1,.7.315l3.19,3.966v-3.337a.949.949,0,0,1,.247-.687.852.852,0,0,1,.646-.257A.882.882,0,0,1,759.592,320.066Z" transform="translate(-731.53 -319.762)" fill="#3f3f3f"/>
            <path id="Trazado_286" data-name="Trazado 286" d="M772.651,326.54a.741.741,0,0,1,.178-.546.841.841,0,0,1,.567-.2l.356-.021a.615.615,0,0,0,.477-.2.8.8,0,0,0,.162-.53v-4.291a.919.919,0,0,1,.262-.687,1.1,1.1,0,0,1,1.412,0,.908.908,0,0,1,.267.687v4.26a2.278,2.278,0,0,1-.551,1.631,2.388,2.388,0,0,1-1.642.656l-.336.021Q772.651,327.369,772.651,326.54Z" transform="translate(-743.535 -319.762)" fill="#3f3f3f"/>
            <path id="Trazado_287" data-name="Trazado 287" d="M787.9,326.814a3.184,3.184,0,0,1-1.286-1.322,4.7,4.7,0,0,1,0-4.019,3.154,3.154,0,0,1,1.286-1.317,4.424,4.424,0,0,1,3.934,0,3.122,3.122,0,0,1,1.28,1.317,4.292,4.292,0,0,1,.446,2.009,4.247,4.247,0,0,1-.451,2.009,3.185,3.185,0,0,1-1.285,1.322,4.355,4.355,0,0,1-3.924,0Zm3.279-1.605a2.722,2.722,0,0,0,.472-1.726,2.678,2.678,0,0,0-.477-1.721,1.758,1.758,0,0,0-2.618-.005,3.4,3.4,0,0,0,0,3.457,1.753,1.753,0,0,0,2.623-.005Z" transform="translate(-751.893 -319.695)" fill="#3f3f3f"/>
          </g>
          <g id="Grupo_263" data-name="Grupo 263" transform="translate(0.016 10.345)">
            <path id="Trazado_288" data-name="Trazado 288" d="M629.179,353.084a.928.928,0,0,1,.257.687v5.613a.945.945,0,0,1-.257.693,1.038,1.038,0,0,1-1.374,0,.942.942,0,0,1-.257-.7v-2.1h-3.022v2.1a.949.949,0,0,1-.257.693,1.039,1.039,0,0,1-1.375,0,.941.941,0,0,1-.257-.7v-5.613a.945.945,0,1,1,1.889,0v1.983h3.022v-1.983a.973.973,0,0,1,1.631-.687Z" transform="translate(-622.637 -350.54)" fill="#3f3f3f"/>
            <path id="Trazado_289" data-name="Trazado 289" d="M645.048,360.131a.9.9,0,0,1-.231-.661v-5.613a.805.805,0,0,1,.891-.892h3.63a1.059,1.059,0,0,1,.683.189.665.665,0,0,1,.23.546q0,.756-.913.756H646.7v1.406h2.434q.913,0,.913.745a.665.665,0,0,1-.231.546,1.058,1.058,0,0,1-.682.189H646.7v1.532h2.644q.913,0,.913.755a.665.665,0,0,1-.23.546,1.059,1.059,0,0,1-.683.189h-3.63A.893.893,0,0,1,645.048,360.131Z" transform="translate(-636.36 -350.625)" fill="#3f3f3f"/>
            <path id="Trazado_290" data-name="Trazado 290" d="M668.481,359.67a.7.7,0,0,1-.278.561,1.031,1.031,0,0,1-1.118.11,1.044,1.044,0,0,1-.378-.346L665.344,358a1.087,1.087,0,0,0-.309-.31.72.72,0,0,0-.383-.1h-.682v1.878a.954.954,0,0,1-.251.7.925.925,0,0,1-.693.257.888.888,0,0,1-.955-.955v-5.613a.806.806,0,0,1,.892-.892H665.6a3.027,3.027,0,0,1,2.02.582,2.1,2.1,0,0,1,.677,1.684,2.22,2.22,0,0,1-.462,1.422,2.266,2.266,0,0,1-1.3.782,1.416,1.416,0,0,1,.6.231,2.149,2.149,0,0,1,.509.535l.651.934A.978.978,0,0,1,668.481,359.67Zm-2.272-3.725a.746.746,0,0,0,.278-.65.774.774,0,0,0-.278-.667,1.585,1.585,0,0,0-.918-.2h-1.344v1.721h1.344A1.615,1.615,0,0,0,666.21,355.945Z" transform="translate(-647.035 -350.625)" fill="#3f3f3f"/>
            <path id="Trazado_291" data-name="Trazado 291" d="M688.695,353.089a.934.934,0,0,1,.257.682v5.613a.957.957,0,0,1-.252.693.861.861,0,0,1-.651.262.842.842,0,0,1-.713-.315l-3.19-3.977v3.337a.986.986,0,0,1-.241.693.841.841,0,0,1-.651.262.862.862,0,0,1-.651-.262.958.958,0,0,1-.252-.693v-5.613a.944.944,0,0,1,.252-.682.863.863,0,0,1,.651-.262.848.848,0,0,1,.7.315l3.19,3.966v-3.337a.953.953,0,0,1,.246-.687.855.855,0,0,1,.646-.257A.881.881,0,0,1,688.695,353.089Z" transform="translate(-659.584 -350.54)" fill="#3f3f3f"/>
            <path id="Trazado_292" data-name="Trazado 292" d="M710.3,355.767a.752.752,0,0,1-.278.588.943.943,0,0,1-.635.241.809.809,0,0,1-.441-.126.853.853,0,0,1-.315-.378l-.472-1.06h-3.4l-.483,1.06a.819.819,0,0,1-.766.5.979.979,0,0,1-.645-.241.74.74,0,0,1-.289-.588.911.911,0,0,1,.095-.388l2.77-5.687a.973.973,0,0,1,.4-.436,1.221,1.221,0,0,1,1.18,0,.969.969,0,0,1,.409.436l2.77,5.687A.9.9,0,0,1,710.3,355.767Zm-4.89-2.182h2.1l-1.049-2.34Zm1.018-4.994a.435.435,0,0,1-.3-.115A.359.359,0,0,1,706,348.2a.454.454,0,0,1,.158-.315l.85-.8a.817.817,0,0,1,.566-.262.628.628,0,0,1,.467.2.642.642,0,0,1,.194.462.682.682,0,0,1-.472.619l-1.123.441A.511.511,0,0,1,706.428,348.591Z" transform="translate(-672.098 -346.828)" fill="#3f3f3f"/>
            <path id="Trazado_293" data-name="Trazado 293" d="M732.118,353.089a.932.932,0,0,1,.257.682v5.613a.958.958,0,0,1-.251.693.861.861,0,0,1-.65.262.845.845,0,0,1-.714-.315l-3.189-3.977v3.337a.982.982,0,0,1-.241.693.841.841,0,0,1-.65.262.862.862,0,0,1-.651-.262.957.957,0,0,1-.252-.693v-5.613a.943.943,0,0,1,.252-.682.863.863,0,0,1,.651-.262.849.849,0,0,1,.7.315l3.19,3.966v-3.337a.949.949,0,0,1,.247-.687.852.852,0,0,1,.645-.257A.879.879,0,0,1,732.118,353.089Z" transform="translate(-686.451 -350.54)" fill="#3f3f3f"/>
            <path id="Trazado_294" data-name="Trazado 294" d="M747.664,360.131a.892.892,0,0,1-.231-.661v-5.613a.806.806,0,0,1,.892-.892h2.12a4.656,4.656,0,0,1,2.114.446,3.158,3.158,0,0,1,1.359,1.275,3.918,3.918,0,0,1,.472,1.972,4.009,4.009,0,0,1-.467,1.988,3.078,3.078,0,0,1-1.354,1.275,4.723,4.723,0,0,1-2.124.441h-2.12A.893.893,0,0,1,747.664,360.131Zm4.265-1.852a2.7,2.7,0,0,0,0-3.237,2.244,2.244,0,0,0-1.621-.525h-.944v4.292h.944A2.229,2.229,0,0,0,751.929,358.279Z" transform="translate(-699.851 -350.625)" fill="#3f3f3f"/>
            <path id="Trazado_295" data-name="Trazado 295" d="M769.762,360.131a.9.9,0,0,1-.231-.661v-5.613a.805.805,0,0,1,.892-.892h3.63a1.057,1.057,0,0,1,.682.189.664.664,0,0,1,.231.546q0,.756-.913.756h-2.643v1.406h2.434q.913,0,.913.745a.665.665,0,0,1-.231.546,1.056,1.056,0,0,1-.682.189h-2.434v1.532h2.643q.913,0,.913.755a.664.664,0,0,1-.231.546,1.057,1.057,0,0,1-.682.189h-3.63A.893.893,0,0,1,769.762,360.131Z" transform="translate(-713.523 -350.625)" fill="#3f3f3f"/>
            <path id="Trazado_296" data-name="Trazado 296" d="M793.683,359.03a.679.679,0,0,1,.225.567.716.716,0,0,1-.22.582,1.072,1.072,0,0,1-.692.184h-4.2a.819.819,0,0,1-.614-.231.791.791,0,0,1-.225-.577,1.155,1.155,0,0,1,.241-.682l3.231-4.4h-2.539a1.1,1.1,0,0,1-.7-.183.682.682,0,0,1-.225-.562.708.708,0,0,1,.225-.582,1.1,1.1,0,0,1,.7-.183h4.029a.817.817,0,0,1,.6.225.775.775,0,0,1,.226.572,1.174,1.174,0,0,1-.241.693l-3.232,4.4H793A1.1,1.1,0,0,1,793.683,359.03Z" transform="translate(-724.925 -350.625)" fill="#3f3f3f"/>
            <path id="Trazado_297" data-name="Trazado 297" d="M815.361,361.044a.627.627,0,0,1,.2.514.644.644,0,0,1-.2.52.717.717,0,0,1-.478.173h-.871a1.529,1.529,0,0,1-1.123-.4,1.5,1.5,0,0,1-.409-1.118v-1.606a1.013,1.013,0,0,0-.131-.588.609.609,0,0,0-.456-.21.7.7,0,0,1-.5-.21.748.748,0,0,1-.168-.514.7.7,0,0,1,.168-.488.748.748,0,0,1,.5-.215.607.607,0,0,0,.456-.21,1.012,1.012,0,0,0,.131-.588v-1.616a1.5,1.5,0,0,1,.409-1.118,1.529,1.529,0,0,1,1.123-.4h.871a.717.717,0,0,1,.478.173.643.643,0,0,1,.2.519.628.628,0,0,1-.2.514.732.732,0,0,1-.478.168h-.157a.444.444,0,0,0-.315.1.478.478,0,0,0-.1.352v1.542a1.327,1.327,0,0,1-.278.84.47.47,0,1,0,0,.882,1.327,1.327,0,0,1,.278.839v1.532a.478.478,0,0,0,.1.352.444.444,0,0,0,.315.1h.157A.73.73,0,0,1,815.361,361.044Z" transform="translate(-739.318 -350.625)" fill="#3f3f3f"/>
          </g>
        </g>
      </g>
      <rect id="Rectángulo_125" data-name="Rectángulo 125" width="5.246" height="1.06" transform="translate(78.204 23.278)" fill="#3f3f3f"/>
    </g>
    <path id="Trazado_298" data-name="Trazado 298" d="M696.527,339.32a1.737,1.737,0,0,1-1.735-1.735v-6.077a1.735,1.735,0,0,1,3.47,0v4.342H776.6V295.643H699.231a1.735,1.735,0,1,1,0-3.469h79.1a1.737,1.737,0,0,1,1.735,1.735v43.676a1.737,1.737,0,0,1-1.735,1.735Z" transform="translate(-44.67 0)" fill="url(#linear-gradient)"/>
  </g>
</svg>
