<svg xmlns="http://www.w3.org/2000/svg" xmlns:xlink="http://www.w3.org/1999/xlink" width="353" height="50" viewBox="0 0 353 50">
  <defs>
    <linearGradient id="linear-gradient" x1="0.5" x2="0.5" y2="1" gradientUnits="objectBoundingBox">
      <stop offset="0" stop-color="#264de4"/>
      <stop offset="0.159" stop-color="#2653e3"/>
      <stop offset="0.374" stop-color="#2664e3"/>
      <stop offset="0.621" stop-color="#2680e3"/>
      <stop offset="0.89" stop-color="#26a7e3"/>
      <stop offset="1" stop-color="#26bae3"/>
    </linearGradient>
    <clipPath id="clip-projects_two_states">
      <rect width="353" height="50"/>
    </clipPath>
  </defs>
  <g id="projects_two_states" clip-path="url(#clip-projects_two_states)">
    <g id="Grupo_247" data-name="Grupo 247" transform="translate(-583 62)">
      <path id="Trazado_355" data-name="Trazado 355" d="M-127.44.12a1.866,1.866,0,0,1-1.39-.56,1.893,1.893,0,0,1-.55-1.38,1.893,1.893,0,0,1,.55-1.38,1.866,1.866,0,0,1,1.39-.56,1.842,1.842,0,0,1,1.37.56,1.893,1.893,0,0,1,.55,1.38,1.893,1.893,0,0,1-.55,1.38A1.842,1.842,0,0,1-127.44.12Zm5.82,0a1.8,1.8,0,0,1-1.33-.49,1.8,1.8,0,0,1-.49-1.33V-12.4a1.705,1.705,0,0,1,.44-1.26,1.705,1.705,0,0,1,1.26-.44h5.12a5.193,5.193,0,0,1,3.64,1.19,4.262,4.262,0,0,1,1.3,3.31,4.252,4.252,0,0,1-1.31,3.3,5.173,5.173,0,0,1-3.63,1.2h-3.14v3.4a1.777,1.777,0,0,1-.5,1.33A1.859,1.859,0,0,1-121.62.12Zm4.5-7.98a2.281,2.281,0,0,0,1.51-.42,1.62,1.62,0,0,0,.49-1.3q0-1.74-2-1.74h-2.64v3.46Zm13.02-2.18a1.343,1.343,0,0,1,1.08.31,1.412,1.412,0,0,1,.4,1.09,1.563,1.563,0,0,1-.37,1.16,2.252,2.252,0,0,1-1.33.46l-.6.06a2.128,2.128,0,0,0-1.43.63,2.088,2.088,0,0,0-.43,1.39v3.42a1.484,1.484,0,0,1-.51,1.23,1.962,1.962,0,0,1-1.27.41,1.962,1.962,0,0,1-1.27-.41,1.484,1.484,0,0,1-.51-1.23V-8.44a1.443,1.443,0,0,1,.51-1.18,1.872,1.872,0,0,1,1.23-.42,1.725,1.725,0,0,1,1.19.4,1.42,1.42,0,0,1,.45,1.12v.38a2.664,2.664,0,0,1,1.05-1.36,3.027,3.027,0,0,1,1.53-.52ZM-97.2.16a6.168,6.168,0,0,1-2.85-.63,4.522,4.522,0,0,1-1.9-1.79,5.343,5.343,0,0,1-.67-2.72,5.288,5.288,0,0,1,.67-2.71,4.49,4.49,0,0,1,1.89-1.77,6.235,6.235,0,0,1,2.86-.62,6.235,6.235,0,0,1,2.86.62,4.49,4.49,0,0,1,1.89,1.77,5.288,5.288,0,0,1,.67,2.71,5.343,5.343,0,0,1-.67,2.72A4.536,4.536,0,0,1-94.34-.47,6.153,6.153,0,0,1-97.2.16Zm0-2.66q1.9,0,1.9-2.48t-1.9-2.48q-1.9,0-1.9,2.48T-97.2-2.5Zm13.4-6.54a1.607,1.607,0,0,1,.6-.74,1.541,1.541,0,0,1,.84-.24,1.777,1.777,0,0,1,1.18.44,1.344,1.344,0,0,1,.52,1.06,1.459,1.459,0,0,1-.16.66l-5.3,10.62a1.7,1.7,0,0,1-.63.74,1.592,1.592,0,0,1-.85.24,1.763,1.763,0,0,1-1.17-.43,1.325,1.325,0,0,1-.51-1.05,1.561,1.561,0,0,1,.18-.7l1.3-2.62-3.4-6.8a1.607,1.607,0,0,1-.16-.64,1.355,1.355,0,0,1,.56-1.09,1.96,1.96,0,0,1,1.26-.45,1.678,1.678,0,0,1,.89.25,1.6,1.6,0,0,1,.63.75l2.12,4.6Zm12.02,5.88a.919.919,0,0,1,.75.36,1.452,1.452,0,0,1,.29.94,1.323,1.323,0,0,1-.78,1.22,7.791,7.791,0,0,1-1.61.57,7.165,7.165,0,0,1-1.71.23A6.235,6.235,0,0,1-77.7-.46a4.409,4.409,0,0,1-1.88-1.78,5.407,5.407,0,0,1-.66-2.72,5.5,5.5,0,0,1,.63-2.65,4.536,4.536,0,0,1,1.76-1.82,5.021,5.021,0,0,1,2.55-.65,4.756,4.756,0,0,1,2.42.6,4.087,4.087,0,0,1,1.61,1.7A5.535,5.535,0,0,1-70.7-5.2a1.074,1.074,0,0,1-.21.71.752.752,0,0,1-.61.25H-76.8a2.192,2.192,0,0,0,.62,1.38,2.1,2.1,0,0,0,1.42.42,3.626,3.626,0,0,0,.92-.11,9.017,9.017,0,0,0,.94-.31q.3-.12.59-.21A1.8,1.8,0,0,1-71.78-3.16ZM-75.2-7.68a1.459,1.459,0,0,0-1.12.45,2.16,2.16,0,0,0-.5,1.31h3.14Q-73.8-7.68-75.2-7.68ZM-64.34.16a5.221,5.221,0,0,1-3.8-1.36,4.919,4.919,0,0,1-1.4-3.7,5.349,5.349,0,0,1,.68-2.72,4.614,4.614,0,0,1,1.91-1.82,6,6,0,0,1,2.81-.64,6.607,6.607,0,0,1,1.68.22,5.315,5.315,0,0,1,1.48.62,1.268,1.268,0,0,1,.62,1.16,1.649,1.649,0,0,1-.29,1.01.9.9,0,0,1-.75.39,1.884,1.884,0,0,1-.58-.09,3.894,3.894,0,0,1-.62-.27,6.738,6.738,0,0,0-.68-.27,2.018,2.018,0,0,0-.62-.09q-1.98,0-1.98,2.42a2.85,2.85,0,0,0,.51,1.83,1.781,1.781,0,0,0,1.47.63,2.116,2.116,0,0,0,.63-.09,4.388,4.388,0,0,0,.65-.27q.4-.18.65-.27a1.613,1.613,0,0,1,.55-.09.9.9,0,0,1,.75.39,1.649,1.649,0,0,1,.29,1.01,1.482,1.482,0,0,1-.16.69,1.113,1.113,0,0,1-.44.47A6.347,6.347,0,0,1-64.34.16Zm11.2-2.58q1.34.08,1.34,1.2a1.144,1.144,0,0,1-.54,1.04A2.6,2.6,0,0,1-53.88.1l-.56-.04a4.126,4.126,0,0,1-2.73-1.09,3.627,3.627,0,0,1-.93-2.65V-7.22h-.58q-1.6,0-1.6-1.32,0-1.3,1.6-1.3h.58v-1.3a1.579,1.579,0,0,1,.48-1.21,1.824,1.824,0,0,1,1.3-.45,1.824,1.824,0,0,1,1.3.45,1.579,1.579,0,0,1,.48,1.21v1.3h1.1q1.6,0,1.6,1.3,0,1.32-1.6,1.32h-1.1v3.84a.931.931,0,0,0,.23.64.816.816,0,0,0,.59.28ZM-45.9.16a6.168,6.168,0,0,1-2.85-.63,4.522,4.522,0,0,1-1.9-1.79,5.343,5.343,0,0,1-.67-2.72,5.288,5.288,0,0,1,.67-2.71,4.49,4.49,0,0,1,1.89-1.77,6.235,6.235,0,0,1,2.86-.62,6.235,6.235,0,0,1,2.86.62,4.49,4.49,0,0,1,1.89,1.77,5.288,5.288,0,0,1,.67,2.71,5.343,5.343,0,0,1-.67,2.72A4.536,4.536,0,0,1-43.04-.47,6.153,6.153,0,0,1-45.9.16Zm0-2.66q1.9,0,1.9-2.48t-1.9-2.48q-1.9,0-1.9,2.48T-45.9-2.5ZM-34.98.16a10.84,10.84,0,0,1-2.26-.2,5.022,5.022,0,0,1-1.62-.64.974.974,0,0,1-.44-.48,1.763,1.763,0,0,1-.16-.76,1.348,1.348,0,0,1,.29-.89.909.909,0,0,1,.73-.35,2.148,2.148,0,0,1,.56.07,5.19,5.19,0,0,1,.64.23q.64.22,1.13.34a5.39,5.39,0,0,0,1.25.12,1.982,1.982,0,0,0,.85-.15.468.468,0,0,0,.31-.43.41.41,0,0,0-.15-.34,1.658,1.658,0,0,0-.57-.23q-.42-.11-1.42-.31a5.507,5.507,0,0,1-2.57-1.03,2.451,2.451,0,0,1-.79-1.95,2.652,2.652,0,0,1,.57-1.66,3.773,3.773,0,0,1,1.57-1.16,5.733,5.733,0,0,1,2.24-.42,6.956,6.956,0,0,1,1.75.22,5.606,5.606,0,0,1,1.51.62,1.24,1.24,0,0,1,.62,1.16,1.47,1.47,0,0,1-.3.94.91.91,0,0,1-.74.38,3,3,0,0,1-1.24-.34,6.594,6.594,0,0,0-.85-.33,3.068,3.068,0,0,0-.87-.11,1.671,1.671,0,0,0-.78.15.468.468,0,0,0-.28.43.556.556,0,0,0,.39.5,7.894,7.894,0,0,0,1.55.4,5.822,5.822,0,0,1,2.74,1.03,2.485,2.485,0,0,1,.8,1.99A2.729,2.729,0,0,1-31.73-.71,5.459,5.459,0,0,1-34.98.16Zm17.96.82a1.392,1.392,0,0,1,.91.32,1.194,1.194,0,0,1,.39.98,1.224,1.224,0,0,1-.39.99,1.366,1.366,0,0,1-.91.33h-1.66a2.913,2.913,0,0,1-2.14-.77A2.857,2.857,0,0,1-21.6.7V-2.36a1.931,1.931,0,0,0-.25-1.12,1.159,1.159,0,0,0-.87-.4,1.336,1.336,0,0,1-.96-.4A1.422,1.422,0,0,1-24-5.26a1.325,1.325,0,0,1,.32-.93,1.428,1.428,0,0,1,.96-.41,1.159,1.159,0,0,0,.87-.4,1.931,1.931,0,0,0,.25-1.12V-11.2a2.857,2.857,0,0,1,.78-2.13,2.913,2.913,0,0,1,2.14-.77h1.66a1.366,1.366,0,0,1,.91.33,1.224,1.224,0,0,1,.39.99,1.194,1.194,0,0,1-.39.98,1.392,1.392,0,0,1-.91.32h-.3a.842.842,0,0,0-.6.19.9.9,0,0,0-.2.67v2.94a2.527,2.527,0,0,1-.53,1.6,2.173,2.173,0,0,1-1.21.84,2.173,2.173,0,0,1,1.21.84,2.527,2.527,0,0,1,.53,1.6V.12a.9.9,0,0,0,.2.67.842.842,0,0,0,.6.19Zm8.36,1.04a1.557,1.557,0,0,1-.98-.28A.892.892,0,0,1-10,1,.865.865,0,0,1-9.64.27,1.6,1.6,0,0,1-8.66,0h7.32A1.6,1.6,0,0,1-.36.27.865.865,0,0,1,0,1a.892.892,0,0,1-.36.74,1.557,1.557,0,0,1-.98.28Z" transform="translate(898 -31)" fill="#fff"/>
      <path id="Trazado_170" data-name="Trazado 170" d="M278.408,171.8a2.622,2.622,0,0,1-2.619-2.619v-5.031a2.619,2.619,0,0,1,5.238,0v2.412h94.394V128.694H282.49a2.619,2.619,0,1,1,0-5.238H378.04a2.622,2.622,0,0,1,2.618,2.619v43.1a2.622,2.622,0,0,1-2.618,2.619Z" transform="translate(546.336 -185.456)" fill="url(#linear-gradient)"/>
    </g>
    <path id="Trazado_354" data-name="Trazado 354" d="M-97.24.12a1.8,1.8,0,0,1-1.33-.49,1.8,1.8,0,0,1-.49-1.33V-12.4a1.705,1.705,0,0,1,.44-1.26,1.705,1.705,0,0,1,1.26-.44h5.12a5.193,5.193,0,0,1,3.64,1.19A4.262,4.262,0,0,1-87.3-9.6a4.252,4.252,0,0,1-1.31,3.3,5.173,5.173,0,0,1-3.63,1.2h-3.14v3.4a1.777,1.777,0,0,1-.5,1.33A1.859,1.859,0,0,1-97.24.12Zm4.5-7.98a2.281,2.281,0,0,0,1.51-.42,1.62,1.62,0,0,0,.49-1.3q0-1.74-2-1.74h-2.64v3.46Zm13.02-2.18a1.343,1.343,0,0,1,1.08.31,1.412,1.412,0,0,1,.4,1.09,1.563,1.563,0,0,1-.37,1.16,2.252,2.252,0,0,1-1.33.46l-.6.06a2.128,2.128,0,0,0-1.43.63,2.088,2.088,0,0,0-.43,1.39v3.42a1.484,1.484,0,0,1-.51,1.23,1.962,1.962,0,0,1-1.27.41,1.962,1.962,0,0,1-1.27-.41,1.484,1.484,0,0,1-.51-1.23V-8.44a1.443,1.443,0,0,1,.51-1.18,1.872,1.872,0,0,1,1.23-.42,1.725,1.725,0,0,1,1.19.4,1.42,1.42,0,0,1,.45,1.12v.38A2.664,2.664,0,0,1-81.53-9.5,3.027,3.027,0,0,1-80-10.02Zm6.9,10.2a6.168,6.168,0,0,1-2.85-.63,4.522,4.522,0,0,1-1.9-1.79,5.343,5.343,0,0,1-.67-2.72,5.288,5.288,0,0,1,.67-2.71,4.49,4.49,0,0,1,1.89-1.77,6.235,6.235,0,0,1,2.86-.62,6.235,6.235,0,0,1,2.86.62,4.49,4.49,0,0,1,1.89,1.77,5.288,5.288,0,0,1,.67,2.71,5.343,5.343,0,0,1-.67,2.72A4.536,4.536,0,0,1-69.96-.47,6.153,6.153,0,0,1-72.82.16Zm0-2.66q1.9,0,1.9-2.48t-1.9-2.48q-1.9,0-1.9,2.48T-72.82-2.5Zm13.4-6.54a1.607,1.607,0,0,1,.6-.74,1.541,1.541,0,0,1,.84-.24,1.777,1.777,0,0,1,1.18.44,1.344,1.344,0,0,1,.52,1.06,1.459,1.459,0,0,1-.16.66l-5.3,10.62a1.7,1.7,0,0,1-.63.74,1.591,1.591,0,0,1-.85.24,1.763,1.763,0,0,1-1.17-.43,1.325,1.325,0,0,1-.51-1.05,1.561,1.561,0,0,1,.18-.7l1.3-2.62-3.4-6.8a1.607,1.607,0,0,1-.16-.64,1.355,1.355,0,0,1,.56-1.09,1.96,1.96,0,0,1,1.26-.45,1.678,1.678,0,0,1,.89.25,1.6,1.6,0,0,1,.63.75l2.12,4.6ZM-47.4-3.16a.919.919,0,0,1,.75.36,1.452,1.452,0,0,1,.29.94,1.323,1.323,0,0,1-.78,1.22,7.791,7.791,0,0,1-1.61.57,7.165,7.165,0,0,1-1.71.23,6.235,6.235,0,0,1-2.86-.62A4.409,4.409,0,0,1-55.2-2.24a5.407,5.407,0,0,1-.66-2.72,5.5,5.5,0,0,1,.63-2.65,4.536,4.536,0,0,1,1.76-1.82,5.021,5.021,0,0,1,2.55-.65,4.756,4.756,0,0,1,2.42.6,4.087,4.087,0,0,1,1.61,1.7,5.535,5.535,0,0,1,.57,2.58,1.074,1.074,0,0,1-.21.71.752.752,0,0,1-.61.25h-5.28a2.192,2.192,0,0,0,.62,1.38,2.1,2.1,0,0,0,1.42.42,3.626,3.626,0,0,0,.92-.11,9.018,9.018,0,0,0,.94-.31q.3-.12.59-.21A1.8,1.8,0,0,1-47.4-3.16Zm-3.42-4.52a1.459,1.459,0,0,0-1.12.45,2.16,2.16,0,0,0-.5,1.31h3.14Q-49.42-7.68-50.82-7.68ZM-39.96.16a5.221,5.221,0,0,1-3.8-1.36,4.919,4.919,0,0,1-1.4-3.7,5.349,5.349,0,0,1,.68-2.72,4.614,4.614,0,0,1,1.91-1.82,6,6,0,0,1,2.81-.64,6.607,6.607,0,0,1,1.68.22,5.315,5.315,0,0,1,1.48.62,1.268,1.268,0,0,1,.62,1.16,1.649,1.649,0,0,1-.29,1.01.9.9,0,0,1-.75.39,1.884,1.884,0,0,1-.58-.09,3.894,3.894,0,0,1-.62-.27,6.738,6.738,0,0,0-.68-.27,2.018,2.018,0,0,0-.62-.09q-1.98,0-1.98,2.42a2.85,2.85,0,0,0,.51,1.83,1.781,1.781,0,0,0,1.47.63,2.116,2.116,0,0,0,.63-.09,4.388,4.388,0,0,0,.65-.27q.4-.18.65-.27a1.613,1.613,0,0,1,.55-.09.9.9,0,0,1,.75.39A1.649,1.649,0,0,1-36-1.84a1.482,1.482,0,0,1-.16.69,1.113,1.113,0,0,1-.44.47A6.347,6.347,0,0,1-39.96.16Zm11.2-2.58q1.34.08,1.34,1.2a1.144,1.144,0,0,1-.54,1.04A2.6,2.6,0,0,1-29.5.1l-.56-.04a4.126,4.126,0,0,1-2.73-1.09,3.627,3.627,0,0,1-.93-2.65V-7.22h-.58q-1.6,0-1.6-1.32,0-1.3,1.6-1.3h.58v-1.3a1.579,1.579,0,0,1,.48-1.21,1.824,1.824,0,0,1,1.3-.45,1.824,1.824,0,0,1,1.3.45,1.579,1.579,0,0,1,.48,1.21v1.3h1.1q1.6,0,1.6,1.3,0,1.32-1.6,1.32h-1.1v3.84a.931.931,0,0,0,.23.64.816.816,0,0,0,.59.28ZM-21.52.16a6.168,6.168,0,0,1-2.85-.63,4.522,4.522,0,0,1-1.9-1.79,5.343,5.343,0,0,1-.67-2.72,5.288,5.288,0,0,1,.67-2.71,4.49,4.49,0,0,1,1.89-1.77,6.235,6.235,0,0,1,2.86-.62,6.235,6.235,0,0,1,2.86.62,4.49,4.49,0,0,1,1.89,1.77,5.288,5.288,0,0,1,.67,2.71,5.343,5.343,0,0,1-.67,2.72A4.536,4.536,0,0,1-18.66-.47,6.153,6.153,0,0,1-21.52.16Zm0-2.66q1.9,0,1.9-2.48t-1.9-2.48q-1.9,0-1.9,2.48T-21.52-2.5ZM-10.6.16a10.84,10.84,0,0,1-2.26-.2,5.022,5.022,0,0,1-1.62-.64.974.974,0,0,1-.44-.48,1.763,1.763,0,0,1-.16-.76,1.348,1.348,0,0,1,.29-.89.909.909,0,0,1,.73-.35,2.148,2.148,0,0,1,.56.07,5.19,5.19,0,0,1,.64.23q.64.22,1.13.34a5.39,5.39,0,0,0,1.25.12,1.982,1.982,0,0,0,.85-.15.468.468,0,0,0,.31-.43.41.41,0,0,0-.15-.34,1.659,1.659,0,0,0-.57-.23q-.42-.11-1.42-.31a5.507,5.507,0,0,1-2.57-1.03,2.451,2.451,0,0,1-.79-1.95,2.652,2.652,0,0,1,.57-1.66,3.773,3.773,0,0,1,1.57-1.16,5.733,5.733,0,0,1,2.24-.42,6.956,6.956,0,0,1,1.75.22,5.606,5.606,0,0,1,1.51.62,1.24,1.24,0,0,1,.62,1.16,1.47,1.47,0,0,1-.3.94.91.91,0,0,1-.74.38A3,3,0,0,1-8.84-7.1a6.594,6.594,0,0,0-.85-.33,3.068,3.068,0,0,0-.87-.11,1.671,1.671,0,0,0-.78.15.468.468,0,0,0-.28.43.556.556,0,0,0,.39.5,7.9,7.9,0,0,0,1.55.4A5.822,5.822,0,0,1-6.94-5.03a2.485,2.485,0,0,1,.8,1.99A2.729,2.729,0,0,1-7.35-.71,5.459,5.459,0,0,1-10.6.16Z" transform="translate(143 32)" fill="#fff"/>
  </g>
</svg>
