<svg xmlns="http://www.w3.org/2000/svg" xmlns:xlink="http://www.w3.org/1999/xlink" width="353" height="50" viewBox="0 0 353 50">
  <defs>
    <linearGradient id="linear-gradient" x1="0.5" x2="0.5" y2="1" gradientUnits="objectBoundingBox">
      <stop offset="0" stop-color="#264de4"/>
      <stop offset="0.159" stop-color="#2653e3"/>
      <stop offset="0.374" stop-color="#2664e3"/>
      <stop offset="0.621" stop-color="#2680e3"/>
      <stop offset="0.89" stop-color="#26a7e3"/>
      <stop offset="1" stop-color="#26bae3"/>
    </linearGradient>
    <clipPath id="clip-projects_two_states_dark">
      <rect width="353" height="50"/>
    </clipPath>
  </defs>
  <g id="projects_two_states_dark" clip-path="url(#clip-projects_two_states_dark)">
    <g id="Grupo_247" data-name="Grupo 247" transform="translate(-583 62)">
      <path id="Trazado_355" data-name="Trazado 355" d="M-122.26.12a1.419,1.419,0,0,1-1.06-.43,1.471,1.471,0,0,1-.42-1.07,1.471,1.471,0,0,1,.42-1.07,1.419,1.419,0,0,1,1.06-.43,1.419,1.419,0,0,1,1.06.43,1.471,1.471,0,0,1,.42,1.07,1.471,1.471,0,0,1-.42,1.07A1.419,1.419,0,0,1-122.26.12Zm5.28,0a1.257,1.257,0,0,1-.93-.35,1.284,1.284,0,0,1-.35-.95v-11.7a1.2,1.2,0,0,1,.33-.9,1.252,1.252,0,0,1,.91-.32h4.92a5.088,5.088,0,0,1,3.52,1.13,4.038,4.038,0,0,1,1.26,3.17,4.07,4.07,0,0,1-1.26,3.18,5.059,5.059,0,0,1-3.52,1.14h-3.58v4.3a1.284,1.284,0,0,1-.35.95A1.284,1.284,0,0,1-116.98.12Zm4.56-7.58q2.66,0,2.66-2.32t-2.66-2.32h-3.26v4.64Zm12.4-2.52a1.077,1.077,0,0,1,.82.22.977.977,0,0,1,.3.78,1.09,1.09,0,0,1-.26.8,1.6,1.6,0,0,1-.94.34l-.6.06a2.43,2.43,0,0,0-1.73.8,2.616,2.616,0,0,0-.55,1.7v4.2a1.11,1.11,0,0,1-.36.89,1.33,1.33,0,0,1-.9.31,1.293,1.293,0,0,1-.89-.31,1.126,1.126,0,0,1-.35-.89V-8.82a1.071,1.071,0,0,1,.35-.86,1.29,1.29,0,0,1,.87-.3,1.2,1.2,0,0,1,.84.29,1.063,1.063,0,0,1,.32.83v.8a2.96,2.96,0,0,1,1.13-1.36,3.464,3.464,0,0,1,1.67-.54ZM-93.56.16a5.381,5.381,0,0,1-2.63-.62,4.29,4.29,0,0,1-1.75-1.78,5.643,5.643,0,0,1-.62-2.7,5.584,5.584,0,0,1,.62-2.69A4.3,4.3,0,0,1-96.19-9.4a5.381,5.381,0,0,1,2.63-.62,5.381,5.381,0,0,1,2.63.62,4.242,4.242,0,0,1,1.74,1.77,5.659,5.659,0,0,1,.61,2.69,5.719,5.719,0,0,1-.61,2.7A4.228,4.228,0,0,1-90.93-.46,5.381,5.381,0,0,1-93.56.16Zm-.02-1.94a2.241,2.241,0,0,0,1.86-.8,3.717,3.717,0,0,0,.64-2.36,3.724,3.724,0,0,0-.64-2.35,2.207,2.207,0,0,0-1.84-.81,2.235,2.235,0,0,0-1.85.81,3.682,3.682,0,0,0-.65,2.35,3.717,3.717,0,0,0,.64,2.36A2.219,2.219,0,0,0-93.58-1.78Zm13.72-7.48a1.157,1.157,0,0,1,.43-.53,1.086,1.086,0,0,1,.59-.17,1.259,1.259,0,0,1,.83.31.965.965,0,0,1,.37.77,1.029,1.029,0,0,1-.12.46L-83.22,3.02a1.117,1.117,0,0,1-1.06.68,1.232,1.232,0,0,1-.81-.29.909.909,0,0,1-.35-.73,1.291,1.291,0,0,1,.12-.5l1.36-2.86-3.72-7.74a1.015,1.015,0,0,1-.1-.46.975.975,0,0,1,.39-.78,1.364,1.364,0,0,1,.89-.32,1.172,1.172,0,0,1,.62.17,1.134,1.134,0,0,1,.44.53l2.8,6.18Zm11.28,6.58a.673.673,0,0,1,.55.26,1.082,1.082,0,0,1,.21.7,1.213,1.213,0,0,1-.74,1.04,6.686,6.686,0,0,1-1.54.61,6.349,6.349,0,0,1-1.64.23A5.1,5.1,0,0,1-75.48-1.2a4.985,4.985,0,0,1-1.38-3.72,5.707,5.707,0,0,1,.6-2.66,4.363,4.363,0,0,1,1.69-1.8,4.786,4.786,0,0,1,2.47-.64,4.432,4.432,0,0,1,2.3.58A3.933,3.933,0,0,1-68.28-7.8a5.442,5.442,0,0,1,.54,2.5q0,.86-.76.86h-5.9a3.147,3.147,0,0,0,.78,2.03,2.625,2.625,0,0,0,1.92.65,3.641,3.641,0,0,0,1.13-.16,11.154,11.154,0,0,0,1.11-.44A2.207,2.207,0,0,1-68.58-2.68Zm-3.46-5.58a2.146,2.146,0,0,0-1.63.64,3.022,3.022,0,0,0-.73,1.84h4.52a2.852,2.852,0,0,0-.6-1.85A1.979,1.979,0,0,0-72.04-8.26ZM-61.36.16a5.182,5.182,0,0,1-2.57-.62,4.226,4.226,0,0,1-1.71-1.76,5.631,5.631,0,0,1-.6-2.66,5.585,5.585,0,0,1,.63-2.69,4.451,4.451,0,0,1,1.77-1.81,5.26,5.26,0,0,1,2.62-.64,5.831,5.831,0,0,1,1.57.22,5.179,5.179,0,0,1,1.39.6,1.238,1.238,0,0,1,.64,1.06,1.124,1.124,0,0,1-.21.71.664.664,0,0,1-.55.27,1.2,1.2,0,0,1-.46-.1,4.028,4.028,0,0,1-.48-.24,5.372,5.372,0,0,0-.84-.41,2.61,2.61,0,0,0-.92-.15,2.339,2.339,0,0,0-1.91.81,3.569,3.569,0,0,0-.67,2.33,3.534,3.534,0,0,0,.67,2.31,2.339,2.339,0,0,0,1.91.81,2.466,2.466,0,0,0,.89-.15,7.539,7.539,0,0,0,.87-.41,3.96,3.96,0,0,1,.52-.27,1.154,1.154,0,0,1,.44-.09.664.664,0,0,1,.54.28,1.1,1.1,0,0,1,.22.7,1.125,1.125,0,0,1-.15.59,1.351,1.351,0,0,1-.49.45,5.259,5.259,0,0,1-1.44.63A6.191,6.191,0,0,1-61.36.16Zm10.56-1.9q1,.06,1,.9a.814.814,0,0,1-.39.73A1.861,1.861,0,0,1-51.3.1l-.54-.04a3.217,3.217,0,0,1-3.36-3.6V-7.9h-1a1.27,1.27,0,0,1-.83-.24.857.857,0,0,1-.29-.7.857.857,0,0,1,.29-.7,1.27,1.27,0,0,1,.83-.24h1v-1.84a1.125,1.125,0,0,1,.34-.86,1.288,1.288,0,0,1,.92-.32,1.26,1.26,0,0,1,.9.32,1.125,1.125,0,0,1,.34.86v1.84H-51a1.27,1.27,0,0,1,.83.24.857.857,0,0,1,.29.7.857.857,0,0,1-.29.7A1.27,1.27,0,0,1-51-7.9h-1.7v4.54q0,1.48,1.36,1.58Zm6.76,1.9a5.381,5.381,0,0,1-2.63-.62,4.29,4.29,0,0,1-1.75-1.78,5.643,5.643,0,0,1-.62-2.7,5.584,5.584,0,0,1,.62-2.69A4.3,4.3,0,0,1-46.67-9.4a5.381,5.381,0,0,1,2.63-.62,5.381,5.381,0,0,1,2.63.62,4.242,4.242,0,0,1,1.74,1.77,5.659,5.659,0,0,1,.61,2.69,5.719,5.719,0,0,1-.61,2.7A4.228,4.228,0,0,1-41.41-.46,5.381,5.381,0,0,1-44.04.16Zm-.02-1.94a2.241,2.241,0,0,0,1.86-.8,3.717,3.717,0,0,0,.64-2.36,3.724,3.724,0,0,0-.64-2.35,2.207,2.207,0,0,0-1.84-.81,2.235,2.235,0,0,0-1.85.81,3.682,3.682,0,0,0-.65,2.35,3.717,3.717,0,0,0,.64,2.36A2.219,2.219,0,0,0-44.06-1.78ZM-33.46.16A6.43,6.43,0,0,1-36.98-.7a1.193,1.193,0,0,1-.64-1.08.948.948,0,0,1,.22-.65.692.692,0,0,1,.54-.25,2.209,2.209,0,0,1,.94.32,8.755,8.755,0,0,0,1.17.46,4.765,4.765,0,0,0,1.35.16,2.567,2.567,0,0,0,1.31-.28.867.867,0,0,0,.47-.78.752.752,0,0,0-.19-.54,1.742,1.742,0,0,0-.68-.37,14.3,14.3,0,0,0-1.49-.39,5.725,5.725,0,0,1-2.55-1.02,2.27,2.27,0,0,1-.77-1.82,2.626,2.626,0,0,1,.52-1.59,3.37,3.37,0,0,1,1.43-1.1,5.21,5.21,0,0,1,2.07-.39,6.2,6.2,0,0,1,1.62.21,4.925,4.925,0,0,1,1.4.61,1.207,1.207,0,0,1,.64,1.06,1.026,1.026,0,0,1-.22.67.672.672,0,0,1-.54.27,1.082,1.082,0,0,1-.43-.09,5.77,5.77,0,0,1-.53-.27,8.386,8.386,0,0,0-1-.45,3.119,3.119,0,0,0-1.04-.15,2.014,2.014,0,0,0-1.17.3.948.948,0,0,0-.43.82.832.832,0,0,0,.44.76,6.3,6.3,0,0,0,1.7.52,9.7,9.7,0,0,1,2.1.64,2.459,2.459,0,0,1,1.09.9,2.611,2.611,0,0,1,.33,1.38A2.565,2.565,0,0,1-30.45-.66,5.016,5.016,0,0,1-33.46.16ZM-16.4,1.72a1.038,1.038,0,0,1,.7.24.871.871,0,0,1,.28.7.871.871,0,0,1-.28.7,1.038,1.038,0,0,1-.7.24h-1.5a2.4,2.4,0,0,1-1.79-.64,2.428,2.428,0,0,1-.63-1.78V-2.7a1.9,1.9,0,0,0-.28-1.16,1.35,1.35,0,0,0-1-.42.981.981,0,0,1-.71-.29.976.976,0,0,1-.25-.69.94.94,0,0,1,.25-.68,1,1,0,0,1,.71-.28,1.35,1.35,0,0,0,1-.42,1.9,1.9,0,0,0,.28-1.16v-3.88a2.428,2.428,0,0,1,.63-1.78,2.4,2.4,0,0,1,1.79-.64h1.5a1.038,1.038,0,0,1,.7.24.871.871,0,0,1,.28.7.871.871,0,0,1-.28.7,1.038,1.038,0,0,1-.7.24h-.64a.856.856,0,0,0-.63.21.917.917,0,0,0-.21.67V-7.5a2.4,2.4,0,0,1-.47,1.51,1.909,1.909,0,0,1-1.11.75,1.922,1.922,0,0,1,1.11.74A2.358,2.358,0,0,1-17.88-3V.84a.917.917,0,0,0,.21.67.856.856,0,0,0,.63.21Zm7.36-.22a1.082,1.082,0,0,1-.7-.21A.673.673,0,0,1-10,.74.645.645,0,0,1-9.73.21,1.091,1.091,0,0,1-9.04,0H-.96A1.091,1.091,0,0,1-.27.21.645.645,0,0,1,0,.74a.673.673,0,0,1-.26.55,1.082,1.082,0,0,1-.7.21Z" transform="translate(898 -31)" fill="#3f3f3f"/>
      <path id="Trazado_170" data-name="Trazado 170" d="M278.408,171.8a2.622,2.622,0,0,1-2.619-2.619v-5.031a2.619,2.619,0,0,1,5.238,0v2.412h94.394V128.694H282.49a2.619,2.619,0,1,1,0-5.238H378.04a2.622,2.622,0,0,1,2.618,2.619v43.1a2.622,2.622,0,0,1-2.618,2.619Z" transform="translate(546.336 -185.456)" fill="url(#linear-gradient)"/>
    </g>
    <path id="Trazado_354" data-name="Trazado 354" d="M-93.8.12a1.257,1.257,0,0,1-.93-.35,1.284,1.284,0,0,1-.35-.95v-11.7a1.2,1.2,0,0,1,.33-.9,1.252,1.252,0,0,1,.91-.32h4.92a5.088,5.088,0,0,1,3.52,1.13A4.038,4.038,0,0,1-84.14-9.8,4.07,4.07,0,0,1-85.4-6.62a5.059,5.059,0,0,1-3.52,1.14H-92.5v4.3a1.284,1.284,0,0,1-.35.95A1.284,1.284,0,0,1-93.8.12Zm4.56-7.58q2.66,0,2.66-2.32t-2.66-2.32H-92.5v4.64Zm12.4-2.52a1.077,1.077,0,0,1,.82.22.977.977,0,0,1,.3.78,1.09,1.09,0,0,1-.26.8,1.6,1.6,0,0,1-.94.34l-.6.06a2.43,2.43,0,0,0-1.73.8,2.616,2.616,0,0,0-.55,1.7v4.2a1.11,1.11,0,0,1-.36.89,1.33,1.33,0,0,1-.9.31,1.293,1.293,0,0,1-.89-.31,1.126,1.126,0,0,1-.35-.89V-8.82a1.071,1.071,0,0,1,.35-.86,1.29,1.29,0,0,1,.87-.3,1.2,1.2,0,0,1,.84.29,1.063,1.063,0,0,1,.32.83v.8a2.96,2.96,0,0,1,1.13-1.36,3.464,3.464,0,0,1,1.67-.54ZM-70.38.16a5.381,5.381,0,0,1-2.63-.62,4.29,4.29,0,0,1-1.75-1.78,5.643,5.643,0,0,1-.62-2.7,5.584,5.584,0,0,1,.62-2.69A4.3,4.3,0,0,1-73.01-9.4a5.381,5.381,0,0,1,2.63-.62,5.381,5.381,0,0,1,2.63.62,4.242,4.242,0,0,1,1.74,1.77,5.659,5.659,0,0,1,.61,2.69,5.719,5.719,0,0,1-.61,2.7A4.228,4.228,0,0,1-67.75-.46,5.381,5.381,0,0,1-70.38.16Zm-.02-1.94a2.241,2.241,0,0,0,1.86-.8,3.717,3.717,0,0,0,.64-2.36,3.724,3.724,0,0,0-.64-2.35,2.207,2.207,0,0,0-1.84-.81,2.235,2.235,0,0,0-1.85.81,3.682,3.682,0,0,0-.65,2.35,3.717,3.717,0,0,0,.64,2.36A2.219,2.219,0,0,0-70.4-1.78Zm13.72-7.48a1.157,1.157,0,0,1,.43-.53,1.086,1.086,0,0,1,.59-.17,1.259,1.259,0,0,1,.83.31.965.965,0,0,1,.37.77,1.029,1.029,0,0,1-.12.46L-60.04,3.02a1.117,1.117,0,0,1-1.06.68,1.232,1.232,0,0,1-.81-.29.909.909,0,0,1-.35-.73,1.291,1.291,0,0,1,.12-.5l1.36-2.86L-64.5-8.42a1.015,1.015,0,0,1-.1-.46.975.975,0,0,1,.39-.78,1.364,1.364,0,0,1,.89-.32,1.172,1.172,0,0,1,.62.17,1.134,1.134,0,0,1,.44.53l2.8,6.18ZM-45.4-2.68a.673.673,0,0,1,.55.26,1.082,1.082,0,0,1,.21.7,1.213,1.213,0,0,1-.74,1.04,6.686,6.686,0,0,1-1.54.61,6.349,6.349,0,0,1-1.64.23A5.1,5.1,0,0,1-52.3-1.2a4.985,4.985,0,0,1-1.38-3.72,5.707,5.707,0,0,1,.6-2.66,4.363,4.363,0,0,1,1.69-1.8,4.786,4.786,0,0,1,2.47-.64,4.432,4.432,0,0,1,2.3.58A3.933,3.933,0,0,1-45.1-7.8a5.442,5.442,0,0,1,.54,2.5q0,.86-.76.86h-5.9a3.147,3.147,0,0,0,.78,2.03,2.625,2.625,0,0,0,1.92.65,3.641,3.641,0,0,0,1.13-.16,11.154,11.154,0,0,0,1.11-.44A2.207,2.207,0,0,1-45.4-2.68Zm-3.46-5.58a2.146,2.146,0,0,0-1.63.64,3.022,3.022,0,0,0-.73,1.84h4.52a2.852,2.852,0,0,0-.6-1.85A1.979,1.979,0,0,0-48.86-8.26ZM-38.18.16a5.182,5.182,0,0,1-2.57-.62,4.226,4.226,0,0,1-1.71-1.76,5.631,5.631,0,0,1-.6-2.66,5.585,5.585,0,0,1,.63-2.69,4.451,4.451,0,0,1,1.77-1.81,5.26,5.26,0,0,1,2.62-.64,5.831,5.831,0,0,1,1.57.22,5.179,5.179,0,0,1,1.39.6,1.238,1.238,0,0,1,.64,1.06,1.124,1.124,0,0,1-.21.71.664.664,0,0,1-.55.27,1.2,1.2,0,0,1-.46-.1,4.028,4.028,0,0,1-.48-.24,5.372,5.372,0,0,0-.84-.41,2.61,2.61,0,0,0-.92-.15,2.339,2.339,0,0,0-1.91.81,3.569,3.569,0,0,0-.67,2.33,3.534,3.534,0,0,0,.67,2.31,2.339,2.339,0,0,0,1.91.81,2.466,2.466,0,0,0,.89-.15,7.539,7.539,0,0,0,.87-.41,3.96,3.96,0,0,1,.52-.27,1.154,1.154,0,0,1,.44-.09.664.664,0,0,1,.54.28,1.1,1.1,0,0,1,.22.7,1.125,1.125,0,0,1-.15.59,1.351,1.351,0,0,1-.49.45,5.259,5.259,0,0,1-1.44.63A6.191,6.191,0,0,1-38.18.16Zm10.56-1.9q1,.06,1,.9a.814.814,0,0,1-.39.73A1.861,1.861,0,0,1-28.12.1l-.54-.04a3.217,3.217,0,0,1-3.36-3.6V-7.9h-1a1.27,1.27,0,0,1-.83-.24.857.857,0,0,1-.29-.7.857.857,0,0,1,.29-.7,1.27,1.27,0,0,1,.83-.24h1v-1.84a1.125,1.125,0,0,1,.34-.86,1.288,1.288,0,0,1,.92-.32,1.26,1.26,0,0,1,.9.32,1.125,1.125,0,0,1,.34.86v1.84h1.7a1.27,1.27,0,0,1,.83.24.857.857,0,0,1,.29.7.857.857,0,0,1-.29.7,1.27,1.27,0,0,1-.83.24h-1.7v4.54q0,1.48,1.36,1.58Zm6.76,1.9a5.381,5.381,0,0,1-2.63-.62,4.29,4.29,0,0,1-1.75-1.78,5.643,5.643,0,0,1-.62-2.7,5.584,5.584,0,0,1,.62-2.69A4.3,4.3,0,0,1-23.49-9.4a5.381,5.381,0,0,1,2.63-.62,5.381,5.381,0,0,1,2.63.62,4.242,4.242,0,0,1,1.74,1.77,5.659,5.659,0,0,1,.61,2.69,5.719,5.719,0,0,1-.61,2.7A4.228,4.228,0,0,1-18.23-.46,5.381,5.381,0,0,1-20.86.16Zm-.02-1.94a2.241,2.241,0,0,0,1.86-.8,3.717,3.717,0,0,0,.64-2.36,3.724,3.724,0,0,0-.64-2.35,2.207,2.207,0,0,0-1.84-.81,2.235,2.235,0,0,0-1.85.81,3.682,3.682,0,0,0-.65,2.35,3.717,3.717,0,0,0,.64,2.36A2.219,2.219,0,0,0-20.88-1.78ZM-10.28.16A6.43,6.43,0,0,1-13.8-.7a1.193,1.193,0,0,1-.64-1.08.948.948,0,0,1,.22-.65.692.692,0,0,1,.54-.25,2.209,2.209,0,0,1,.94.32,8.755,8.755,0,0,0,1.17.46,4.765,4.765,0,0,0,1.35.16,2.567,2.567,0,0,0,1.31-.28.867.867,0,0,0,.47-.78.752.752,0,0,0-.19-.54,1.742,1.742,0,0,0-.68-.37A14.3,14.3,0,0,0-10.8-4.1a5.725,5.725,0,0,1-2.55-1.02,2.27,2.27,0,0,1-.77-1.82,2.626,2.626,0,0,1,.52-1.59,3.37,3.37,0,0,1,1.43-1.1,5.21,5.21,0,0,1,2.07-.39,6.2,6.2,0,0,1,1.62.21,4.925,4.925,0,0,1,1.4.61,1.207,1.207,0,0,1,.64,1.06,1.026,1.026,0,0,1-.22.67.672.672,0,0,1-.54.27,1.082,1.082,0,0,1-.43-.09,5.77,5.77,0,0,1-.53-.27,8.386,8.386,0,0,0-1-.45,3.119,3.119,0,0,0-1.04-.15,2.014,2.014,0,0,0-1.17.3.948.948,0,0,0-.43.82.832.832,0,0,0,.44.76,6.3,6.3,0,0,0,1.7.52,9.7,9.7,0,0,1,2.1.64,2.459,2.459,0,0,1,1.09.9,2.611,2.611,0,0,1,.33,1.38A2.565,2.565,0,0,1-7.27-.66,5.016,5.016,0,0,1-10.28.16Z" transform="translate(143 32)" fill="#3f3f3f"/>
  </g>
</svg>
