<svg xmlns="http://www.w3.org/2000/svg" width="35.324" height="35.324" viewBox="0 0 35.324 35.324">
  <path id="react" d="M50.662,75.323a17.686,17.686,0,0,1-4.347-.539,17.507,17.507,0,0,1-6.16-2.924,17.821,17.821,0,0,1-5.205-6.124,17.662,17.662,0,1,1,31.425,0,17.825,17.825,0,0,1-5.206,6.124,17.6,17.6,0,0,1-10.506,3.463Zm.227-6.1h0c.438.409.882.793,1.32,1.141a9.308,9.308,0,0,0,5.4,2.4,3.643,3.643,0,0,0,1.848-.473c1.238-.714,1.966-2.177,2.107-4.229a14.046,14.046,0,0,0-.147-3.09c-.08-.534-.185-1.088-.312-1.645.577-.177,1.124-.367,1.627-.566a12.019,12.019,0,0,0,3.674-2.142c0-.022,0-.044.007-.066v-.009a4.287,4.287,0,0,0,1.62-3.171c0-2.079-1.881-3.966-5.3-5.313-.519-.2-1.07-.4-1.638-.57.125-.545.23-1.1.312-1.643.059-.4.1-.793.134-1.164.255-3.045-.485-5.231-2.082-6.154a3.643,3.643,0,0,0-1.847-.473,9.311,9.311,0,0,0-5.4,2.4c-.44.349-.884.733-1.32,1.142-.434-.406-.878-.791-1.32-1.142a9.313,9.313,0,0,0-5.4-2.4,3.644,3.644,0,0,0-1.847.473c-1.235.714-1.964,2.17-2.106,4.213a14,14,0,0,0,.147,3.1c.079.529.184,1.083.312,1.646-.563.172-1.11.363-1.627.567-3.29,1.3-5.169,3.111-5.29,5.1-.008.094-.012.189-.012.283,0,2.077,1.881,3.964,5.3,5.314.522.206,1.073.4,1.638.569-.13.57-.235,1.123-.312,1.644-.067.45-.116.89-.145,1.306-.225,3.013.5,5.092,2.093,6.012a3.645,3.645,0,0,0,1.848.473,9.313,9.313,0,0,0,5.4-2.4c.434-.344.878-.728,1.319-1.141Zm6.718,1.849a3.908,3.908,0,0,1-1.125-.187,10.477,10.477,0,0,1-3.257-1.866c-.377-.3-.762-.63-1.144-.983a34.137,34.137,0,0,0,2.886-3.524,34.223,34.223,0,0,0,4.551-.75c.118.511.215,1.025.291,1.528a12.678,12.678,0,0,1,.139,2.679,6.808,6.808,0,0,1-.147,1,2.7,2.7,0,0,1-1.147,1.846A2.063,2.063,0,0,1,57.607,71.071Zm-13.425,0h0a2.059,2.059,0,0,1-1.046-.258,2.7,2.7,0,0,1-1.147-1.846,8.845,8.845,0,0,1-.146-2.542c.027-.367.07-.749.128-1.137.074-.5.172-1.011.291-1.528a34.246,34.246,0,0,0,4.551.75,34.2,34.2,0,0,0,2.889,3.53c-.379.35-.762.679-1.137.977a10.484,10.484,0,0,1-3.257,1.865A3.912,3.912,0,0,1,44.182,71.071Zm6.712-4.211h0c-.632-.668-1.264-1.406-1.878-2.193.605.027,1.225.041,1.842.041h.032c.639,0,1.273-.015,1.884-.042-.618.792-1.25,1.529-1.879,2.193Zm0-3.849c-1.075,0-2.146-.042-3.182-.124-.59-.856-1.161-1.762-1.7-2.694s-1.025-1.855-1.469-2.786c.446-.931.938-1.865,1.464-2.776.537-.931,1.109-1.837,1.7-2.694,1.031-.082,2.1-.124,3.182-.124s2.143.042,3.181.124c.591.857,1.162,1.763,1.7,2.694s1.025,1.857,1.469,2.787c-.443.928-.935,1.862-1.463,2.776s-1.107,1.834-1.7,2.693C53.043,62.969,51.973,63.011,50.895,63.011Zm0-8.858a3.232,3.232,0,0,0-3.213,2.982,3.2,3.2,0,0,0,.417,1.924,3.222,3.222,0,0,0,6-1.395c.009-.095.013-.192.013-.29A3.225,3.225,0,0,0,50.895,54.153Zm5.325,8.5h0c.323-.508.645-1.037.956-1.575.321-.555.634-1.127.93-1.7.379.929.707,1.853.976,2.745-.9.215-1.868.393-2.861.531Zm-10.662,0h0c-1-.139-1.959-.318-2.86-.532.27-.9.6-1.82.975-2.744.292.564.6,1.137.931,1.7.3.522.622,1.052.955,1.574Zm15.117-.961h0a34.257,34.257,0,0,0-1.612-4.286,34.151,34.151,0,0,0,1.607-4.273c.52.16,1.013.333,1.467.513a10.462,10.462,0,0,1,3.245,1.888,2.7,2.7,0,0,1,1.025,1.916c0,.03,0,.062,0,.1a2.856,2.856,0,0,1-1.016,1.739,10.467,10.467,0,0,1-3.244,1.888c-.473.186-.967.358-1.468.512Zm-19.56,0h0c-.5-.154-1-.326-1.468-.512A10.468,10.468,0,0,1,36.4,59.291a2.705,2.705,0,0,1-1.025-1.916q0-.041,0-.082A2.84,2.84,0,0,1,36.4,55.532a10.466,10.466,0,0,1,3.244-1.887c.459-.182.953-.354,1.468-.512a33.958,33.958,0,0,0,1.612,4.285,34.14,34.14,0,0,0-1.607,4.273Zm2.563-6.246h0c-.379-.928-.707-1.851-.977-2.744.9-.214,1.866-.392,2.863-.53-.33.518-.651,1.048-.955,1.575-.323.559-.636,1.131-.93,1.7Zm14.434,0h0c-.3-.579-.613-1.151-.93-1.7-.3-.529-.626-1.059-.955-1.574,1,.139,1.96.318,2.862.532-.269.892-.6,1.814-.975,2.741ZM42.267,51.064h0c-.12-.523-.218-1.037-.29-1.527a12.63,12.63,0,0,1-.14-2.674,6.754,6.754,0,0,1,.148-1.005A2.7,2.7,0,0,1,43.13,44.01a2.062,2.062,0,0,1,1.045-.257,3.905,3.905,0,0,1,1.127.188,10.474,10.474,0,0,1,3.257,1.864c.392.313.777.645,1.143.984a34.211,34.211,0,0,0-2.886,3.525,34.054,34.054,0,0,0-4.55.75Zm17.256,0h0a34.058,34.058,0,0,0-4.55-.75,34.2,34.2,0,0,0-2.891-3.53c.381-.352.764-.68,1.138-.977a10.459,10.459,0,0,1,3.257-1.866,3.9,3.9,0,0,1,1.126-.187,2.06,2.06,0,0,1,1.046.258,2.7,2.7,0,0,1,1.147,1.846,8.968,8.968,0,0,1,.139,2.625c-.027.337-.067.691-.121,1.055-.073.491-.171,1-.291,1.527Zm-6.755-.906h0c-.615-.028-1.244-.042-1.872-.042s-1.25.014-1.883.042c.612-.787,1.244-1.524,1.877-2.193.636.673,1.267,1.41,1.878,2.192Z" transform="translate(-33 -40)" fill="#5adafd"/>
</svg>
