<svg xmlns="http://www.w3.org/2000/svg" width="46.693" height="35" viewBox="0 0 46.693 35">
  <path id="sass" d="M72.367,214.286a9.6,9.6,0,0,0-4.23.984,8.853,8.853,0,0,1-.946-2.191,5.82,5.82,0,0,1-.082-1.841,16.105,16.105,0,0,1,.552-1.984c-.007-.083-.1-.484-1.043-.491s-1.746.181-1.841.43a9.288,9.288,0,0,0-.389,1.391,33.418,33.418,0,0,1-2.853,5.49,5.719,5.719,0,0,1-.645-1.6,5.82,5.82,0,0,1-.082-1.841,16.12,16.12,0,0,1,.552-1.984c-.007-.083-.1-.484-1.043-.491s-1.746.181-1.841.43-.2.829-.389,1.391-2.472,5.64-3.069,6.956c-.3.671-.569,1.209-.756,1.577v0l-.031.066c-.16.313-.255.486-.255.486l0,.007c-.127.23-.263.444-.33.444a2.948,2.948,0,0,1,.02-1.453c.339-1.761,1.154-4.509,1.146-4.6,0-.048.151-.527-.532-.777a.848.848,0,0,0-.962.164c-.059,0-.1.143-.1.143s.74-3.089-1.412-3.089c-1.345,0-3.209,1.472-4.128,2.805-.579.316-1.819.993-3.135,1.716l-1.51.831-.1-.11c-2.609-2.783-7.432-4.752-7.228-8.495.074-1.36.547-4.943,9.268-9.288,7.143-3.56,12.862-2.58,13.85-.409,1.412,3.1-3.056,8.866-10.475,9.7-2.826.317-4.315-.779-4.685-1.187-.39-.43-.448-.449-.593-.368-.237.131-.087.511,0,.736a4.4,4.4,0,0,0,2.68,2.107,14.208,14.208,0,0,0,8.695-.859c4.495-1.739,8-6.575,6.974-10.618-1.048-4.112-7.866-5.463-14.318-3.171a32.42,32.42,0,0,0-10.986,6.3c-3.554,3.324-4.121,6.217-3.887,7.426.83,4.3,6.75,7.093,9.121,9.166l-.326.18c-1.189.588-5.7,2.95-6.831,5.445-1.281,2.831.2,4.862,1.187,5.135a7.284,7.284,0,0,0,7.848-3.181,7.892,7.892,0,0,0,.7-7.253l-.03-.055.93-.548c.6-.355,1.2-.687,1.714-.967a11.524,11.524,0,0,0-.609,3.1,6.459,6.459,0,0,0,1.391,4.5,1.526,1.526,0,0,0,1.125.368c1,0,1.46-.834,1.964-1.821.618-1.21,1.166-2.619,1.166-2.619s-.688,3.805,1.187,3.805c.683,0,1.37-.886,1.676-1.337v.008l.053-.088c.071-.109.111-.178.111-.178l0-.02c.275-.477.883-1.564,1.8-3.356,1.18-2.316,2.312-5.217,2.312-5.217a15.516,15.516,0,0,0,.45,1.882,17.589,17.589,0,0,0,.974,2.185c-.274.38-.442.6-.442.6l0,.011c-.219.29-.464.6-.721.909a26.366,26.366,0,0,0-2.189,2.741.748.748,0,0,0,.2,1,1.834,1.834,0,0,0,1.146.184,5.221,5.221,0,0,0,1.716-.39,5.775,5.775,0,0,0,1.475-.776,3.282,3.282,0,0,0,1.412-2.905,5.891,5.891,0,0,0-.536-2.053q.124-.179.249-.361a38.982,38.982,0,0,0,2.557-4.419,15.515,15.515,0,0,0,.45,1.882,13.138,13.138,0,0,0,.828,1.876,8.025,8.025,0,0,0-2.486,3.218c-.539,1.551-.117,2.254.675,2.414a2.439,2.439,0,0,0,1.247-.253,5.776,5.776,0,0,0,1.577-.811,3.536,3.536,0,0,0,1.739-2.885,5.416,5.416,0,0,0-.395-1.707,8.92,8.92,0,0,1,4.527-.523c4.061.474,4.858,3.01,4.705,4.071a2.678,2.678,0,0,1-1.289,1.821c-.285.176-.372.237-.348.368.035.19.166.183.409.142a3.167,3.167,0,0,0,2.209-2.822C78.971,217,76.588,214.264,72.367,214.286Zm-31.3,10.553c-1.345,1.467-3.224,2.022-4.03,1.555-.87-.5-.526-2.665,1.125-4.222a21.361,21.361,0,0,1,3.166-2.361l.834-.5.091-.051v0l.208-.125A5.834,5.834,0,0,1,41.066,224.839Zm9.8-6.662c-.468,1.142-1.449,4.064-2.046,3.907-.512-.134-.824-2.356-.1-4.542a10.125,10.125,0,0,1,1.6-2.925c.734-.821,1.542-1.09,1.739-.757C52.3,214.285,51.159,217.461,50.865,218.177Zm8.1,3.863c-.2.1-.381.169-.465.119-.062-.037.082-.174.082-.174s1.013-1.089,1.412-1.585c.232-.289.5-.631.794-1.014,0,.038,0,.076,0,.114C60.784,220.8,59.523,221.686,58.961,222.04Zm6.237-1.422c-.148-.105-.124-.446.364-1.508a5.694,5.694,0,0,1,1.386-1.789,2.548,2.548,0,0,1-1.75,3.3Z" transform="translate(-32.183 -194.17)" fill="#bf4c86"/>
</svg>
