<svg xmlns="http://www.w3.org/2000/svg" xmlns:xlink="http://www.w3.org/1999/xlink" width="141.074" height="48.342" viewBox="0 0 141.074 48.342">
  <defs>
    <linearGradient id="linear-gradient" x1="0.5" x2="0.5" y2="1" gradientUnits="objectBoundingBox">
      <stop offset="0" stop-color="#264de4"/>
      <stop offset="0.159" stop-color="#2653e3"/>
      <stop offset="0.374" stop-color="#2664e3"/>
      <stop offset="0.621" stop-color="#2680e3"/>
      <stop offset="0.89" stop-color="#26a7e3"/>
      <stop offset="1" stop-color="#26bae3"/>
    </linearGradient>
  </defs>
  <g id="sobre_mi_dark" transform="translate(-615.92 62)">
    <path id="Trazado_360" data-name="Trazado 360" d="M-113.6.12a1.419,1.419,0,0,1-1.06-.43,1.471,1.471,0,0,1-.42-1.07,1.471,1.471,0,0,1,.42-1.07,1.419,1.419,0,0,1,1.06-.43,1.419,1.419,0,0,1,1.06.43,1.471,1.471,0,0,1,.42,1.07,1.471,1.471,0,0,1-.42,1.07A1.419,1.419,0,0,1-113.6.12Zm9.08.06a10.1,10.1,0,0,1-2.91-.41,6.406,6.406,0,0,1-2.23-1.11,1.124,1.124,0,0,1-.46-.96,1.128,1.128,0,0,1,.25-.73.74.74,0,0,1,.59-.31,1.625,1.625,0,0,1,.82.28,6,6,0,0,0,1.8.9,7.268,7.268,0,0,0,2.08.28,4.1,4.1,0,0,0,2.24-.51,1.669,1.669,0,0,0,.78-1.49,1.281,1.281,0,0,0-.73-1.17,9.666,9.666,0,0,0-2.43-.79,14.4,14.4,0,0,1-2.86-.88A4.038,4.038,0,0,1-109.24-8a3.311,3.311,0,0,1-.56-1.98,3.726,3.726,0,0,1,.7-2.22,4.612,4.612,0,0,1,1.95-1.53,6.907,6.907,0,0,1,2.81-.55,6.975,6.975,0,0,1,4.66,1.52,1.5,1.5,0,0,1,.37.43,1.136,1.136,0,0,1,.11.53,1.128,1.128,0,0,1-.25.73.74.74,0,0,1-.59.31,1.1,1.1,0,0,1-.37-.06,2.965,2.965,0,0,1-.45-.22,6.758,6.758,0,0,0-1.59-.89,5.391,5.391,0,0,0-1.89-.29,3.707,3.707,0,0,0-2.15.55,1.761,1.761,0,0,0-.79,1.53,1.4,1.4,0,0,0,.7,1.26,8.2,8.2,0,0,0,2.38.82,16.014,16.014,0,0,1,2.89.89,4.286,4.286,0,0,1,1.7,1.25,3.005,3.005,0,0,1,.59,1.9,3.63,3.63,0,0,1-.69,2.19,4.5,4.5,0,0,1-1.94,1.48A7.3,7.3,0,0,1-104.52.18ZM-92.4.16a5.381,5.381,0,0,1-2.63-.62,4.29,4.29,0,0,1-1.75-1.78,5.643,5.643,0,0,1-.62-2.7,5.584,5.584,0,0,1,.62-2.69A4.3,4.3,0,0,1-95.03-9.4a5.381,5.381,0,0,1,2.63-.62,5.381,5.381,0,0,1,2.63.62,4.242,4.242,0,0,1,1.74,1.77,5.659,5.659,0,0,1,.61,2.69,5.719,5.719,0,0,1-.61,2.7A4.228,4.228,0,0,1-89.77-.46,5.381,5.381,0,0,1-92.4.16Zm-.02-1.94a2.241,2.241,0,0,0,1.86-.8,3.717,3.717,0,0,0,.64-2.36,3.724,3.724,0,0,0-.64-2.35A2.207,2.207,0,0,0-92.4-8.1a2.235,2.235,0,0,0-1.85.81,3.682,3.682,0,0,0-.65,2.35,3.717,3.717,0,0,0,.64,2.36A2.219,2.219,0,0,0-92.42-1.78Zm12.68-8.24a4.136,4.136,0,0,1,2.26.62,4.166,4.166,0,0,1,1.53,1.76,6.057,6.057,0,0,1,.55,2.66,6.255,6.255,0,0,1-.55,2.69A4.244,4.244,0,0,1-77.49-.48a4.053,4.053,0,0,1-2.25.64A3.833,3.833,0,0,1-81.63-.3,3.131,3.131,0,0,1-82.9-1.58v.5a1.125,1.125,0,0,1-.34.86,1.26,1.26,0,0,1-.9.32,1.224,1.224,0,0,1-.89-.32,1.143,1.143,0,0,1-.33-.86V-13.04a1.084,1.084,0,0,1,.35-.84,1.3,1.3,0,0,1,.91-.32,1.311,1.311,0,0,1,.9.3,1.037,1.037,0,0,1,.34.82v4.72A2.99,2.99,0,0,1-81.6-9.59,3.944,3.944,0,0,1-79.74-10.02Zm-.66,8.24a2.208,2.208,0,0,0,1.84-.84,3.737,3.737,0,0,0,.66-2.36,3.567,3.567,0,0,0-.65-2.3,2.247,2.247,0,0,0-1.85-.8,2.235,2.235,0,0,0-1.85.81,3.646,3.646,0,0,0-.65,2.33,3.69,3.69,0,0,0,.65,2.34A2.224,2.224,0,0,0-80.4-1.78Zm12.52-8.2a1.077,1.077,0,0,1,.82.22.977.977,0,0,1,.3.78,1.09,1.09,0,0,1-.26.8,1.6,1.6,0,0,1-.94.34l-.6.06a2.43,2.43,0,0,0-1.73.8,2.616,2.616,0,0,0-.55,1.7v4.2a1.11,1.11,0,0,1-.36.89,1.33,1.33,0,0,1-.9.31,1.293,1.293,0,0,1-.89-.31,1.126,1.126,0,0,1-.35-.89V-8.82a1.071,1.071,0,0,1,.35-.86,1.29,1.29,0,0,1,.87-.3,1.2,1.2,0,0,1,.84.29,1.063,1.063,0,0,1,.32.83v.8a2.96,2.96,0,0,1,1.13-1.36,3.464,3.464,0,0,1,1.67-.54Zm9.74,7.3a.673.673,0,0,1,.55.26,1.082,1.082,0,0,1,.21.7,1.213,1.213,0,0,1-.74,1.04,6.686,6.686,0,0,1-1.54.61A6.349,6.349,0,0,1-61.3.16,5.1,5.1,0,0,1-65.04-1.2a4.985,4.985,0,0,1-1.38-3.72,5.707,5.707,0,0,1,.6-2.66,4.363,4.363,0,0,1,1.69-1.8,4.786,4.786,0,0,1,2.47-.64,4.432,4.432,0,0,1,2.3.58A3.933,3.933,0,0,1-57.84-7.8a5.442,5.442,0,0,1,.54,2.5q0,.86-.76.86h-5.9a3.147,3.147,0,0,0,.78,2.03,2.625,2.625,0,0,0,1.92.65,3.641,3.641,0,0,0,1.13-.16,11.154,11.154,0,0,0,1.11-.44A2.207,2.207,0,0,1-58.14-2.68ZM-61.6-8.26a2.146,2.146,0,0,0-1.63.64,3.022,3.022,0,0,0-.73,1.84h4.52a2.852,2.852,0,0,0-.6-1.85A1.979,1.979,0,0,0-61.6-8.26Zm23.38-1.76a3.117,3.117,0,0,1,2.45.95A4.542,4.542,0,0,1-34.92-6v4.92a1.126,1.126,0,0,1-.35.89,1.322,1.322,0,0,1-.91.31,1.293,1.293,0,0,1-.89-.31,1.126,1.126,0,0,1-.35-.89V-6a2.474,2.474,0,0,0-.39-1.57A1.458,1.458,0,0,0-39-8.04a1.958,1.958,0,0,0-1.56.67,2.7,2.7,0,0,0-.58,1.83v4.46a1.126,1.126,0,0,1-.35.89,1.293,1.293,0,0,1-.89.31,1.33,1.33,0,0,1-.9-.31,1.11,1.11,0,0,1-.36-.89V-6a2.474,2.474,0,0,0-.39-1.57,1.458,1.458,0,0,0-1.19-.47,1.929,1.929,0,0,0-1.55.67,2.734,2.734,0,0,0-.57,1.83v4.46a1.11,1.11,0,0,1-.36.89,1.33,1.33,0,0,1-.9.31,1.293,1.293,0,0,1-.89-.31,1.126,1.126,0,0,1-.35-.89V-8.82a1.056,1.056,0,0,1,.36-.86,1.358,1.358,0,0,1,.9-.3,1.24,1.24,0,0,1,.85.29,1.046,1.046,0,0,1,.33.83v.48A3.135,3.135,0,0,1-46.17-9.6a3.637,3.637,0,0,1,1.77-.42,2.866,2.866,0,0,1,2.94,1.84,3.305,3.305,0,0,1,1.3-1.34A3.788,3.788,0,0,1-38.22-10.02ZM-31.14.12a1.293,1.293,0,0,1-.89-.31,1.126,1.126,0,0,1-.35-.89V-8.8a1.1,1.1,0,0,1,.35-.88,1.319,1.319,0,0,1,.89-.3,1.358,1.358,0,0,1,.9.3,1.08,1.08,0,0,1,.36.88v7.72a1.11,1.11,0,0,1-.36.89A1.33,1.33,0,0,1-31.14.12Zm0-11.88a1.528,1.528,0,0,1-1.08-.37,1.26,1.26,0,0,1-.4-.97,1.228,1.228,0,0,1,.4-.96,1.554,1.554,0,0,1,1.08-.36,1.562,1.562,0,0,1,1.07.36,1.214,1.214,0,0,1,.41.96,1.26,1.26,0,0,1-.4.97A1.528,1.528,0,0,1-31.14-11.76ZM-16.4,1.72a1.038,1.038,0,0,1,.7.24.871.871,0,0,1,.28.7.871.871,0,0,1-.28.7,1.038,1.038,0,0,1-.7.24h-1.5a2.4,2.4,0,0,1-1.79-.64,2.428,2.428,0,0,1-.63-1.78V-2.7a1.9,1.9,0,0,0-.28-1.16,1.35,1.35,0,0,0-1-.42.981.981,0,0,1-.71-.29.976.976,0,0,1-.25-.69.94.94,0,0,1,.25-.68,1,1,0,0,1,.71-.28,1.35,1.35,0,0,0,1-.42,1.9,1.9,0,0,0,.28-1.16v-3.88a2.428,2.428,0,0,1,.63-1.78,2.4,2.4,0,0,1,1.79-.64h1.5a1.038,1.038,0,0,1,.7.24.871.871,0,0,1,.28.7.871.871,0,0,1-.28.7,1.038,1.038,0,0,1-.7.24h-.64a.856.856,0,0,0-.63.21.917.917,0,0,0-.21.67V-7.5a2.4,2.4,0,0,1-.47,1.51,1.909,1.909,0,0,1-1.11.75,1.922,1.922,0,0,1,1.11.74A2.358,2.358,0,0,1-17.88-3V.84a.917.917,0,0,0,.21.67.856.856,0,0,0,.63.21Zm7.36-.22a1.082,1.082,0,0,1-.7-.21A.673.673,0,0,1-10,.74.645.645,0,0,1-9.73.21,1.091,1.091,0,0,1-9.04,0H-.96A1.091,1.091,0,0,1-.27.21.645.645,0,0,1,0,.74a.673.673,0,0,1-.26.55,1.082,1.082,0,0,1-.7.21Z" transform="translate(731 -31)" fill="#3f3f3f"/>
    <path id="Trazado_169" data-name="Trazado 169" d="M301.408,171.8a2.622,2.622,0,0,1-2.619-2.619v-5.031a2.619,2.619,0,0,1,5.238,0v2.412h71.394V128.694H305.49a2.619,2.619,0,1,1,0-5.238H378.04a2.622,2.622,0,0,1,2.618,2.619v43.1a2.622,2.622,0,0,1-2.618,2.619Z" transform="translate(376.336 -185.456)" fill="url(#linear-gradient)"/>
  </g>
</svg>
