<svg xmlns="http://www.w3.org/2000/svg" width="30.362" height="30.362" viewBox="0 0 30.362 30.362">
  <defs>
    <style>
      .cls-1 {
        fill: #3f3f3f;
      }
    </style>
  </defs>
  <path id="twiter" class="cls-1" d="M15.181,30.362a15.293,15.293,0,0,1-3.059-.308,15.1,15.1,0,0,1-5.428-2.284,15.225,15.225,0,0,1-5.5-6.679,15.1,15.1,0,0,1-.885-2.85,15.329,15.329,0,0,1,0-6.119A15.1,15.1,0,0,1,2.593,6.693a15.225,15.225,0,0,1,6.679-5.5,15.1,15.1,0,0,1,2.85-.885,15.329,15.329,0,0,1,6.119,0,15.1,15.1,0,0,1,5.428,2.284,15.225,15.225,0,0,1,5.5,6.679,15.1,15.1,0,0,1,.885,2.85,15.329,15.329,0,0,1,0,6.119,15.1,15.1,0,0,1-2.284,5.428,15.225,15.225,0,0,1-6.679,5.5,15.1,15.1,0,0,1-2.85.885A15.293,15.293,0,0,1,15.181,30.362ZM7.787,19.989h0a.513.513,0,0,0-.331.117.573.573,0,0,0-.182.281.551.551,0,0,0,0,.331A.537.537,0,0,0,7.506,21a10.169,10.169,0,0,0,5.46,1.574A9.986,9.986,0,0,0,23.1,12.42a4.112,4.112,0,0,0,1.5-2.807.548.548,0,0,0-.825-.472,2.5,2.5,0,0,1-1.274.389,2.1,2.1,0,0,1-.568-.08,3.88,3.88,0,0,0-2.72-1.113,4.047,4.047,0,0,0-1.912.49,3.749,3.749,0,0,0-2.043,3.527,9.09,9.09,0,0,1-4.666-2,9.009,9.009,0,0,1-1.22-1.216.548.548,0,0,0-.422-.2.542.542,0,0,0-.473.271,3.814,3.814,0,0,0-.085,3.769.568.568,0,0,0-.476.567,3.862,3.862,0,0,0,1.346,2.917.55.55,0,0,0-.14.567,3.928,3.928,0,0,0,2.225,2.383,6.422,6.422,0,0,1-2.751.623,5.946,5.946,0,0,1-.722-.044.6.6,0,0,0-.079-.005Zm5.18,1.488a9.182,9.182,0,0,1-2.951-.483,7.412,7.412,0,0,0,3.1-1.392A.535.535,0,0,0,13.3,19a.541.541,0,0,0-.508-.378,2.855,2.855,0,0,1-2.243-1.167,3.838,3.838,0,0,0,.748-.12.548.548,0,0,0-.035-1.065,2.811,2.811,0,0,1-2.13-1.913,3.781,3.781,0,0,0,.835.111h0a.542.542,0,0,0,.53-.392.535.535,0,0,0-.222-.613,2.768,2.768,0,0,1-1.073-1.319,2.691,2.691,0,0,1-.175-.812,2.723,2.723,0,0,1,.083-.84A10.135,10.135,0,0,0,15.86,13.5h.034a.534.534,0,0,0,.419-.2.548.548,0,0,0,.107-.467A2.673,2.673,0,0,1,17.815,9.79a3.045,3.045,0,0,1,1.422-.361,2.672,2.672,0,0,1,1.021.2,2.852,2.852,0,0,1,.979.682,1.844,1.844,0,0,0,1.218.3,3.585,3.585,0,0,0,.77-.077,3.522,3.522,0,0,1-1,1.175.544.544,0,0,0-.233.475,8.889,8.889,0,0,1-9.026,9.291Z"/>
</svg>
